<?xml version="1.0" encoding="UTF-8" standalone="no"?>
<!DOCTYPE svg PUBLIC "-//W3C//DTD SVG 1.1//EN" "http://www.w3.org/Graphics/SVG/1.1/DTD/svg11.dtd">
<!-- Generated by Microsoft Visio, SVG Export AddVMtoAS.svg Page-1 -->
<svg xmlns="http://www.w3.org/2000/svg" xmlns:xlink="http://www.w3.org/1999/xlink" xmlns:ev="http://www.w3.org/2001/xml-events"
		xmlns:v="http://schemas.microsoft.com/visio/2003/SVGExtensions/" width="3.27626in" height="2.28108in"
		viewBox="0 0 235.891 164.238" xml:space="preserve" color-interpolation-filters="sRGB" class="st14">
	<v:documentProperties v:langID="1033" v:viewMarkup="false"/>

	<style type="text/css">
	<![CDATA[
		.st1 {visibility:visible}
		.st2 {fill:#5b9bd5;fill-opacity:0.22;filter:url(#filter_2);stroke:none}
		.st3 {fill:#59b4d9;stroke:none;stroke-width:0.75}
		.st4 {fill:#7a7a7a;stroke:none;stroke-width:12.24}
		.st5 {fill:#a0a1a2;stroke:none;stroke-width:12.24}
		.st6 {fill:#ffffff;fill-opacity:0.2;stroke:none;stroke-width:12.24}
		.st7 {fill:#59b4d9;stroke:none;stroke-width:12.24}
		.st8 {fill:#b8d432;stroke:none;stroke-width:12.24}
		.st9 {fill:#ffffff;stroke:none;stroke-width:12.24}
		.st10 {fill:#ffffff;fill-opacity:0.7;stroke:none;stroke-width:12.24}
		.st11 {fill:#ffffff;fill-opacity:0.4;stroke:none;stroke-width:12.24}
		.st12 {fill:#9dbb61}
		.st13 {stroke:none;stroke-linecap:round;stroke-linejoin:round;stroke-width:0.24}
		.st14 {fill:none;fill-rule:evenodd;font-size:12px;overflow:visible;stroke-linecap:square;stroke-miterlimit:3}
	]]>
	</style>

	<defs id="Filters">
		<filter id="filter_2">
			<feGaussianBlur stdDeviation="2"/>
		</filter>
	</defs>
	<g v:mID="0" v:index="1" v:groupContext="foregroundPage">
		<title>Page-1</title>
		<v:pageProperties v:drawingScale="0.0393701" v:pageScale="0.0393701" v:drawingUnits="24" v:shadowOffsetX="8.50394"
				v:shadowOffsetY="-8.50394"/>
		<g id="group308-1" transform="translate(12.24,-12.24)" v:mID="308" v:groupContext="group">
			<title>Sheet.308</title>
			<g id="shape249-2" v:mID="249" v:groupContext="shape" transform="translate(157.476,-139.72)">
				<title>Sheet.249</title>
				<g id="shadow249-3" v:groupContext="shadow" v:shadowOffsetX="0.3456" v:shadowOffsetY="-1.9728" v:shadowType="1"
						transform="matrix(1,0,0,1,0.3456,1.9728)" class="st1">
					<rect x="0" y="153.15" width="14.7842" height="11.0876" class="st2"/>
				</g>
				<rect x="0" y="153.15" width="14.7842" height="11.0876" class="st3"/>
			</g>
			<g id="shape250-7" v:mID="250" v:groupContext="shape" transform="translate(135.301,-139.72)">
				<title>Sheet.250</title>
				<g id="shadow250-8" v:groupContext="shadow" v:shadowOffsetX="0.3456" v:shadowOffsetY="-1.9728" v:shadowType="1"
						transform="matrix(1,0,0,1,0.3456,1.9728)" class="st1">
					<rect x="0" y="153.15" width="14.7842" height="11.0876" class="st2"/>
				</g>
				<rect x="0" y="153.15" width="14.7842" height="11.0876" class="st3"/>
			</g>
			<g id="shape251-12" v:mID="251" v:groupContext="shape" transform="translate(201.827,-39.932)">
				<title>Sheet.251</title>
				<g id="shadow251-13" v:groupContext="shadow" v:shadowOffsetX="0.3456" v:shadowOffsetY="-1.9728" v:shadowType="1"
						transform="matrix(1,0,0,1,0.3456,1.9728)" class="st1">
					<path d="M7.39 153.15 L0 153.15 L0 164.24 L11.09 164.24 C15.17 164.24 18.48 160.93 18.48 156.85 L18.48 145.76
								 L7.39 145.76 L7.39 153.15 Z" class="st2"/>
				</g>
				<path d="M7.39 153.15 L0 153.15 L0 164.24 L11.09 164.24 C15.17 164.24 18.48 160.93 18.48 156.85 L18.48 145.76 L7.39
							 145.76 L7.39 153.15 Z" class="st3"/>
			</g>
			<g id="shape252-17" v:mID="252" v:groupContext="shape" transform="translate(43.0866,-65.9639)">
				<title>Sheet.252</title>
				<g id="shadow252-18" v:groupContext="shadow" v:shadowOffsetX="0.3456" v:shadowOffsetY="-1.9728" v:shadowType="1"
						transform="matrix(1,0,0,1,0.3456,1.9728)" class="st1">
					<rect x="0" y="149.453" width="11.0876" height="14.7842" class="st2"/>
				</g>
				<rect x="0" y="149.453" width="11.0876" height="14.7842" class="st3"/>
			</g>
			<g id="shape253-22" v:mID="253" v:groupContext="shape" transform="translate(157.476,-39.932)">
				<title>Sheet.253</title>
				<g id="shadow253-23" v:groupContext="shadow" v:shadowOffsetX="0.3456" v:shadowOffsetY="-1.9728" v:shadowType="1"
						transform="matrix(1,0,0,1,0.3456,1.9728)" class="st1">
					<rect x="0" y="153.15" width="14.7842" height="11.0876" class="st2"/>
				</g>
				<rect x="0" y="153.15" width="14.7842" height="11.0876" class="st3"/>
			</g>
			<g id="shape254-27" v:mID="254" v:groupContext="shape" transform="translate(209.218,-65.8016)">
				<title>Sheet.254</title>
				<g id="shadow254-28" v:groupContext="shadow" v:shadowOffsetX="0.3456" v:shadowOffsetY="-1.9728" v:shadowType="1"
						transform="matrix(1,0,0,1,0.3456,1.9728)" class="st1">
					<rect x="0" y="149.453" width="11.0876" height="14.7842" class="st2"/>
				</g>
				<rect x="0" y="149.453" width="11.0876" height="14.7842" class="st3"/>
			</g>
			<g id="shape255-32" v:mID="255" v:groupContext="shape" transform="translate(179.652,-39.932)">
				<title>Sheet.255</title>
				<g id="shadow255-33" v:groupContext="shadow" v:shadowOffsetX="0.3456" v:shadowOffsetY="-1.9728" v:shadowType="1"
						transform="matrix(1,0,0,1,0.3456,1.9728)" class="st1">
					<rect x="0" y="153.15" width="14.7842" height="11.0876" class="st2"/>
				</g>
				<rect x="0" y="153.15" width="14.7842" height="11.0876" class="st3"/>
			</g>
			<g id="shape256-37" v:mID="256" v:groupContext="shape" transform="translate(135.301,-39.932)">
				<title>Sheet.256</title>
				<g id="shadow256-38" v:groupContext="shadow" v:shadowOffsetX="0.3456" v:shadowOffsetY="-1.9728" v:shadowType="1"
						transform="matrix(1,0,0,1,0.3456,1.9728)" class="st1">
					<rect x="0" y="153.15" width="14.7842" height="11.0876" class="st2"/>
				</g>
				<rect x="0" y="153.15" width="14.7842" height="11.0876" class="st3"/>
			</g>
			<g id="shape257-42" v:mID="257" v:groupContext="shape" transform="translate(43.0866,-40.0944)">
				<title>Sheet.257</title>
				<g id="shadow257-43" v:groupContext="shadow" v:shadowOffsetX="0.3456" v:shadowOffsetY="-1.9728" v:shadowType="1"
						transform="matrix(1,0,0,1,0.3456,1.9728)" class="st1">
					<path d="M11.09 153.15 L11.09 145.76 L0 145.76 L0 156.85 C0 160.93 3.31 164.24 7.39 164.24 L18.48 164.24 L18.48
								 153.15 L11.09 153.15 Z" class="st2"/>
				</g>
				<path d="M11.09 153.15 L11.09 145.76 L0 145.76 L0 156.85 C0 160.93 3.31 164.24 7.39 164.24 L18.48 164.24 L18.48 153.15
							 L11.09 153.15 Z" class="st3"/>
			</g>
			<g id="shape258-47" v:mID="258" v:groupContext="shape" transform="translate(43.0866,-110.314)">
				<title>Sheet.258</title>
				<g id="shadow258-48" v:groupContext="shadow" v:shadowOffsetX="0.3456" v:shadowOffsetY="-1.9728" v:shadowType="1"
						transform="matrix(1,0,0,1,0.3456,1.9728)" class="st1">
					<rect x="0" y="149.453" width="11.0876" height="14.7842" class="st2"/>
				</g>
				<rect x="0" y="149.453" width="11.0876" height="14.7842" class="st3"/>
			</g>
			<g id="shape259-52" v:mID="259" v:groupContext="shape" transform="translate(43.0866,-132.492)">
				<title>Sheet.259</title>
				<g id="shadow259-53" v:groupContext="shadow" v:shadowOffsetX="0.3456" v:shadowOffsetY="-1.9728" v:shadowType="1"
						transform="matrix(1,0,0,1,0.3456,1.9728)" class="st1">
					<path d="M11.09 156.85 L18.48 156.85 L18.48 145.76 L7.39 145.76 C3.31 145.76 0 149.07 0 153.15 L0 164.24 L11.09
								 164.24 L11.09 156.85 Z" class="st2"/>
				</g>
				<path d="M11.09 156.85 L18.48 156.85 L18.48 145.76 L7.39 145.76 C3.31 145.76 0 149.07 0 153.15 L0 164.24 L11.09 164.24
							 L11.09 156.85 Z" class="st3"/>
			</g>
			<g id="shape260-57" v:mID="260" v:groupContext="shape" transform="translate(43.0866,-88.1391)">
				<title>Sheet.260</title>
				<g id="shadow260-58" v:groupContext="shadow" v:shadowOffsetX="0.3456" v:shadowOffsetY="-1.9728" v:shadowType="1"
						transform="matrix(1,0,0,1,0.3456,1.9728)" class="st1">
					<rect x="0" y="149.453" width="11.0876" height="14.7842" class="st2"/>
				</g>
				<rect x="0" y="149.453" width="11.0876" height="14.7842" class="st3"/>
			</g>
			<g id="shape261-62" v:mID="261" v:groupContext="shape" transform="translate(209.218,-87.9768)">
				<title>Sheet.261</title>
				<g id="shadow261-63" v:groupContext="shadow" v:shadowOffsetX="0.3456" v:shadowOffsetY="-1.9728" v:shadowType="1"
						transform="matrix(1,0,0,1,0.3456,1.9728)" class="st1">
					<rect x="0" y="149.453" width="11.0876" height="14.7842" class="st2"/>
				</g>
				<rect x="0" y="149.453" width="11.0876" height="14.7842" class="st3"/>
			</g>
			<g id="shape262-67" v:mID="262" v:groupContext="shape" transform="translate(209.218,-110.154)">
				<title>Sheet.262</title>
				<g id="shadow262-68" v:groupContext="shadow" v:shadowOffsetX="0.3456" v:shadowOffsetY="-1.9728" v:shadowType="1"
						transform="matrix(1,0,0,1,0.3456,1.9728)" class="st1">
					<rect x="0" y="149.453" width="11.0876" height="14.7842" class="st2"/>
				</g>
				<rect x="0" y="149.453" width="11.0876" height="14.7842" class="st3"/>
			</g>
			<g id="shape263-72" v:mID="263" v:groupContext="shape" transform="translate(179.649,-139.72)">
				<title>Sheet.263</title>
				<g id="shadow263-73" v:groupContext="shadow" v:shadowOffsetX="0.3456" v:shadowOffsetY="-1.9728" v:shadowType="1"
						transform="matrix(1,0,0,1,0.3456,1.9728)" class="st1">
					<rect x="0" y="153.15" width="14.7842" height="11.0876" class="st2"/>
				</g>
				<rect x="0" y="153.15" width="14.7842" height="11.0876" class="st3"/>
			</g>
			<g id="shape264-77" v:mID="264" v:groupContext="shape" transform="translate(201.827,-132.329)">
				<title>Sheet.264</title>
				<g id="shadow264-78" v:groupContext="shadow" v:shadowOffsetX="0.3456" v:shadowOffsetY="-1.9728" v:shadowType="1"
						transform="matrix(1,0,0,1,0.3456,1.9728)" class="st1">
					<path d="M7.39 156.85 L7.39 164.24 L18.48 164.24 L18.48 153.15 C18.48 149.07 15.17 145.76 11.09 145.76 L0 145.76
								 L0 156.85 L7.39 156.85 Z" class="st2"/>
				</g>
				<path d="M7.39 156.85 L7.39 164.24 L18.48 164.24 L18.48 153.15 C18.48 149.07 15.17 145.76 11.09 145.76 L0 145.76
							 L0 156.85 L7.39 156.85 Z" class="st3"/>
			</g>
			<g id="shape279-82" v:mID="279" v:groupContext="shape" transform="translate(91.394,-39.9408)">
				<title>Sheet.279</title>
				<g id="shadow279-83" v:groupContext="shadow" v:shadowOffsetX="0.3456" v:shadowOffsetY="-1.9728" v:shadowType="1"
						transform="matrix(1,0,0,1,0.3456,1.9728)" class="st1">
					<rect x="0" y="153.15" width="14.7842" height="11.0876" class="st2"/>
				</g>
				<rect x="0" y="153.15" width="14.7842" height="11.0876" class="st3"/>
			</g>
			<g id="shape280-87" v:mID="280" v:groupContext="shape" transform="translate(113.395,-39.9733)">
				<title>Sheet.280</title>
				<g id="shadow280-88" v:groupContext="shadow" v:shadowOffsetX="0.3456" v:shadowOffsetY="-1.9728" v:shadowType="1"
						transform="matrix(1,0,0,1,0.3456,1.9728)" class="st1">
					<rect x="0" y="153.15" width="14.7842" height="11.0876" class="st2"/>
				</g>
				<rect x="0" y="153.15" width="14.7842" height="11.0876" class="st3"/>
			</g>
			<g id="shape281-92" v:mID="281" v:groupContext="shape" transform="translate(69.2188,-39.9408)">
				<title>Sheet.281</title>
				<g id="shadow281-93" v:groupContext="shadow" v:shadowOffsetX="0.3456" v:shadowOffsetY="-1.9728" v:shadowType="1"
						transform="matrix(1,0,0,1,0.3456,1.9728)" class="st1">
					<rect x="0" y="153.15" width="14.7842" height="11.0876" class="st2"/>
				</g>
				<rect x="0" y="153.15" width="14.7842" height="11.0876" class="st3"/>
			</g>
			<g id="shape282-97" v:mID="282" v:groupContext="shape" transform="translate(91.1105,-139.688)">
				<title>Sheet.282</title>
				<g id="shadow282-98" v:groupContext="shadow" v:shadowOffsetX="0.3456" v:shadowOffsetY="-1.9728" v:shadowType="1"
						transform="matrix(1,0,0,1,0.3456,1.9728)" class="st1">
					<rect x="0" y="153.15" width="14.7842" height="11.0876" class="st2"/>
				</g>
				<rect x="0" y="153.15" width="14.7842" height="11.0876" class="st3"/>
			</g>
			<g id="shape283-102" v:mID="283" v:groupContext="shape" transform="translate(113.112,-139.72)">
				<title>Sheet.283</title>
				<g id="shadow283-103" v:groupContext="shadow" v:shadowOffsetX="0.3456" v:shadowOffsetY="-1.9728" v:shadowType="1"
						transform="matrix(1,0,0,1,0.3456,1.9728)" class="st1">
					<rect x="0" y="153.15" width="14.7842" height="11.0876" class="st2"/>
				</g>
				<rect x="0" y="153.15" width="14.7842" height="11.0876" class="st3"/>
			</g>
			<g id="shape284-107" v:mID="284" v:groupContext="shape" transform="translate(68.9353,-139.688)">
				<title>Sheet.284</title>
				<g id="shadow284-108" v:groupContext="shadow" v:shadowOffsetX="0.3456" v:shadowOffsetY="-1.9728" v:shadowType="1"
						transform="matrix(1,0,0,1,0.3456,1.9728)" class="st1">
					<rect x="0" y="153.15" width="14.7842" height="11.0876" class="st2"/>
				</g>
				<rect x="0" y="153.15" width="14.7842" height="11.0876" class="st3"/>
			</g>
			<g id="group285-112" v:mID="285" v:groupContext="group">
				<title>Azure Portal - Virtual Machines</title>
				<g id="shape286-113" v:mID="286" v:groupContext="shape" transform="translate(6.13334,2.84217E-14)">
					<title>Sheet.286</title>
					<g id="shadow286-114" v:groupContext="shadow" v:shadowOffsetX="0.3456" v:shadowOffsetY="-1.9728"
							v:shadowType="1" transform="matrix(1,0,0,1,0.3456,1.9728)" class="st1">
						<path d="M16.85 157.42 L16 157.42 L7.65 157.42 L7.21 157.42 C8.37 161.51 6.81 162.1 0 162.1 L0 164.24 L8.66
									 164.24 L14.99 164.24 L23.17 164.24 L23.17 162.1 C16.35 162.1 15.69 161.51 16.85 157.42 Z"
								class="st2"/>
					</g>
					<path d="M16.85 157.42 L16 157.42 L7.65 157.42 L7.21 157.42 C8.37 161.51 6.81 162.1 0 162.1 L0 164.24 L8.66 164.24
								 L14.99 164.24 L23.17 164.24 L23.17 162.1 C16.35 162.1 15.69 161.51 16.85 157.42 Z" class="st4"/>
				</g>
				<g id="shape287-118" v:mID="287" v:groupContext="shape" transform="translate(0.000708647,-6.81223)">
					<title>Sheet.287</title>
					<g id="shadow287-119" v:groupContext="shadow" v:shadowOffsetX="0.3456" v:shadowOffsetY="-1.9728"
							v:shadowType="1" transform="matrix(1,0,0,1,0.3456,1.9728)" class="st1">
						<path d="M33.29 138.35 L1.93 138.35 C0.86 138.35 0 139.3 0 140.36 L0 162.24 C0 163.3 0.86 164.24 1.93 164.24
									 L33.29 164.24 C34.36 164.24 35.43 163.3 35.43 162.24 L35.43 140.36 C35.43 139.3 34.36 138.35
									 33.29 138.35 Z" class="st2"/>
					</g>
					<path d="M33.29 138.35 L1.93 138.35 C0.86 138.35 0 139.3 0 140.36 L0 162.24 C0 163.3 0.86 164.24 1.93 164.24
								 L33.29 164.24 C34.36 164.24 35.43 163.3 35.43 162.24 L35.43 140.36 C35.43 139.3 34.36 138.35 33.29
								 138.35 Z" class="st5"/>
				</g>
				<g id="shape288-123" v:mID="288" v:groupContext="shape" transform="translate(0,-6.81152)">
					<title>Sheet.288</title>
					<g id="shadow288-124" v:groupContext="shadow" v:shadowOffsetX="0.3456" v:shadowOffsetY="-1.9728"
							v:shadowType="1" transform="matrix(1,0,0,1,0.3456,1.9728)" class="st1">
						<path d="M33.31 138.35 C33.31 138.35 33.3 138.35 33.29 138.35 L1.93 138.35 C0.86 138.35 0 139.3 0 140.36
									 L0 162.24 C0 163.3 0.86 164.24 1.93 164.24 L2.67 164.24 L33.31 138.35 Z" class="st2"/>
					</g>
					<path d="M33.31 138.35 C33.31 138.35 33.3 138.35 33.29 138.35 L1.93 138.35 C0.86 138.35 0 139.3 0 140.36 L0 162.24
								 C0 163.3 0.86 164.24 1.93 164.24 L2.67 164.24 L33.31 138.35 Z" class="st6"/>
				</g>
				<g id="shape289-128" v:mID="289" v:groupContext="shape" transform="translate(2.68577,-9.53839)">
					<title>Sheet.289</title>
					<g id="shadow289-129" v:groupContext="shadow" v:shadowOffsetX="0.3456" v:shadowOffsetY="-1.9728"
							v:shadowType="1" transform="matrix(1,0,0,1,0.3456,1.9728)" class="st1">
						<rect x="0" y="143.799" width="29.9814" height="20.4381" class="st2"/>
					</g>
					<rect x="0" y="143.799" width="29.9814" height="20.4381" class="st7"/>
				</g>
				<g id="shape290-133" v:mID="290" v:groupContext="shape" transform="translate(2.68577,-9.53839)">
					<title>Sheet.290</title>
					<g id="shadow290-134" v:groupContext="shadow" v:shadowOffsetX="0.3456" v:shadowOffsetY="-1.9728"
							v:shadowType="1" transform="matrix(1,0,0,1,0.3456,1.9728)" class="st1">
						<path d="M0 164.24 L0.04 164.24 L0.04 143.8 L27.45 143.76 L27.45 143.76 L0 143.8 L0 164.24 Z" class="st2"/>
					</g>
					<path d="M0 164.24 L0.04 164.24 L0.04 143.8 L27.45 143.76 L27.45 143.76 L0 143.8 L0 164.24 Z" class="st7"/>
				</g>
				<g id="shape291-138" v:mID="291" v:groupContext="shape" transform="translate(6.13334,2.84217E-14)">
					<title>Sheet.291</title>
					<g id="shadow291-139" v:groupContext="shadow" v:shadowOffsetX="0.3456" v:shadowOffsetY="-1.9728"
							v:shadowType="1" transform="matrix(1,0,0,1,0.3456,1.9728)" class="st1">
						<rect x="0" y="162.097" width="23.1671" height="2.14082" class="st2"/>
					</g>
					<rect x="0" y="162.097" width="23.1671" height="2.14082" class="st5"/>
				</g>
				<g id="shape292-143" v:mID="292" v:groupContext="shape" transform="translate(17.0777,-30.7156)">
					<title>Sheet.292</title>
					<g id="shadow292-144" v:groupContext="shadow" v:shadowOffsetX="0.3456" v:shadowOffsetY="-1.9728"
							v:shadowType="1" transform="matrix(1,0,0,1,0.3456,1.9728)" class="st1">
						<path d="M1.01 163.73 C1.01 164.01 0.78 164.24 0.5 164.24 C0.22 164.24 0 164.01 0 163.73 C0 163.46 0.22 163.23
									 0.5 163.23 C0.78 163.23 1.01 163.46 1.01 163.73 Z" class="st2"/>
					</g>
					<path d="M1.01 163.73 C1.01 164.01 0.78 164.24 0.5 164.24 C0.22 164.24 0 164.01 0 163.73 C0 163.46 0.22 163.23
								 0.5 163.23 C0.78 163.23 1.01 163.46 1.01 163.73 Z" class="st8"/>
				</g>
				<g id="shape293-148" v:mID="293" v:groupContext="shape" transform="translate(11.6757,-20.3772)">
					<title>Sheet.293</title>
					<g id="shadow293-149" v:groupContext="shadow" v:shadowOffsetX="0.3456" v:shadowOffsetY="-1.9728"
							v:shadowType="1" transform="matrix(1,0,0,1,0.3456,1.9728)" class="st1">
						<path d="M6.43 164.24 C6.4 164.24 6.36 164.23 6.33 164.21 L0.09 160.61 C0.04 160.58 0 160.51 0 160.45 C0
									 160.38 0.04 160.32 0.09 160.28 L6.29 156.7 C6.35 156.67 6.42 156.67 6.48 156.7 L12.72 160.31
									 C12.78 160.34 12.82 160.4 12.82 160.47 C12.82 160.54 12.78 160.6 12.72 160.63 L6.52 164.21 C6.49
									 164.23 6.46 164.24 6.43 164.24 Z" class="st2"/>
					</g>
					<path d="M6.43 164.24 C6.4 164.24 6.36 164.23 6.33 164.21 L0.09 160.61 C0.04 160.58 0 160.51 0 160.45 C0 160.38
								 0.04 160.32 0.09 160.28 L6.29 156.7 C6.35 156.67 6.42 156.67 6.48 156.7 L12.72 160.31 C12.78 160.34
								 12.82 160.4 12.82 160.47 C12.82 160.54 12.78 160.6 12.72 160.63 L6.52 164.21 C6.49 164.23 6.46 164.24
								 6.43 164.24 Z" class="st9"/>
				</g>
				<g id="shape294-153" v:mID="294" v:groupContext="shape" transform="translate(10.7948,-11.6239)">
					<title>Sheet.294</title>
					<g id="shadow294-154" v:groupContext="shadow" v:shadowOffsetX="0.3456" v:shadowOffsetY="-1.9728"
							v:shadowType="1" transform="matrix(1,0,0,1,0.3456,1.9728)" class="st1">
						<path d="M6.41 164.24 C6.38 164.24 6.34 164.23 6.32 164.21 L0.1 160.62 C0.04 160.59 0 160.53 0 160.46 L0
									 153.25 C0 153.19 0.04 153.12 0.1 153.09 C0.15 153.06 0.22 153.06 0.29 153.09 L6.51 156.68 C6.56
									 156.71 6.6 156.78 6.6 156.84 L6.6 164.05 C6.6 164.12 6.56 164.18 6.51 164.21 C6.47 164.23 6.44
									 164.24 6.41 164.24 Z" class="st2"/>
					</g>
					<path d="M6.41 164.24 C6.38 164.24 6.34 164.23 6.32 164.21 L0.1 160.62 C0.04 160.59 0 160.53 0 160.46 L0 153.25
								 C0 153.19 0.04 153.12 0.1 153.09 C0.15 153.06 0.22 153.06 0.29 153.09 L6.51 156.68 C6.56 156.71
								 6.6 156.78 6.6 156.84 L6.6 164.05 C6.6 164.12 6.56 164.18 6.51 164.21 C6.47 164.23 6.44 164.24 6.41
								 164.24 Z" class="st10"/>
				</g>
				<g id="shape295-158" v:mID="295" v:groupContext="shape" transform="translate(18.7784,-11.6239)">
					<title>Sheet.295</title>
					<g id="shadow295-159" v:groupContext="shadow" v:shadowOffsetX="0.3456" v:shadowOffsetY="-1.9728"
							v:shadowType="1" transform="matrix(1,0,0,1,0.3456,1.9728)" class="st1">
						<path d="M0.19 164.24 C0.16 164.24 0.12 164.23 0.09 164.21 C0.04 164.18 0 164.12 0 164.05 L0 156.89 C0 156.82
									 0.04 156.76 0.09 156.73 L6.31 153.14 C6.37 153.1 6.44 153.1 6.5 153.14 C6.56 153.17 6.59 153.23
									 6.59 153.3 L6.59 160.46 C6.59 160.53 6.56 160.59 6.5 160.62 L0.28 164.21 C0.26 164.23 0.22 164.24
									 0.19 164.24 Z" class="st2"/>
					</g>
					<path d="M0.19 164.24 C0.16 164.24 0.12 164.23 0.09 164.21 C0.04 164.18 0 164.12 0 164.05 L0 156.89 C0 156.82
								 0.04 156.76 0.09 156.73 L6.31 153.14 C6.37 153.1 6.44 153.1 6.5 153.14 C6.56 153.17 6.59 153.23
								 6.59 153.3 L6.59 160.46 C6.59 160.53 6.56 160.59 6.5 160.62 L0.28 164.21 C0.26 164.23 0.22 164.24
								 0.19 164.24 Z" class="st11"/>
				</g>
			</g>
			<g id="group296-163" transform="translate(101.432,-69.5395)" v:mID="296" v:groupContext="group">
				<title>Azure Portal - Virtual Machines.296</title>
				<g id="shape297-164" v:mID="297" v:groupContext="shape" transform="translate(9.97819,2.84217E-14)">
					<title>Sheet.297</title>
					<g id="shadow297-165" v:groupContext="shadow" v:shadowOffsetX="0.3456" v:shadowOffsetY="-1.9728"
							v:shadowType="1" transform="matrix(1,0,0,1,0.3456,1.9728)" class="st1">
						<path d="M27.41 153.15 L26.03 153.15 L12.44 153.15 L11.73 153.15 C13.61 159.8 11.08 160.76 0 160.76 L0 164.24
									 L14.1 164.24 L24.39 164.24 L37.69 164.24 L37.69 160.76 C26.61 160.76 25.52 159.81 27.41 153.15
									 Z" class="st2"/>
					</g>
					<path d="M27.41 153.15 L26.03 153.15 L12.44 153.15 L11.73 153.15 C13.61 159.8 11.08 160.76 0 160.76 L0 164.24
								 L14.1 164.24 L24.39 164.24 L37.69 164.24 L37.69 160.76 C26.61 160.76 25.52 159.81 27.41 153.15 Z"
							class="st4"/>
				</g>
				<g id="shape298-169" v:mID="298" v:groupContext="shape" transform="translate(0.00115288,-11.0827)">
					<title>Sheet.298</title>
					<g id="shadow298-170" v:groupContext="shadow" v:shadowOffsetX="0.3456" v:shadowOffsetY="-1.9728"
							v:shadowType="1" transform="matrix(1,0,0,1,0.3456,1.9728)" class="st1">
						<path d="M54.16 122.12 L3.13 122.12 C1.4 122.12 0 123.67 0 125.4 L0 160.98 C0 162.7 1.4 164.24 3.13 164.24
									 L54.16 164.24 C55.89 164.24 57.64 162.7 57.64 160.98 L57.64 125.4 C57.64 123.66 55.89 122.12
									 54.16 122.12 Z" class="st2"/>
					</g>
					<path d="M54.16 122.12 L3.13 122.12 C1.4 122.12 0 123.67 0 125.4 L0 160.98 C0 162.7 1.4 164.24 3.13 164.24 L54.16
								 164.24 C55.89 164.24 57.64 162.7 57.64 160.98 L57.64 125.4 C57.64 123.66 55.89 122.12 54.16 122.12
								 Z" class="st5"/>
				</g>
				<g id="shape299-174" v:mID="299" v:groupContext="shape" transform="translate(0,-11.0815)">
					<title>Sheet.299</title>
					<g id="shadow299-175" v:groupContext="shadow" v:shadowOffsetX="0.3456" v:shadowOffsetY="-1.9728"
							v:shadowType="1" transform="matrix(1,0,0,1,0.3456,1.9728)" class="st1">
						<path d="M54.2 122.12 C54.19 122.12 54.17 122.12 54.16 122.12 L3.13 122.12 C1.4 122.12 0 123.67 0 125.4 L0
									 160.98 C0 162.7 1.4 164.24 3.13 164.24 L4.35 164.24 L54.2 122.12 Z" class="st2"/>
					</g>
					<path d="M54.2 122.12 C54.19 122.12 54.17 122.12 54.16 122.12 L3.13 122.12 C1.4 122.12 0 123.67 0 125.4 L0 160.98
								 C0 162.7 1.4 164.24 3.13 164.24 L4.35 164.24 L54.2 122.12 Z" class="st6"/>
				</g>
				<g id="shape300-179" v:mID="300" v:groupContext="shape" transform="translate(4.36942,-15.5178)">
					<title>Sheet.300</title>
					<g id="shadow300-180" v:groupContext="shadow" v:shadowOffsetX="0.3456" v:shadowOffsetY="-1.9728"
							v:shadowType="1" transform="matrix(1,0,0,1,0.3456,1.9728)" class="st1">
						<rect x="0" y="130.987" width="48.7761" height="33.2503" class="st2"/>
					</g>
					<rect x="0" y="130.987" width="48.7761" height="33.2503" class="st7"/>
				</g>
				<g id="shape301-184" v:mID="301" v:groupContext="shape" transform="translate(4.36942,-15.5178)">
					<title>Sheet.301</title>
					<g id="shadow301-185" v:groupContext="shadow" v:shadowOffsetX="0.3456" v:shadowOffsetY="-1.9728"
							v:shadowType="1" transform="matrix(1,0,0,1,0.3456,1.9728)" class="st1">
						<path d="M0 164.24 L0.07 164.24 L0.07 130.99 L44.66 130.92 L44.66 130.92 L0 130.99 L0 164.24 Z" class="st2"/>
					</g>
					<path d="M0 164.24 L0.07 164.24 L0.07 130.99 L44.66 130.92 L44.66 130.92 L0 130.99 L0 164.24 Z" class="st7"/>
				</g>
				<g id="shape302-189" v:mID="302" v:groupContext="shape" transform="translate(9.97819,0)">
					<title>Sheet.302</title>
					<g id="shadow302-190" v:groupContext="shadow" v:shadowOffsetX="0.3456" v:shadowOffsetY="-1.9728"
							v:shadowType="1" transform="matrix(1,0,0,1,0.3456,1.9728)" class="st1">
						<rect x="0" y="160.755" width="37.69" height="3.48286" class="st2"/>
					</g>
					<rect x="0" y="160.755" width="37.69" height="3.48286" class="st5"/>
				</g>
				<g id="shape303-194" v:mID="303" v:groupContext="shape" transform="translate(27.7833,-49.9705)">
					<title>Sheet.303</title>
					<g id="shadow303-195" v:groupContext="shadow" v:shadowOffsetX="0.3456" v:shadowOffsetY="-1.9728"
							v:shadowType="1" transform="matrix(1,0,0,1,0.3456,1.9728)" class="st1">
						<path d="M1.64 163.42 C1.64 163.87 1.27 164.24 0.82 164.24 C0.36 164.24 0 163.87 0 163.42 C0 162.97 0.36
									 162.6 0.82 162.6 C1.27 162.6 1.64 162.97 1.64 163.42 Z" class="st2"/>
					</g>
					<path d="M1.64 163.42 C1.64 163.87 1.27 164.24 0.82 164.24 C0.36 164.24 0 163.87 0 163.42 C0 162.97 0.36 162.6
								 0.82 162.6 C1.27 162.6 1.64 162.97 1.64 163.42 Z" class="st8"/>
				</g>
				<g id="shape304-199" v:mID="304" v:groupContext="shape" transform="translate(18.9949,-33.1511)">
					<title>Sheet.304</title>
					<g id="shadow304-200" v:groupContext="shadow" v:shadowOffsetX="0.3456" v:shadowOffsetY="-1.9728"
							v:shadowType="1" transform="matrix(1,0,0,1,0.3456,1.9728)" class="st1">
						<path d="M10.46 164.24 C10.4 164.24 10.35 164.22 10.3 164.19 L0.15 158.33 C0.06 158.28 0 158.18 0 158.07
									 C0 157.96 0.06 157.86 0.15 157.8 L10.24 151.98 C10.34 151.93 10.45 151.93 10.54 151.98 L20.7
									 157.84 C20.79 157.9 20.85 158 20.85 158.11 C20.85 158.22 20.79 158.32 20.7 158.37 L10.61 164.19
									 C10.56 164.22 10.51 164.24 10.46 164.24 Z" class="st2"/>
					</g>
					<path d="M10.46 164.24 C10.4 164.24 10.35 164.22 10.3 164.19 L0.15 158.33 C0.06 158.28 0 158.18 0 158.07 C0 157.96
								 0.06 157.86 0.15 157.8 L10.24 151.98 C10.34 151.93 10.45 151.93 10.54 151.98 L20.7 157.84 C20.79
								 157.9 20.85 158 20.85 158.11 C20.85 158.22 20.79 158.32 20.7 158.37 L10.61 164.19 C10.56 164.22
								 10.51 164.24 10.46 164.24 Z" class="st9"/>
				</g>
				<g id="shape305-204" v:mID="305" v:groupContext="shape" transform="translate(17.5619,-18.9107)">
					<title>Sheet.305</title>
					<g id="shadow305-205" v:groupContext="shadow" v:shadowOffsetX="0.3456" v:shadowOffsetY="-1.9728"
							v:shadowType="1" transform="matrix(1,0,0,1,0.3456,1.9728)" class="st1">
						<path d="M10.43 164.24 C10.37 164.24 10.32 164.22 10.28 164.2 L0.16 158.36 C0.06 158.3 0 158.2 0 158.09 L0
									 146.37 C0 146.26 0.06 146.16 0.16 146.1 C0.25 146.05 0.37 146.05 0.47 146.1 L10.58 151.94 C10.67
									 152 10.73 152.1 10.73 152.21 L10.73 163.93 C10.73 164.04 10.67 164.14 10.58 164.2 C10.53 164.22
									 10.48 164.24 10.43 164.24 Z" class="st2"/>
					</g>
					<path d="M10.43 164.24 C10.37 164.24 10.32 164.22 10.28 164.2 L0.16 158.36 C0.06 158.3 0 158.2 0 158.09 L0 146.37
								 C0 146.26 0.06 146.16 0.16 146.1 C0.25 146.05 0.37 146.05 0.47 146.1 L10.58 151.94 C10.67 152 10.73
								 152.1 10.73 152.21 L10.73 163.93 C10.73 164.04 10.67 164.14 10.58 164.2 C10.53 164.22 10.48 164.24
								 10.43 164.24 Z" class="st10"/>
				</g>
				<g id="shape306-209" v:mID="306" v:groupContext="shape" transform="translate(30.5502,-18.9107)">
					<title>Sheet.306</title>
					<g id="shadow306-210" v:groupContext="shadow" v:shadowOffsetX="0.3456" v:shadowOffsetY="-1.9728"
							v:shadowType="1" transform="matrix(1,0,0,1,0.3456,1.9728)" class="st1">
						<path d="M0.31 164.24 C0.25 164.24 0.2 164.22 0.15 164.2 C0.06 164.14 0 164.04 0 163.93 L0 152.28 C0 152.17
									 0.06 152.07 0.15 152.02 L10.27 146.18 C10.36 146.12 10.48 146.12 10.57 146.18 C10.67 146.23
									 10.73 146.33 10.73 146.44 L10.73 158.09 C10.73 158.2 10.67 158.3 10.57 158.36 L0.46 164.2 C0.42
									 164.22 0.36 164.24 0.31 164.24 Z" class="st2"/>
					</g>
					<path d="M0.31 164.24 C0.25 164.24 0.2 164.22 0.15 164.2 C0.06 164.14 0 164.04 0 163.93 L0 152.28 C0 152.17 0.06
								 152.07 0.15 152.02 L10.27 146.18 C10.36 146.12 10.48 146.12 10.57 146.18 C10.67 146.23 10.73 146.33
								 10.73 146.44 L10.73 158.09 C10.73 158.2 10.67 158.3 10.57 158.36 L0.46 164.2 C0.42 164.22 0.36 164.24
								 0.31 164.24 Z" class="st11"/>
				</g>
			</g>
			<g id="shape307-214" v:mID="307" v:groupContext="shape" transform="translate(-46.9449,-32.5926) rotate(-24.7751)">
				<title>Multi-Arrow</title>
				<v:userDefs>
					<v:ud v:nameU="VertexCount" v:prompt="" v:val="VT0(4):26"/>
					<v:ud v:nameU="SegmentType" v:prompt="" v:val="VT0(1):26"/>
					<v:ud v:nameU="DrawType" v:prompt="" v:val="VT0(3):26"/>
					<v:ud v:nameU="StartWidth" v:prompt="" v:val="VT0(0.15748031496063):24"/>
					<v:ud v:nameU="EndWidth" v:prompt="" v:val="VT0(0.098425196850394):24"/>
					<v:ud v:nameU="LastAngle" v:prompt="" v:val="VT0(0.30740473958158):32"/>
					<v:ud v:nameU="CtrlAngle" v:prompt="" v:val="VT0(-1.6848418692298):32"/>
					<v:ud v:nameU="ArrowFeatherAngle" v:prompt="" v:val="VT0(8.5828366555725):32"/>
					<v:ud v:nameU="ArrowFeatherDist" v:prompt="" v:val="VT0(0.19813752425262):24"/>
					<v:ud v:nameU="Joint1_2Pcnt" v:prompt="" v:val="VT0(0.3618647311596):26"/>
					<v:ud v:nameU="Joint1_2Angle" v:prompt="" v:val="VT0(1.4614082470262):32"/>
					<v:ud v:nameU="Joint2_3Pcnt" v:prompt="" v:val="VT0(0.73909384961246):26"/>
					<v:ud v:nameU="Joint2_3Angle" v:prompt="" v:val="VT0(1.436823758849):32"/>
					<v:ud v:nameU="Joint3_4Pcnt" v:prompt="" v:val="VT0(1):26"/>
					<v:ud v:nameU="Joint3_4Angle" v:prompt="" v:val="VT0(1.8782010663765):32"/>
					<v:ud v:nameU="Joint4_5Pcnt" v:prompt="" v:val="VT0(1):26"/>
					<v:ud v:nameU="Joint4_5Angle" v:prompt="" v:val="VT0(1.8782010663765):32"/>
					<v:ud v:nameU="Joint5_6Pcnt" v:prompt="" v:val="VT0(1):26"/>
					<v:ud v:nameU="Joint5_6Angle" v:prompt="" v:val="VT0(1.8782010663765):32"/>
					<v:ud v:nameU="Joint6_7Pcnt" v:prompt="" v:val="VT0(1):26"/>
					<v:ud v:nameU="Joint6_7Angle" v:prompt="" v:val="VT0(1.8782010663765):32"/>
					<v:ud v:nameU="Joint7_8Pcnt" v:prompt="" v:val="VT0(1):26"/>
					<v:ud v:nameU="Joint7_8Angle" v:prompt="" v:val="VT0(1.8782010663765):32"/>
					<v:ud v:nameU="Joint8_9Pcnt" v:prompt="" v:val="VT0(1):26"/>
					<v:ud v:nameU="Joint8_9Angle" v:prompt="" v:val="VT0(1.8782010663765):32"/>
					<v:ud v:nameU="visVersion" v:prompt="" v:val="VT0(15):26"/>
					<v:ud v:nameU="LastAngle" v:prompt="" v:val="VT0(0.38799522542026):32"/>
					<v:ud v:nameU="CtrlAngle" v:prompt="" v:val="VT0(-1.6595336824188):32"/>
					<v:ud v:nameU="ArrowFeatherAngle" v:prompt="" v:val="VT0(8.7187094404389):32"/>
					<v:ud v:nameU="ArrowFeatherDist" v:prompt="" v:val="VT0(0.19762797604812):24"/>
					<v:ud v:nameU="Joint1_2Pcnt" v:prompt="" v:val="VT0(0.35578707273809):26"/>
					<v:ud v:nameU="Joint1_2Angle" v:prompt="" v:val="VT0(1.4465325203193):32"/>
					<v:ud v:nameU="Joint2_3Pcnt" v:prompt="" v:val="VT0(0.74585149238522):26"/>
					<v:ud v:nameU="Joint2_3Angle" v:prompt="" v:val="VT0(1.4169502108737):32"/>
					<v:ud v:nameU="Joint3_4Angle" v:prompt="" v:val="VT0(1.9587915522152):32"/>
					<v:ud v:nameU="Joint4_5Angle" v:prompt="" v:val="VT0(1.9587915522152):32"/>
					<v:ud v:nameU="Joint5_6Angle" v:prompt="" v:val="VT0(1.9587915522152):32"/>
					<v:ud v:nameU="Joint6_7Angle" v:prompt="" v:val="VT0(1.9587915522152):32"/>
					<v:ud v:nameU="Joint7_8Angle" v:prompt="" v:val="VT0(1.9587915522152):32"/>
					<v:ud v:nameU="Joint8_9Angle" v:prompt="" v:val="VT0(1.9587915522152):32"/>
				</v:userDefs>
				<path d="M0 152.9 L24.86 143.15 L46.96 163.25 L60.37 157.68 L52.22 155 L76.38 158.79 L61.79 178.41 L65.73 170.8 L44.46
							 179.39 L22.43 162.65 L0 175.58 L0 152.9 L0 164.24 L0 152.9 Z" class="st12"/>
				<path d="M0 152.9 L24.86 143.15 L46.96 163.25 L60.37 157.68 L52.22 155 L76.38 158.79 L61.79 178.41 L65.73 170.8 L44.46
							 179.39 L22.43 162.65 L0 175.58 L0 152.9 L0 164.24" class="st13"/>
			</g>
		</g>
	</g>
</svg>
