<?xml version="1.0" encoding="UTF-8" standalone="no"?>
<!DOCTYPE svg PUBLIC "-//W3C//DTD SVG 1.1//EN" "http://www.w3.org/Graphics/SVG/1.1/DTD/svg11.dtd">
<!-- Generated by Microsoft Visio, SVG Export CentOSLogo.svg Page-1 -->
<svg xmlns="http://www.w3.org/2000/svg" xmlns:xlink="http://www.w3.org/1999/xlink" xmlns:ev="http://www.w3.org/2001/xml-events"
		xmlns:v="http://schemas.microsoft.com/visio/2003/SVGExtensions/" width="0.417096in" height="0.415012in"
		viewBox="0 0 30.0309 29.8809" xml:space="preserve" color-interpolation-filters="sRGB" class="st9">
	<v:documentProperties v:langID="1033" v:viewMarkup="false"/>

	<style type="text/css">
	<![CDATA[
		.st1 {fill:#b4bec1;stroke:#ffffff;stroke-linecap:butt;stroke-width:1.50116}
		.st2 {fill:#394d54;stroke:#ffffff;stroke-linecap:butt;stroke-width:1.50116}
		.st3 {fill:#fce94f;stroke:none;stroke-linecap:butt;stroke-width:0.75}
		.st4 {fill:#b4bec1;stroke:none;stroke-linecap:butt;stroke-width:0.75}
		.st5 {fill:#4f6a74;stroke:#ffffff;stroke-linecap:butt;stroke-width:1.50116}
		.st6 {fill:#4f6a74;stroke:none;stroke-linecap:butt;stroke-width:0.75}
		.st7 {fill:#8a9aa0;stroke:#ffffff;stroke-linecap:butt;stroke-width:1.50116}
		.st8 {fill:none;stroke:#ffffff;stroke-linecap:butt;stroke-width:1.50116}
		.st9 {fill:none;fill-rule:evenodd;font-size:12px;overflow:visible;stroke-linecap:square;stroke-miterlimit:3}
	]]>
	</style>

	<g v:mID="0" v:index="1" v:groupContext="foregroundPage">
		<title>Page-1</title>
		<v:pageProperties v:drawingScale="1" v:pageScale="1" v:drawingUnits="19" v:shadowOffsetX="9" v:shadowOffsetY="-9"/>
		<g id="group371-1" transform="translate(1.54828,-1.45475)" v:mID="371" v:groupContext="group">
			<title>Sheet.371</title>
			<g id="group372-2" v:mID="372" v:groupContext="group">
				<title>layer1</title>
				<g id="shape373-3" v:mID="373" v:groupContext="shape" transform="translate(-1.55605,30.1424) rotate(-134.825)">
					<title>rect4182</title>
					<path d="M0.03 29.88 L8.63 29.88 L8.58 21.28 L-0.03 21.28 L0.03 29.88 Z" class="st1"/>
				</g>
				<g id="shape374-5" v:mID="374" v:groupContext="shape" transform="translate(5.80664,37.5068) rotate(-134.825)">
					<title>rect4186</title>
					<path d="M0.03 29.88 L8.63 29.88 L8.58 21.28 L-0.03 21.28 L0.03 29.88 Z" class="st2"/>
				</g>
				<g id="shape375-7" v:mID="375" v:groupContext="shape" transform="translate(4.02077,-14.7828)">
					<title>rect4188</title>
					<rect x="0" y="21.6354" width="8.28353" height="8.24552" class="st3"/>
				</g>
				<g id="shape376-9" v:mID="376" v:groupContext="shape" transform="translate(14.7593,-3.99044)">
					<title>rect4190</title>
					<rect x="0" y="21.597" width="8.22305" height="8.28392" class="st4"/>
				</g>
				<g id="shape377-11" v:mID="377" v:groupContext="shape" transform="translate(27.1252,31.5837) rotate(135.438)">
					<title>rect4180</title>
					<path d="M0.07 29.88 L8.71 29.88 L8.58 21.24 L-0.07 21.24 L0.07 29.88 Z" class="st5"/>
				</g>
				<g id="shape378-13" v:mID="378" v:groupContext="shape" transform="translate(14.7924,-14.7289)">
					<title>rect4192</title>
					<rect x="0" y="21.6387" width="8.25077" height="8.24218" class="st6"/>
				</g>
				<g id="shape379-15" v:mID="379" v:groupContext="shape" transform="translate(34.488,38.9482) rotate(135.438)">
					<title>rect4184</title>
					<path d="M0.07 29.88 L8.71 29.88 L8.58 21.24 L-0.07 21.24 L0.07 29.88 Z" class="st7"/>
				</g>
				<g id="shape380-17" v:mID="380" v:groupContext="shape" transform="translate(3.71395,-14.7792)">
					<title>rect4168</title>
					<rect x="0" y="21.3405" width="8.59037" height="8.54041" class="st7"/>
				</g>
				<g id="shape381-19" v:mID="381" v:groupContext="shape" transform="translate(14.7593,-3.68363)">
					<title>rect4170</title>
					<rect x="0" y="21.2902" width="8.53772" height="8.59073" class="st8"/>
				</g>
				<g id="shape382-21" v:mID="382" v:groupContext="shape" transform="translate(14.7902,-14.729)">
					<title>rect4172</title>
					<rect x="0" y="21.3405" width="8.55979" height="8.54041" class="st8"/>
				</g>
				<g id="shape383-23" v:mID="383" v:groupContext="shape" transform="translate(3.71466,-3.68404)">
					<title>rect4174</title>
					<rect x="0" y="21.2909" width="8.59002" height="8.59001" class="st2"/>
				</g>
				<g id="shape384-25" v:mID="384" v:groupContext="shape" transform="translate(27.1252,31.5837) rotate(135.438)">
					<title>rect4208</title>
					<path d="M0.07 29.88 L8.71 29.88 L8.58 21.24 L-0.07 21.24 L0.07 29.88 Z" class="st8"/>
				</g>
				<g id="shape385-27" v:mID="385" v:groupContext="shape" transform="translate(-1.55615,30.1423) rotate(-134.825)">
					<title>rect4210</title>
					<path d="M0.03 29.88 L8.63 29.88 L8.58 21.28 L-0.03 21.28 L0.03 29.88 Z" class="st8"/>
				</g>
				<g id="shape386-29" v:mID="386" v:groupContext="shape" transform="translate(34.488,38.9482) rotate(135.438)">
					<title>rect4212</title>
					<path d="M0.07 29.88 L8.71 29.88 L8.58 21.24 L-0.07 21.24 L0.07 29.88 Z" class="st8"/>
				</g>
				<g id="shape387-31" v:mID="387" v:groupContext="shape" transform="translate(5.8066,37.5068) rotate(-134.825)">
					<title>rect4214</title>
					<path d="M0.03 29.88 L8.63 29.88 L8.58 21.28 L-0.03 21.28 L0.03 29.88 Z" class="st8"/>
				</g>
			</g>
		</g>
	</g>
</svg>
