<?xml version="1.0" encoding="UTF-8" standalone="no"?>
<!DOCTYPE svg PUBLIC "-//W3C//DTD SVG 1.1//EN" "http://www.w3.org/Graphics/SVG/1.1/DTD/svg11.dtd">
<!-- Generated by Microsoft Visio, SVG Export ContainersHost.svg Page-1 -->
<svg xmlns="http://www.w3.org/2000/svg" xmlns:xlink="http://www.w3.org/1999/xlink" xmlns:ev="http://www.w3.org/2001/xml-events"
		xmlns:v="http://schemas.microsoft.com/visio/2003/SVGExtensions/" width="0.490314in" height="0.478734in"
		viewBox="0 0 35.3026 34.4689" xml:space="preserve" color-interpolation-filters="sRGB" class="st11">
	<v:documentProperties v:langID="1033" v:viewMarkup="false"/>

	<style type="text/css">
	<![CDATA[
		.st1 {visibility:visible}
		.st2 {fill:#5b9bd5;fill-opacity:0.22;filter:url(#filter_2);stroke:none}
		.st3 {fill:#7a7a7a;stroke:none;stroke-width:12.24}
		.st4 {fill:#a0a1a2;stroke:none;stroke-width:12.24}
		.st5 {fill:#ffffff;fill-opacity:0.2;stroke:none;stroke-width:12.24}
		.st6 {fill:#59b4d9;stroke:none;stroke-width:12.24}
		.st7 {fill:#b8d432;stroke:none;stroke-width:12.24}
		.st8 {fill:#ffffff;stroke:none;stroke-width:12.24}
		.st9 {fill:#ffffff;fill-opacity:0.7;stroke:none;stroke-width:12.24}
		.st10 {fill:#ffffff;fill-opacity:0.4;stroke:none;stroke-width:12.24}
		.st11 {fill:none;fill-rule:evenodd;font-size:12px;overflow:visible;stroke-linecap:square;stroke-miterlimit:3}
	]]>
	</style>

	<defs id="Filters">
		<filter id="filter_2">
			<feGaussianBlur stdDeviation="2"/>
		</filter>
	</defs>
	<g v:mID="0" v:index="1" v:groupContext="foregroundPage">
		<title>Page-1</title>
		<v:pageProperties v:drawingScale="1" v:pageScale="1" v:drawingUnits="19" v:shadowOffsetX="9" v:shadowOffsetY="-9"/>
		<g id="group480-1" transform="translate(12.24,-12.24)" v:mID="480" v:groupContext="group">
			<title>Azure Portal - Virtual Machines</title>
			<g id="shape481-2" v:mID="481" v:groupContext="shape" transform="translate(1.87336,7.10543E-15)">
				<title>Sheet.481</title>
				<g id="shadow481-3" v:groupContext="shadow" v:shadowOffsetX="0.3456" v:shadowOffsetY="-1.9728" v:shadowType="1"
						transform="matrix(1,0,0,1,0.3456,1.9728)" class="st1">
					<path d="M5.15 32.39 L4.89 32.39 L2.34 32.39 L2.2 32.39 C2.56 33.64 2.08 33.82 0 33.82 L0 34.47 L2.65 34.47 L4.58
								 34.47 L7.08 34.47 L7.08 33.82 C5 33.82 4.79 33.64 5.15 32.39 Z" class="st2"/>
				</g>
				<path d="M5.15 32.39 L4.89 32.39 L2.34 32.39 L2.2 32.39 C2.56 33.64 2.08 33.82 0 33.82 L0 34.47 L2.65 34.47 L4.58
							 34.47 L7.08 34.47 L7.08 33.82 C5 33.82 4.79 33.64 5.15 32.39 Z" class="st3"/>
			</g>
			<g id="shape482-7" v:mID="482" v:groupContext="shape" transform="translate(0.000216448,-2.08072)">
				<title>Sheet.482</title>
				<g id="shadow482-8" v:groupContext="shadow" v:shadowOffsetX="0.3456" v:shadowOffsetY="-1.9728" v:shadowType="1"
						transform="matrix(1,0,0,1,0.3456,1.9728)" class="st1">
					<path d="M10.17 26.56 L0.59 26.56 C0.26 26.56 0 26.85 0 27.18 L0 33.86 C0 34.18 0.26 34.47 0.59 34.47 L10.17
								 34.47 C10.49 34.47 10.82 34.18 10.82 33.86 L10.82 27.18 C10.82 26.85 10.49 26.56 10.17 26.56 Z"
							class="st2"/>
				</g>
				<path d="M10.17 26.56 L0.59 26.56 C0.26 26.56 0 26.85 0 27.18 L0 33.86 C0 34.18 0.26 34.47 0.59 34.47 L10.17 34.47
							 C10.49 34.47 10.82 34.18 10.82 33.86 L10.82 27.18 C10.82 26.85 10.49 26.56 10.17 26.56 Z" class="st4"/>
			</g>
			<g id="shape483-12" v:mID="483" v:groupContext="shape" transform="translate(0,-2.0805)">
				<title>Sheet.483</title>
				<g id="shadow483-13" v:groupContext="shadow" v:shadowOffsetX="0.3456" v:shadowOffsetY="-1.9728" v:shadowType="1"
						transform="matrix(1,0,0,1,0.3456,1.9728)" class="st1">
					<path d="M10.18 26.56 C10.17 26.56 10.17 26.56 10.17 26.56 L0.59 26.56 C0.26 26.56 0 26.85 0 27.18 L0 33.86 C0
								 34.18 0.26 34.47 0.59 34.47 L0.82 34.47 L10.18 26.56 Z" class="st2"/>
				</g>
				<path d="M10.18 26.56 C10.17 26.56 10.17 26.56 10.17 26.56 L0.59 26.56 C0.26 26.56 0 26.85 0 27.18 L0 33.86 C0 34.18
							 0.26 34.47 0.59 34.47 L0.82 34.47 L10.18 26.56 Z" class="st5"/>
			</g>
			<g id="shape484-17" v:mID="484" v:groupContext="shape" transform="translate(0.820339,-2.91339)">
				<title>Sheet.484</title>
				<g id="shadow484-18" v:groupContext="shadow" v:shadowOffsetX="0.3456" v:shadowOffsetY="-1.9728" v:shadowType="1"
						transform="matrix(1,0,0,1,0.3456,1.9728)" class="st1">
					<rect x="0" y="28.2263" width="9.15749" height="6.24258" class="st2"/>
				</g>
				<rect x="0" y="28.2263" width="9.15749" height="6.24258" class="st6"/>
			</g>
			<g id="shape485-22" v:mID="485" v:groupContext="shape" transform="translate(0.820339,-2.91339)">
				<title>Sheet.485</title>
				<g id="shadow485-23" v:groupContext="shadow" v:shadowOffsetX="0.3456" v:shadowOffsetY="-1.9728" v:shadowType="1"
						transform="matrix(1,0,0,1,0.3456,1.9728)" class="st1">
					<path d="M0 34.47 L0.01 34.47 L0.01 28.23 L8.38 28.21 L8.39 28.21 L0 28.23 L0 34.47 Z" class="st2"/>
				</g>
				<path d="M0 34.47 L0.01 34.47 L0.01 28.23 L8.38 28.21 L8.39 28.21 L0 28.23 L0 34.47 Z" class="st6"/>
			</g>
			<g id="shape486-27" v:mID="486" v:groupContext="shape" transform="translate(1.87336,0)">
				<title>Sheet.486</title>
				<g id="shadow486-28" v:groupContext="shadow" v:shadowOffsetX="0.3456" v:shadowOffsetY="-1.9728" v:shadowType="1"
						transform="matrix(1,0,0,1,0.3456,1.9728)" class="st1">
					<rect x="0" y="33.815" width="7.07612" height="0.65389" class="st2"/>
				</g>
				<rect x="0" y="33.815" width="7.07612" height="0.65389" class="st4"/>
			</g>
			<g id="shape487-32" v:mID="487" v:groupContext="shape" transform="translate(5.21618,-9.38173)">
				<title>Sheet.487</title>
				<g id="shadow487-33" v:groupContext="shadow" v:shadowOffsetX="0.3456" v:shadowOffsetY="-1.9728" v:shadowType="1"
						transform="matrix(1,0,0,1,0.3456,1.9728)" class="st1">
					<path d="M0.31 34.32 C0.31 34.4 0.24 34.47 0.15 34.47 C0.07 34.47 0 34.4 0 34.32 C0 34.23 0.07 34.16 0.15 34.16
								 C0.24 34.16 0.31 34.23 0.31 34.32 Z" class="st2"/>
				</g>
				<path d="M0.31 34.32 C0.31 34.4 0.24 34.47 0.15 34.47 C0.07 34.47 0 34.4 0 34.32 C0 34.23 0.07 34.16 0.15 34.16 C0.24
							 34.16 0.31 34.23 0.31 34.32 Z" class="st7"/>
			</g>
			<g id="shape488-37" v:mID="488" v:groupContext="shape" transform="translate(3.5662,-6.22397)">
				<title>Sheet.488</title>
				<g id="shadow488-38" v:groupContext="shadow" v:shadowOffsetX="0.3456" v:shadowOffsetY="-1.9728" v:shadowType="1"
						transform="matrix(1,0,0,1,0.3456,1.9728)" class="st1">
					<path d="M1.96 34.47 C1.95 34.47 1.94 34.47 1.93 34.46 L0.03 33.36 C0.01 33.35 0 33.33 0 33.31 C0 33.29 0.01
								 33.27 0.03 33.26 L1.92 32.17 C1.94 32.16 1.96 32.16 1.98 32.17 L3.89 33.27 C3.9 33.28 3.91 33.3
								 3.91 33.32 C3.91 33.34 3.9 33.36 3.89 33.37 L1.99 34.46 C1.98 34.47 1.97 34.47 1.96 34.47 Z"
							class="st2"/>
				</g>
				<path d="M1.96 34.47 C1.95 34.47 1.94 34.47 1.93 34.46 L0.03 33.36 C0.01 33.35 0 33.33 0 33.31 C0 33.29 0.01 33.27
							 0.03 33.26 L1.92 32.17 C1.94 32.16 1.96 32.16 1.98 32.17 L3.89 33.27 C3.9 33.28 3.91 33.3 3.91 33.32
							 C3.91 33.34 3.9 33.36 3.89 33.37 L1.99 34.46 C1.98 34.47 1.97 34.47 1.96 34.47 Z" class="st8"/>
			</g>
			<g id="shape489-42" v:mID="489" v:groupContext="shape" transform="translate(3.29716,-3.5504)">
				<title>Sheet.489</title>
				<g id="shadow489-43" v:groupContext="shadow" v:shadowOffsetX="0.3456" v:shadowOffsetY="-1.9728" v:shadowType="1"
						transform="matrix(1,0,0,1,0.3456,1.9728)" class="st1">
					<path d="M1.96 34.47 C1.95 34.47 1.94 34.47 1.93 34.46 L0.03 33.36 C0.01 33.35 0 33.34 0 33.31 L0 31.11 C0 31.09
								 0.01 31.07 0.03 31.06 C0.05 31.05 0.07 31.05 0.09 31.06 L1.99 32.16 C2 32.17 2.02 32.19 2.02 32.21
								 L2.02 34.41 C2.02 34.43 2 34.45 1.99 34.46 C1.98 34.47 1.97 34.47 1.96 34.47 Z" class="st2"/>
				</g>
				<path d="M1.96 34.47 C1.95 34.47 1.94 34.47 1.93 34.46 L0.03 33.36 C0.01 33.35 0 33.34 0 33.31 L0 31.11 C0 31.09
							 0.01 31.07 0.03 31.06 C0.05 31.05 0.07 31.05 0.09 31.06 L1.99 32.16 C2 32.17 2.02 32.19 2.02 32.21 L2.02
							 34.41 C2.02 34.43 2 34.45 1.99 34.46 C1.98 34.47 1.97 34.47 1.96 34.47 Z" class="st9"/>
			</g>
			<g id="shape490-47" v:mID="490" v:groupContext="shape" transform="translate(5.73566,-3.5504)">
				<title>Sheet.490</title>
				<g id="shadow490-48" v:groupContext="shadow" v:shadowOffsetX="0.3456" v:shadowOffsetY="-1.9728" v:shadowType="1"
						transform="matrix(1,0,0,1,0.3456,1.9728)" class="st1">
					<path d="M0.06 34.47 C0.05 34.47 0.04 34.47 0.03 34.46 C0.01 34.45 0 34.43 0 34.41 L0 32.22 C0 32.2 0.01 32.19
								 0.03 32.17 L1.93 31.08 C1.95 31.07 1.97 31.07 1.98 31.08 C2 31.09 2.01 31.11 2.01 31.13 L2.01 33.31
								 C2.01 33.34 2 33.35 1.98 33.36 L0.09 34.46 C0.08 34.47 0.07 34.47 0.06 34.47 Z" class="st2"/>
				</g>
				<path d="M0.06 34.47 C0.05 34.47 0.04 34.47 0.03 34.46 C0.01 34.45 0 34.43 0 34.41 L0 32.22 C0 32.2 0.01 32.19 0.03
							 32.17 L1.93 31.08 C1.95 31.07 1.97 31.07 1.98 31.08 C2 31.09 2.01 31.11 2.01 31.13 L2.01 33.31 C2.01
							 33.34 2 33.35 1.98 33.36 L0.09 34.46 C0.08 34.47 0.07 34.47 0.06 34.47 Z" class="st10"/>
			</g>
		</g>
	</g>
</svg>
