<?xml version="1.0" encoding="UTF-8" standalone="no"?>
<!DOCTYPE svg PUBLIC "-//W3C//DTD SVG 1.1//EN" "http://www.w3.org/Graphics/SVG/1.1/DTD/svg11.dtd">
<!-- Generated by Microsoft Visio, SVG Export Drawing1.svg Page-1 -->
<svg xmlns="http://www.w3.org/2000/svg" xmlns:xlink="http://www.w3.org/1999/xlink" xmlns:ev="http://www.w3.org/2001/xml-events"
		xmlns:v="http://schemas.microsoft.com/visio/2003/SVGExtensions/" width="0.317016in" height="0.438521in"
		viewBox="0 0 22.8251 31.5735" xml:space="preserve" color-interpolation-filters="sRGB" class="st8">
	<v:documentProperties v:langID="1033" v:viewMarkup="false"/>

	<style type="text/css">
	<![CDATA[
		.st1 {fill:#3999c6;stroke:none;stroke-linecap:round;stroke-linejoin:round;stroke-width:0.75}
		.st2 {fill:#7fba00;stroke:none;stroke-linecap:round;stroke-linejoin:round;stroke-width:0.75}
		.st3 {fill:#3999c6;stroke:none;stroke-width:0.75}
		.st4 {fill:#59b4d9;fill-opacity:0.4;stroke:none;stroke-width:0.75}
		.st5 {fill:#ffffff;fill-opacity:0.3;stroke:none;stroke-width:0.75}
		.st6 {fill:#ffffff;fill-opacity:0.7;stroke:none;stroke-width:0.75}
		.st7 {fill:#3e3e3e;stroke:none;stroke-width:0.75}
		.st8 {fill:none;fill-rule:evenodd;font-size:12px;overflow:visible;stroke-linecap:square;stroke-miterlimit:3}
	]]>
	</style>

	<g v:mID="0" v:index="1" v:groupContext="foregroundPage">
		<title>Page-1</title>
		<v:pageProperties v:drawingScale="1" v:pageScale="1" v:drawingUnits="19" v:shadowOffsetX="9" v:shadowOffsetY="-9"/>
		<g id="group39-1" v:mID="39" v:groupContext="group">
			<title>Networking/VNET Integration</title>
			<g id="shape40-2" v:mID="40" v:groupContext="shape" transform="translate(15.9054,0)">
				<title>Sheet.40</title>
				<path d="M6.92 25.39 L5.57 24.04 L0.78 19.34 L0 20.05 L5.42 25.39 L0 30.86 L0.78 31.57 L5.57 26.88 L6.92 25.39 L6.92
							 25.39 Z" class="st1"/>
			</g>
			<g id="shape41-4" v:mID="41" v:groupContext="shape">
				<title>Sheet.41</title>
				<path d="M0 25.39 L1.35 24.04 L6.13 19.34 L6.92 20.05 L1.5 25.39 L6.92 30.86 L6.13 31.57 L1.35 26.88 L0 25.39 L0
							 25.39 Z" class="st1"/>
			</g>
			<g id="shape42-6" v:mID="42" v:groupContext="shape" transform="translate(5.84612,-4.82894)">
				<title>Sheet.42</title>
				<path d="M2.79 30.22 C2.79 31 2.15 31.57 1.43 31.57 C0.71 31.57 -0 30.93 0 30.22 C0 29.51 0.58 28.87 1.43 28.87 C2.21
							 28.87 2.79 29.51 2.79 30.22 Z" class="st2"/>
			</g>
			<g id="shape43-8" v:mID="43" v:groupContext="shape" transform="translate(9.98712,-4.82894)">
				<title>Sheet.43</title>
				<path d="M2.78 30.22 C2.78 31 2.14 31.57 1.43 31.57 C0.71 31.57 -0 30.93 0 30.22 C-0 29.51 0.64 28.87 1.43 28.87
							 C2.21 28.87 2.78 29.51 2.78 30.22 Z" class="st2"/>
			</g>
			<g id="shape44-10" v:mID="44" v:groupContext="shape" transform="translate(14.2634,-4.82894)">
				<title>Sheet.44</title>
				<path d="M2.72 30.22 C2.72 29.47 2.1 28.87 1.35 28.87 C0.61 28.87 -0 29.47 0 30.22 C-0 30.96 0.61 31.57 1.35 31.57
							 C2.1 31.57 2.72 30.96 2.72 30.22 Z" class="st2"/>
			</g>
		</g>
		<g id="group49-12" transform="translate(4.37581,-11.6359)" v:mID="49" v:groupContext="group">
			<title>Network Security Group</title>
			<g id="shape50-13" v:mID="50" v:groupContext="shape">
				<title>Sheet.50</title>
				<path d="M12 14.69 C7.77 14.23 7.04 12.39 7.04 12.39 C7.04 12.39 6.08 14.77 0 14.77 L0 24.61 C0 25.81 0.65 26.92
							 1.58 27.88 C3.65 30.07 7.04 31.57 7.04 31.57 C7.04 31.57 14.07 28.5 14.07 24.61 L14.07 14.77 C13.3 14.77
							 12.61 14.73 12 14.69 Z" class="st3"/>
			</g>
			<g id="shape51-15" v:mID="51" v:groupContext="shape" transform="translate(0,-3.69141)">
				<title>Sheet.51</title>
				<path d="M8.81 22.42 L12 18.38 C7.77 17.92 7.04 16.08 7.04 16.08 C7.04 16.08 6.08 18.46 0 18.46 L0 28.31 C0 29.5
							 0.65 30.61 1.58 31.57 L3.96 28.57 L8.81 22.42 Z" class="st4"/>
			</g>
			<g id="group52-17" transform="translate(1.42273,-1.92261)" v:mID="52" v:groupContext="group">
				<title>Sheet.52</title>
				<g id="shape53-18" v:mID="53" v:groupContext="shape" transform="translate(0.0384522,0)">
					<title>Sheet.53</title>
					<path d="M0 23.69 L0 26.04 C0 27 0.54 27.88 1.27 28.65 C2.92 30.42 5.61 31.57 5.61 31.57 L5.61 23.69 L0 23.69
								 Z" class="st5"/>
				</g>
				<g id="shape54-20" v:mID="54" v:groupContext="shape" transform="translate(5.61402,0)">
					<title>Sheet.54</title>
					<path d="M0 31.57 C0 31.57 5.61 29.11 5.61 26.04 L5.61 23.69 L0 23.69 L0 31.57 Z" class="st6"/>
				</g>
				<g id="shape55-22" v:mID="55" v:groupContext="shape" transform="translate(0,-7.88269)">
					<title>Sheet.55</title>
					<path d="M5.61 24.15 C5.61 24.15 4.84 26.07 0 26.07 L0 31.57 L5.61 31.57 L5.61 24.15 Z" class="st6"/>
				</g>
				<g id="shape56-24" v:mID="56" v:groupContext="shape" transform="translate(5.61402,-7.88269)">
					<title>Sheet.56</title>
					<path d="M3.92 26 C0.58 25.61 0 24.19 0 24.19 L0 31.57 L5.61 31.57 L5.61 26.07 C5 26.07 4.42 26.04 3.92 26 Z"
							class="st5"/>
				</g>
			</g>
			<g id="group57-26" transform="translate(1.92645,-7.87654)" v:mID="57" v:groupContext="group">
				<title>Sheet.57</title>
				<g id="shape58-27" v:mID="58" v:groupContext="shape" transform="translate(-4.97102E-14,-0.0634461)">
					<title>Sheet.58</title>
					<path d="M3.2 31.57 L2.51 31.57 L0.71 28.8 C0.67 28.73 0.63 28.66 0.6 28.58 L0.58 28.58 C0.6 28.67 0.6 28.84
								 0.6 29.1 L0.6 31.57 L0 31.57 L0 27.8 L0.73 27.8 L2.47 30.51 C2.54 30.62 2.59 30.7 2.61 30.74 L2.62
								 30.74 C2.6 30.64 2.59 30.47 2.59 30.23 L2.59 27.8 L3.2 27.8 L3.2 31.57 Z" class="st7"/>
				</g>
				<g id="shape59-29" v:mID="59" v:groupContext="shape" transform="translate(3.95288,0)">
					<title>Sheet.59</title>
					<path d="M0 31.36 L0 30.72 C0.06 30.77 0.13 30.82 0.21 30.86 C0.29 30.9 0.37 30.93 0.46 30.96 C0.55 30.99 0.64
								 31.02 0.73 31.03 C0.82 31.05 0.9 31.05 0.98 31.05 C1.24 31.05 1.44 31.01 1.57 30.92 C1.69 30.84
								 1.76 30.71 1.76 30.54 C1.76 30.45 1.74 30.38 1.69 30.31 C1.65 30.24 1.59 30.18 1.51 30.13 C1.44
								 30.08 1.35 30.02 1.24 29.97 C1.14 29.92 1.03 29.87 0.91 29.82 C0.78 29.75 0.66 29.68 0.55 29.61
								 C0.44 29.54 0.34 29.46 0.26 29.38 C0.18 29.29 0.12 29.2 0.07 29.09 C0.02 28.98 0 28.86 0 28.71 C0
								 28.54 0.04 28.38 0.12 28.25 C0.2 28.12 0.3 28.01 0.43 27.93 C0.57 27.84 0.71 27.78 0.88 27.74 C1.05
								 27.7 1.22 27.68 1.39 27.68 C1.78 27.68 2.07 27.72 2.25 27.81 L2.25 28.43 C2.04 28.27 1.76 28.2 1.43
								 28.2 C1.33 28.2 1.24 28.21 1.15 28.22 C1.06 28.24 0.98 28.27 0.9 28.31 C0.83 28.35 0.77 28.4 0.73
								 28.46 C0.68 28.53 0.66 28.61 0.66 28.69 C0.66 28.78 0.67 28.85 0.71 28.91 C0.75 28.97 0.8 29.03
								 0.86 29.08 C0.93 29.13 1.01 29.18 1.11 29.23 C1.21 29.28 1.32 29.33 1.45 29.39 C1.58 29.45 1.7 29.53
								 1.82 29.6 C1.94 29.68 2.04 29.76 2.13 29.85 C2.22 29.94 2.29 30.04 2.34 30.16 C2.39 30.27 2.42 30.39
								 2.42 30.53 C2.42 30.73 2.38 30.89 2.3 31.02 C2.22 31.15 2.12 31.26 1.99 31.34 C1.86 31.42 1.71 31.48
								 1.54 31.52 C1.37 31.56 1.19 31.57 1 31.57 C0.94 31.57 0.86 31.57 0.77 31.56 C0.67 31.55 0.58 31.54
								 0.48 31.52 C0.39 31.5 0.3 31.48 0.21 31.45 C0.12 31.42 0.06 31.39 0 31.36 Z" class="st7"/>
				</g>
				<g id="shape60-31" v:mID="60" v:groupContext="shape" transform="translate(6.81834,-0.000769043)">
					<title>Sheet.60</title>
					<path d="M3.18 31.25 C2.79 31.47 2.35 31.57 1.87 31.57 C1.31 31.57 0.86 31.4 0.52 31.05 C0.17 30.71 0 30.25 0
								 29.68 C0 29.09 0.19 28.61 0.57 28.24 C0.94 27.86 1.42 27.68 2.01 27.68 C2.42 27.68 2.78 27.74 3.06
								 27.86 L3.06 28.51 C2.77 28.31 2.43 28.22 2.03 28.22 C1.63 28.22 1.3 28.35 1.04 28.61 C0.79 28.88
								 0.66 29.22 0.66 29.64 C0.66 30.07 0.77 30.41 0.99 30.66 C1.21 30.91 1.51 31.03 1.89 31.03 C2.15
								 31.03 2.37 30.98 2.56 30.88 L2.56 29.99 L1.77 29.99 L1.77 29.46 L3.18 29.46 C3.18 29.46 3.18 31.25
								 3.18 31.25 Z" class="st7"/>
				</g>
			</g>
		</g>
	</g>
</svg>
