<svg xmlns="http://www.w3.org/2000/svg" viewBox="0 0 272.34 298.62">
  <defs>
    <style>.cls-1{fill:#dbdbdb;}.cls-2{fill:#ededed;}.cls-3{fill:#00abec;}.cls-4{fill:#573522;}.cls-5,.cls-57{fill:#fff;}.cls-22,.cls-6{fill:#d8b195;}.cls-46,.cls-7{fill:#002050;}.cls-8{fill:#252829;}.cls-9{fill:#0078d7;}.cls-10{fill:#505050;}.cls-11,.cls-45{fill:#737373;}.cls-12{fill:#e3008c;}.cls-13{fill:#fff100;}.cls-14{fill:#2576ba;}.cls-15{fill:#414141;}.cls-16{fill:#b8977c;}.cls-17{fill:#02205f;}.cls-18{fill:#e6ccb9;}.cls-19,.cls-44{fill:#a80000;}.cls-20{fill:#0178d7;}.cls-21{fill:#0054a6;}.cls-22,.cls-23,.cls-44,.cls-45,.cls-46{fill-rule:evenodd;}.cls-23,.cls-32{fill:#080001;}.cls-24{fill:#efbdb3;}.cls-25{fill:#00188f;}.cls-26{fill:#00126d;}.cls-27{fill:#dc9d96;}.cls-28{fill:#ffb900;}.cls-29{fill:#121c42;}.cls-30{fill:#0a2957;}.cls-31{fill:#0f2696;}.cls-33{fill:#bb141a;}.cls-34{fill:#e6e7e8;}.cls-35{fill:#5c2d91;}.cls-36{fill:#107c10;}.cls-37{fill:#00b294;}.cls-38{fill:#b4009e;}.cls-39{fill:#b4a0ff;}.cls-40{fill:#1eabd9;}.cls-41{fill:#bad80a;}.cls-42{fill:#e81123;}.cls-43{fill:#f5caa6;}.cls-47{fill:#ddb694;}.cls-48{fill:#f6cba7;}.cls-49{fill:#a0722a;}.cls-50{fill:#f9e6d7;}.cls-51{fill:#414042;}.cls-52{fill:#17244e;}.cls-53{fill:#58595b;}.cls-54{fill:#c2c2c1;}.cls-55{fill:#dfb694;}.cls-56{fill:none;stroke-width:2px;}.cls-56,.cls-57{stroke:#00abec;stroke-miterlimit:10;}.cls-57{stroke-width:3px;}.cls-58{fill:#3999c6;}.cls-59{fill:#5ab4d9;}.cls-60{fill:#7fbb42;}.cls-61{fill:#b8d433;}</style>
  </defs>
  <g id="Layer_2" data-name="Layer 2">
    <g id="Layer_1-2" data-name="Layer 1">
      <path class="cls-1" d="M211,50.9c-.2,0-.38,0-.58.05a33.55,33.55,0,0,0-55-33.74c-5.08-18.72-54.12,7.35-54.49,7.3a33.5,33.5,0,0,0-54.49,14A22.89,22.89,0,1,0,38.9,83L211,83.33a16.21,16.21,0,1,0,0-32.42Z" />
      <path class="cls-2" d="M206.7,95.55l.23,0a13.3,13.3,0,0,0-2.3-26.39h-.13c.08-.85.12-1.7.12-2.56a28.83,28.83,0,0,0-56.16-9.16A19.7,19.7,0,1,0,142,95.71h63.77v0c.28,0,.56-.06.83-.1Z" />
      <path class="cls-3" d="M144.74,109.4A24,24,0,1,0,140.28,143,23.94,23.94,0,0,0,144.74,109.4Zm1.11,19.9c-.83-.62-2-1.55-3.57-2.79a4.46,4.46,0,0,0-6.4-5.46c-2.13-1.91-4.46-4.09-6.92-6.53,7.36-4,12.67-3.55,13-3.51.08.1.17.19.25.3A20.81,20.81,0,0,1,145.85,129.3ZM132.71,135a4.1,4.1,0,0,0-6.28-2.59,38.63,38.63,0,0,1-5.63-3.74q-.6-.47-1.15-.95a6.27,6.27,0,0,0,.26-6.27c.25-.25.49-.49.75-.74a45.59,45.59,0,0,1,5.43-4.4c2.61,2.41,5.37,4.69,8,6.73a4.47,4.47,0,0,0,6.76,5.46c.1-.08.18-.17.27-.26,1.88,1.33,3.35,2.32,4.18,2.89a20.76,20.76,0,0,1-2.34,4.59A22.2,22.2,0,0,1,132.71,135Zm-7-31.85a20.85,20.85,0,0,1,13.3,4.79,22.12,22.12,0,0,0-13.91,2.62c-1.88-2-3.83-4.12-5.79-6.39A20.72,20.72,0,0,1,125.69,103.12ZM113,107.42a21,21,0,0,1,3.49-2.15,45.65,45.65,0,0,0,5.6,7.09,36.81,36.81,0,0,0-5.77,5c-.25.26-.46.53-.7.8a6.25,6.25,0,0,0-3.43.24,15.16,15.16,0,0,1-1.46-9A21.29,21.29,0,0,1,113,107.42Zm-4.54,4.8a13.45,13.45,0,0,0,.87,8.31,6.27,6.27,0,0,0,0,7.62,5.62,5.62,0,0,0,.47.5,31.51,31.51,0,0,0-1.22,7.23A20.85,20.85,0,0,1,108.48,112.22Zm8.28,17.89c.54.48,1.11,1,1.72,1.44a34.8,34.8,0,0,0,6.07,3.87,4.14,4.14,0,0,0,6.64,3.71,4.18,4.18,0,0,0,.92-1,36.9,36.9,0,0,0,8.07.85,20.7,20.7,0,0,1-14.47,5.86,20.86,20.86,0,0,1-13.26-4.75,23.62,23.62,0,0,1,1.44-9.51,6.25,6.25,0,0,0,2.87-.47" />
      <path class="cls-4" d="M20.26,100H20c-11.54,1.72-9.25,12.87-13.35,29.08l13.54,1,14.4-.86c-2.38-9-4.77-19.45-7.06-24.79" />
      <path class="cls-5" d="M12.53,113.73c0,.1-.1.19-.29.19a.19.19,0,0,1,0-.38c.19,0,.29.1.29.19Z" />
      <path class="cls-4" d="M20.54,102.86c1.62.29,3.43.19,6,5.15.19.29,0,1.53.19,1.24l1.43-1.53c.1-.1.1.38.1.19-.1-1.24-.38-7.63-7.63-7.91a.62.62,0,0,0-.48.57v1.33a1.46,1.46,0,0,0,.38,1Z" />
      <path class="cls-4" d="M20,100.57v1.33c0,.29-.19.86-.48,1-1.53.29-3.43,1.33-5.91,6.29a.54.54,0,0,1-.86.1l-1.33-1.53c-.1-.1-.19.38-.19.19.19-1.24,1-7.63,8.2-7.91" />
      <path class="cls-4" d="M26.55,107.91H13.77v-4.77l5.91-2.86,2.29-.1,4.67,3.24.48,2c0,1.43,1,2.48-.57,2.48Z" />
      <path class="cls-6" d="M20.16,127.08c-2.29,0-4.1-1.43-4.1-3.72v-3.05h8.2v3a3.84,3.84,0,0,1-4.1,3.81Z" />
      <path class="cls-4" d="M16.06,124.6v-2.29l-.38-.67a.18.18,0,0,0-.29-.1c-.48.1-.86.19-1.24.29a13.43,13.43,0,0,1-5.82.48.51.51,0,0,0-.38.29c-.29,2-.86,4.29-1.33,6.48-.29,1,.57,1.81,1.62,1.81l7.53.57c.19,0,.38-.19.29-.38a49,49,0,0,1,0-6.48Z" />
      <path class="cls-7" d="M30.75,187.34a3.6,3.6,0,0,0-3.24-3.81,3.45,3.45,0,0,0-3.72,3.24L22,219.09c0,1,3.81,1.43,3.91.29Z" />
      <path class="cls-7" d="M10.15,187.34a3.46,3.46,0,0,1,3.15-3.81,3.53,3.53,0,0,1,3.81,3.24l1.81,32.32c-.1,1-3.91,1.43-4,.29Z" />
      <path class="cls-7" d="M18.92,187.34l.38,30.32H13.49L8.82,187.91,8.63,157,20.83,154c3.24,9.34-2,22.69-1.91,33.37Z" />
      <polygon class="cls-7" points="21.4 217.66 26.93 217.66 32.27 187.24 31.8 153.97 20.54 153.97 22.26 187.44 21.4 217.66 21.4 217.66" />
      <path class="cls-8" d="M21.69,221.38v2.86c.19.76.76,1,1.72,1l9,.48c1.53,0,6.1-.38,6.1-.38,1.91-.48,1-1.33.57-1.43-1.62-.1-5.34-1.33-8.3-2.29-2.57-.67-9.06-.29-9.06-.29Z" />
      <path class="cls-6" d="M22,218.9a14.07,14.07,0,0,0-.29,2.48c.1.76,10.68,1.62,10.68,1.62.19,0,1.72-.29,1.14-.48-2.48-.67-7.63-2.67-7.53-3.72Z" />
      <path class="cls-8" d="M19.3,221.19l.1,3c-.1.67-.67,1-1.72,1l-8.87.86c-1.53.19-6.1,0-6.1,0-1.91-.29-1-1.24-.67-1.33,1.62-.19,5.24-1.62,8.2-2.67,2.48-.86,9.06-.86,9.06-.86Z" />
      <path class="cls-6" d="M18.92,218.8c0,1,.38,2,.29,2.38,0,.86-10.49,2.19-10.49,2.19-.29,0-1.81-.19-1.24-.38,2.48-.86,7.53-3.15,7.34-4.1Z" />
      <path d="M11.1,125.84a3.15,3.15,0,0,1-.48,4.39,2.93,2.93,0,0,1-4.2-.48,3.16,3.16,0,0,1,.48-4.39,2.93,2.93,0,0,1,4.2.48Z" />
      <path class="cls-9" d="M6.72,129.27l13.54-2.77Z" />
      <path class="cls-9" d="M33.8,129.27l-13.54-2.77Z" />
      <path class="cls-9" d="M22,164.65l10-1,.67-25.65c-1.43-4-.67-13.83-.67-13.83l-5.72-.38-7.72,6.2L12.06,124l-3.72.76s.48,9.15-1,13.16l1,25.55" />
      <polygon class="cls-6" points="17.21 123.74 22.26 125.08 23.59 122.88 29.22 123.93 28.74 125.17 26.74 126.51 17.11 126.51 11.49 125.46 11.01 124.22 17.21 122.79 17.21 123.74 17.21 123.74" />
      <path d="M30.08,110.68H25.31a.64.64,0,0,0-.57.67v8.87a.64.64,0,0,0,.57.67h4.77a.65.65,0,0,0,.67-.67v-8.87a.65.65,0,0,0-.67-.67Zm-1.53,9.25H26.93v-.67h1.62Zm1.53-1.62H25.31v-7h4.77Z" />
      <polygon class="cls-10" points="30.08 111.35 25.31 111.35 25.31 118.31 30.08 118.31 30.08 111.35 30.08 111.35" />
      <polygon class="cls-11" points="28.55 119.26 26.93 119.26 26.93 119.93 28.55 119.93 28.55 119.26 28.55 119.26" />
      <polygon class="cls-12" points="29.7 115.83 28.74 115.83 28.74 114.87 29.7 114.87 29.7 115.83 29.7 115.83" />
      <polygon class="cls-12" points="27.7 113.83 25.79 113.83 25.79 111.92 27.7 111.92 27.7 113.83 27.7 113.83" />
      <polygon class="cls-12" points="28.65 115.83 26.74 115.83 26.74 113.92 28.65 113.92 28.65 115.83 28.65 115.83" />
      <polygon class="cls-12" points="29.7 117.83 27.79 117.83 27.79 115.92 29.7 115.92 29.7 117.83 29.7 117.83" />
      <polygon class="cls-12" points="28.65 112.78 27.79 112.78 27.79 111.92 28.65 111.92 28.65 112.78 28.65 112.78" />
      <polygon class="cls-12" points="29.7 112.78 28.74 112.78 28.74 111.92 29.7 111.92 29.7 112.78 29.7 112.78" />
      <polygon class="cls-13" points="28.65 113.83 27.79 113.83 27.79 112.87 28.65 112.87 28.65 113.83 28.65 113.83" />
      <polygon class="cls-12" points="29.7 113.83 28.74 113.83 28.74 112.87 29.7 112.87 29.7 113.83 29.7 113.83" />
      <polygon class="cls-12" points="26.65 114.78 25.79 114.78 25.79 113.92 26.65 113.92 26.65 114.78 26.65 114.78" />
      <polygon class="cls-12" points="29.7 114.78 28.74 114.78 28.74 113.92 29.7 113.92 29.7 114.78 29.7 114.78" />
      <polygon class="cls-12" points="26.65 115.83 25.79 115.83 25.79 114.87 26.65 114.87 26.65 115.83 26.65 115.83" />
      <polygon class="cls-12" points="26.65 116.78 25.79 116.78 25.79 115.92 26.65 115.92 26.65 116.78 26.65 116.78" />
      <polygon class="cls-12" points="27.7 116.78 26.74 116.78 26.74 115.92 27.7 115.92 27.7 116.78 27.7 116.78" />
      <polygon class="cls-12" points="26.65 117.83 25.79 117.83 25.79 116.88 26.65 116.88 26.65 117.83 26.65 117.83" />
      <polygon class="cls-12" points="27.7 117.83 26.74 117.83 26.74 116.88 27.7 116.88 27.7 117.83 27.7 117.83" />
      <path class="cls-6" d="M33.8,145a3,3,0,0,1-3.05-2.86,50.24,50.24,0,0,0-1.14-10.49c-.19-1-.48-2.1-.67-3.24A3.08,3.08,0,0,1,31.41,125a3,3,0,0,1,3.43,2.48c.19,1,.38,2,.57,3.05A62.56,62.56,0,0,1,36.75,142a3,3,0,0,1-3,3.05Z" />
      <path class="cls-9" d="M29.7,137.85c-.38-3.15-1.24-8.68-1.43-9.34l7.25-1.24c.1.67,1,6.48,1.43,9.82Z" />
      <path class="cls-14" d="M28.36,127a3.77,3.77,0,0,0,2.57,4.48,3.83,3.83,0,0,0,4.58-2.57,3.66,3.66,0,0,0-2.67-4.48A3.58,3.58,0,0,0,28.36,127Z" />
      <polygon class="cls-6" points="30.75 137.85 36.47 137.09 36.56 138.62 30.75 138.43 30.75 137.85 30.75 137.85" />
      <path class="cls-6" d="M36.47,142c-3.72-23.36-4.2-22.31-4.2-22.31-.19-.48-1.24.86-1.81,1.91a3,3,0,0,1-.19,4.58l1,16.5a2.6,2.6,0,0,0,3,2.1A2.42,2.42,0,0,0,36.47,142Z" />
      <path class="cls-6" d="M33.89,145.39a2.93,2.93,0,0,1-1.81-.57,3.22,3.22,0,0,1-1.24-2.1l-1-16.78.19-.1a2.44,2.44,0,0,0,1-1.81,2.51,2.51,0,0,0-.76-1.91l-.38-.29.19-.38c.1-.1,1.33-2.38,2.19-2.29a.5.5,0,0,1,.38.19c.29.19.48.86,1,3.53.86,3.72,1.91,10.11,3.34,19.07h0a3,3,0,0,1-2.57,3.43Zm-3.05-19,1,16.21a1.52,1.52,0,0,0,.76,1.33,2.17,2.17,0,0,0,1.53.38A2.08,2.08,0,0,0,36,142.14c-2.29-14.3-3.34-19.36-3.81-21.07l-.1.19-.19-.76a3.43,3.43,0,0,0-.76,1.14,2.91,2.91,0,0,1,.76,2.38,3.1,3.1,0,0,1-1,2.38Z" />
      <path class="cls-6" d="M16.92,120.88l6.48-.1c2.57-1.14,3.15-4.2,3.15-7.72v-2.67H12.92v2.67c0,3.62,1.24,6.67,4,7.82Z" />
      <path class="cls-15" d="M16.92,111.63a.51.51,0,0,0,.48-.48c0-.19-.29-.38-.48-.38a.44.44,0,0,0-.48.38.45.45,0,0,0,.48.48Z" />
      <path class="cls-15" d="M23.12,111.54a.44.44,0,0,0,.48-.38.51.51,0,0,0-.48-.48.61.61,0,0,0-.48.48c0,.19.29.38.48.38Z" />
      <path class="cls-16" d="M16.06,121.17a9.64,9.64,0,0,0,3.81,2.1h.29a7.83,7.83,0,0,0,4.1-2.29v-.67a7.83,7.83,0,0,1-4.1,2.29h-.29a9.64,9.64,0,0,1-3.81-2.1Z" />
      <path class="cls-6" d="M13.11,111.35a.82.82,0,0,0-1-.48s-.86.1-.48,1.53l.1.76.29.67.29.76.1.48s.29.57.19.86a.68.68,0,0,0,.57.67h.57s-.1-1.24,0-4.86Z" />
      <path class="cls-17" d="M13.2,115.83c.38,0,.57.29.57.67a.62.62,0,0,1-.57.57.71.71,0,0,1-.57-.67.62.62,0,0,1,.57-.57Z" />
      <path class="cls-16" d="M21.88,115.73a.52.52,0,0,1-.29.48c-.38.19-.76.19-.86.48a.7.7,0,0,1-.57.19h0a.7.7,0,0,1-.57-.19c-.19-.29-.48-.29-.86-.48-.19-.1-.38-.29-.29-.48Z" />
      <path class="cls-18" d="M18.45,115.73h1.72v-4.2c-.19,0-.57,0-.57.86a5.68,5.68,0,0,1-1,3c-.19.29-.19.38-.19.38Z" />
      <path class="cls-19" d="M20.16,119.36a8.5,8.5,0,0,1-2.1-.29.28.28,0,0,1-.19-.38c0-.1.19-.19.29-.19a9,9,0,0,0,3.91,0c.19,0,.38.1.38.19s-.1.38-.19.38a9.13,9.13,0,0,1-2.1.29Z" />
      <path class="cls-6" d="M3.19,151.58a1.21,1.21,0,0,1-.57-.1A3.23,3.23,0,0,1,0,147.77a126.79,126.79,0,0,1,5.15-17.54c.38-1,.67-1.91,1-2.67a3.19,3.19,0,0,1,4.1-2,3.15,3.15,0,0,1,1.91,4c-.29.86-.57,1.81-1,2.77A122.51,122.51,0,0,0,6.34,149a3.17,3.17,0,0,1-3.15,2.57Z" />
      <path class="cls-9" d="M9,142l-7.63-2.19c1-3.05,3.43-10.49,4.1-12.49l7.44,2.57C12.15,132.13,9.77,139.19,9,142Z" />
      <path class="cls-20" d="M13,127.75c-.29-.29-.48-.57-.76-.86a3.86,3.86,0,0,1-.48-.86,4.65,4.65,0,0,1-.29-.67,4.48,4.48,0,0,0-2.77-.76A4.1,4.1,0,0,0,5.19,129a4,4,0,0,0,4.29,3.53,4.18,4.18,0,0,0,2.86-1.62,4.38,4.38,0,0,0,.76-2.67.86.86,0,0,1-.1-.48Z" />
      <polygon class="cls-16" points="1.95 139.95 8.05 141.67 7.77 143 1.76 140.52 1.95 139.95 1.95 139.95" />
      <path class="cls-6" d="M25.5,124.6a1.88,1.88,0,0,1-1.43-1.24c-.67-.1-1.14.19-1.81.1-.38-.1-.29.76-.67.67-.19,0-.19.29-.38.19s-.19-.38-.29-.38c-.48,0-.29.29-.76.29-.29.76-2,.1-2.77.19-1.72.38-4.67-.48-6.39-.19-.29.1.76,1.14.48,1.24,1.62,3.53,5.43,6.58,9.34,6.29s6.67-3.24,7.91-6.67c-1-.1-2.1-.29-3.24-.48Z" />
      <polygon class="cls-7" points="17.97 166.65 33.8 151.2 23.12 140.14 7.29 155.68 17.97 166.65 17.97 166.65" />
      <polygon class="cls-21" points="17.97 166.65 33.8 151.2 7.29 155.68 17.97 166.65 17.97 166.65" />
      <path class="cls-22" d="M20.26,160.26c3.15,1,3.81,1.62,6.48,1,1.72-.1,2.29-.76,1.53-1,1.53.38,2.67-.67,1.43-.86.48-.29,1-.67,1-1-.29-.48-.86-.1-1.24-.19.1-.38-.1-1.24-1.43-1.14a3.57,3.57,0,0,1-1.33.1c1-.57,1.14-1,.76-1.43a35.33,35.33,0,0,0-4.77.57c-.38-.1-.38-.1-.86.29L14.63,155c2.1,3.15,3.24,3.24,3.24,3.24Z" />
      <path class="cls-6" d="M5.19,146.53s.29.19.76.57c.19.1.48.29.86.48s.67.48,1.14.76c1.62,1,3.91,2.29,6.29,3.53s4.67,2.38,6.39,3.24,3,1.43,3,1.43a2.37,2.37,0,0,1-1.81,4.39h0s-1.24-.48-3.15-1.33-4.39-1.81-6.77-3-5-2.38-6.77-3.34a5.14,5.14,0,0,1-1.24-.67,8.82,8.82,0,0,0-1-.48c-.48-.29-.76-.48-.76-.48a2.87,2.87,0,0,1-1.14-4,2.87,2.87,0,0,1,4-1.14Z" />
      <path class="cls-22" d="M33,121.26c.29-2.67.57-3.34-.38-5.24-.29-1.33-1-1.62-1-1,0-1.24-1-1.91-1-1-.29-.29-.57-.67-.86-.67-.38.38,0,.67,0,1-.38,0-1,.29-.67,1.24a3,3,0,0,1,.29,1c-.57-.67-1-.67-1.24-.38a21.43,21.43,0,0,0,1.62,4.29v5.91l3.91-1.72Z" />
      <path class="cls-23" d="M254.19,225.18l5.5.2.29-.79c1.67.29,5.4.79,7.36,1.08a13.89,13.89,0,0,0,4.61-.49,1,1,0,0,0,.29-.59c0-2.36-8.64-3.53-10.89-6.08h-.29c-.59.59-1.08,1.77-2.55,1.77s-2.55-1.47-3.14-1.77c-.88.59-1.18,6.38-1.18,6.67Z" />
      <path d="M260.66,221.35h0v-.2l-4.42.49L255,219.39l-.69,4.12-.1,2.45.69.1c.1.1.1.1.2,0l.49-.49.59.49c0,.1.1.1.1,0l.59-.49.49.49c.1.1.1.1.2,0l.49-.49.59.49c0,.1.1.1.1,0l.59-.49.49.49c0,.1.1.1.2,0l.49-.49.59.49c0,.1.1.1.1,0l.59-.49.49.49c0,.1.1.1.2,0l.49-.49.49.49c.1.1.2.1.2,0l.49-.49.59.49c0,.1.1.1.2,0l.49-.49h0c-.29-2.75-1.86-4.22-4.71-4.22Z" />
      <path d="M269.79,225.28a3.06,3.06,0,0,1-2.16-.79.1.1,0,0,1-.1-.1c-.49.69-1.37.79-2.45.79-.59,0-1.08.2-1.47,0-.1.2-.1.49-.2.69l.1.2c.1.1.1.1.2,0l.49-.49.49.49c0,.1.1.1.2,0l.49-.49.49.49c0,.1.1.1.1,0l.49-.49.59.49c0,.1.1.1.1,0l.49-.49.49.49c.1.1.1.1.2,0l.49-.49.49.49c0,.1.1.1.1,0l.59-.49.49.49c0,.1.1.1.1,0l.49-.69c0-.2,0-.1-.1-.29a4.93,4.93,0,0,1-1.18.2Z" />
      <path d="M241.33,220.57H237.8v.2h0c-2.85,0-4.51,1.37-4.71,4.22h0l.49.49h.2l.49-.49.59.49h.1l.59-.49.49.49h.2l.49-.49.59.49h.1L238,225l.49.49h.2l.49-.49.59.49h.1l.59-.49.49.49h.2l.2-.2Z" />
      <polygon class="cls-24" points="234.75 193.48 235.64 217.52 238.09 221.25 241.72 217.52 245.06 188.38 234.75 193.48 234.75 193.48" />
      <polygon class="cls-24" points="254.28 193.48 255.07 217.52 258.11 221.25 261.06 217.52 264.39 188.38 254.28 193.48 254.28 193.48" />
      <path class="cls-24" d="M271.65,152.36a4.68,4.68,0,0,0-.39.79,9.12,9.12,0,0,0-.49,1l-.59,1.18c-1,1.86-2.26,4.22-3.53,6.48s-2.75,4.51-3.83,6.18-1.77,2.85-1.77,2.85h0a2.78,2.78,0,0,1-4.71-2.94s.69-1.08,1.57-2.75,2.16-3.93,3.24-6.28a68.3,68.3,0,0,0,2.94-6.38,6,6,0,0,0,.49-1.18,3.49,3.49,0,0,0,.39-.88,4.68,4.68,0,0,1,.39-.79,3.41,3.41,0,0,1,4.42-2,3.52,3.52,0,0,1,2,4.51c-.1,0-.1.1-.1.2" />
      <path d="M261.84,210.65h-7.26l.2,13.25a1.05,1.05,0,0,0,1,1h11.68v-.1a3.07,3.07,0,0,0-1.28-2.45l-5-2.65Z" />
      <path class="cls-25" d="M254.87,194.66h9.62c.1-1.08.2-2.26.2-3.73.2-16.49-2-34.25-1.28-37.78H236.62l-2,40.33,9.13.59,11.09.59" />
      <polygon class="cls-26" points="236.62 153.15 236.62 153.15 236.32 162.96 234.85 188.47 234.75 193.48 237.5 193.68 240.25 193.78 240.94 164.04 262.72 159.13 236.62 153.15 236.62 153.15" />
      <path d="M235.44,210.65l.1,8-3.14,4.22v1.37a.66.66,0,0,0,.69.59h7.46a1.13,1.13,0,0,0,1.18-1.18v-5.4l.79-7.65Z" />
      <polygon class="cls-10" points="266.65 133.42 250.26 128.32 252.71 120.27 269.1 125.37 266.65 133.42 266.65 133.42" />
      <path class="cls-24" d="M268.42,154.32A3.46,3.46,0,0,1,265,151v-8.44a91.78,91.78,0,0,0-.49-12.56,3.51,3.51,0,0,1,2.85-4,3.44,3.44,0,0,1,3.93,2.85,95.61,95.61,0,0,1,.59,13.74v8.24a3.3,3.3,0,0,1-3.34,3.53Z" />
      <path class="cls-10" d="M264,151.77c-.2-1.67-.2-5.4-.2-11.29,0-3.73.1-9.32-.1-10.4l8.34-1.47c.29,1.47.29,4.81.2,11.87,0,4,0,9,.1,10.3Z" />
      <path class="cls-10" d="M261.35,128.32c-.59,2.16,3.14,4.51,5.4,5.1a4.45,4.45,0,0,0,5.3-2.94,4.19,4.19,0,0,0-3-5.1c-2.36-.59-7.07.69-7.65,2.94Z" />
      <polygon class="cls-27" points="264.39 151.77 272.34 150.89 271.46 152.75 264.39 152.36 264.39 151.77 264.39 151.77" />
      <polygon class="cls-10" points="249.97 166.39 236.23 166.39 235.74 141.07 232.79 127.92 249.97 126.84 249.97 166.39 249.97 166.39" />
      <polygon class="cls-10" points="233.28 133.22 230.53 125.18 247.02 119.58 249.67 127.63 233.28 133.22 233.28 133.22" />
      <polygon class="cls-10" points="249.77 166.39 263.51 166.39 264 141.07 266.94 127.92 249.77 126.84 249.77 166.39 249.77 166.39" />
      <path class="cls-24" d="M231.32,156.78h0a3.56,3.56,0,0,1-3.43-3.53c.1-2.75.1-5.89.1-8.93,0-6.28-.1-12.07.59-15.7a3.44,3.44,0,0,1,3.93-2.85,3.59,3.59,0,0,1,2.85,4c-.59,3-.49,8.83-.49,14.43v9.13a3.56,3.56,0,0,1-3.53,3.43Z" />
      <path class="cls-10" d="M235.54,151.18l-8.34-1c.1-1.28.2-6.08.2-10,.1-7.07.1-10.3.39-11.78l8.34,1.47h0c-.2,1.08-.2,6.67-.29,10.4q0,8.54-.29,10.89Z" />
      <path class="cls-10" d="M238.48,128.12c.59,2.26-3.14,4.51-5.4,5.1a4.37,4.37,0,0,1-5.3-2.94,4,4,0,0,1,3-5.1c2.36-.59,7.07.79,7.65,2.94Z" />
      <path class="cls-24" d="M250.16,126.94a6.13,6.13,0,0,1-6.48-6.28v-4.91h11.68v4.91c0,3.83-1.57,6.28-5.2,6.28Z" />
      <path class="cls-24" d="M257.62,104.57v13.54c-.2.2-.39.29-.59.49a17.5,17.5,0,0,1-3.93,1.67,13.82,13.82,0,0,1-3.43.49,12.46,12.46,0,0,1-3.34-.49,12,12,0,0,1-4.51-2.16h-.1V104.57c0-4,3.24-6.28,7.36-6.28h1.28c4,0,7.26,2.26,7.26,6.28Z" />
      <path class="cls-24" d="M257.42,109.18a1.12,1.12,0,0,1,1.18-.69s1.08.2.59,2.16l-.29.88-.29,1-.39.88-.29.69a2.29,2.29,0,0,0-.2,1.08,1,1,0,0,1-.79,1s-.59-.1-.69-.1.2-1.67.2-6.48Z" />
      <path class="cls-24" d="M242,109.18a1.26,1.26,0,0,0-1.18-.69s-1.08.2-.59,2.16l.2.88.29,1,.49.88.2.69a3.8,3.8,0,0,1,.29,1.08,1,1,0,0,0,.69,1s.59-.1.79-.1c0,0-.2-1.67-.2-6.48Z" />
      <polygon class="cls-27" points="234.75 193.48 244.18 196.23 244.37 194.07 234.75 193.48 234.75 193.48" />
      <polygon class="cls-27" points="263.61 194.66 254.38 196.42 254.28 194.66 263.61 194.66 263.61 194.66" />
      <polygon class="cls-28" points="249.87 134.21 251.24 137.05 254.28 137.44 252.03 139.6 252.62 142.74 249.87 141.27 247.12 142.74 247.61 139.6 245.35 137.44 248.49 137.05 249.87 134.21 249.87 134.21" />
      <polygon class="cls-7" points="240.74 165.31 244.47 165.31 244.47 194.07 239.56 193.78 239.56 165.31 240.74 165.31 240.74 165.31" />
      <polygon class="cls-29" points="244.47 165.31 249.77 165.31 249.38 194.36 244.47 194.07 244.47 165.31 244.47 165.31" />
      <polygon class="cls-7" points="253.4 165.71 253.5 194.56 249.38 194.36 249.38 165.31 253.4 165.71 253.4 165.71" />
      <polygon class="cls-30" points="256.83 165.9 256.83 194.66 253.5 194.56 253.5 165.71 256.83 165.9 256.83 165.9" />
      <polygon class="cls-29" points="261.15 166.1 260.96 194.66 256.74 194.66 256.74 165.9 261.15 166.1 261.15 166.1" />
      <polygon points="263.61 166.59 236.23 166.59 236.23 162.86 263.61 162.86 263.61 166.59 263.61 166.59" />
      <path d="M263.7,166.59H236.13v-3.73H263.7v3.73Zm-27.48-.1h27.38v-3.63H236.23v3.63Z" />
      <path class="cls-11" d="M248.1,167.08h-1.47c-.39,0-.59-.2-.59-.49v-3.73a.57.57,0,0,1,.59-.59h1.47a.63.63,0,0,1,.59.59h-.39a.21.21,0,0,0-.2-.2h-1.47a.21.21,0,0,0-.2.2v3.73a.34.34,0,0,0,.2.1h1.47a.34.34,0,0,0,.2-.1h.39a.55.55,0,0,1-.59.49Z" />
      <path class="cls-11" d="M246.63,164.14h-.69a.2.2,0,1,1,0-.39h.69a.2.2,0,1,1,0,.39Z" />
      <path class="cls-11" d="M246.63,165.9h-.69a.2.2,0,1,1,0-.39h.69a.2.2,0,1,1,0,.39Z" />
      <polygon class="cls-25" points="259.29 184.75 264.19 184.75 264.19 176.11 259.29 176.11 259.29 184.75 259.29 184.75" />
      <polygon class="cls-31" points="259.09 176.21 264.19 176.21 264.19 173.07 259.09 173.07 259.09 176.21 259.09 176.21" />
      <path class="cls-11" d="M259.88,175a.26.26,0,0,0,.29.29.31.31,0,0,0,.29-.29.44.44,0,0,0-.29-.29.31.31,0,0,0-.29.29Z" />
      <polygon class="cls-25" points="240.54 184.75 235.15 184.75 235.44 176.21 240.54 176.11 240.54 184.75 240.54 184.75" />
      <polygon class="cls-31" points="240.74 176.21 235.44 176.21 235.64 173.07 240.74 173.07 240.74 176.21 240.74 176.21" />
      <path class="cls-11" d="M240,175a.26.26,0,0,1-.29.29.31.31,0,0,1-.29-.29.44.44,0,0,1,.29-.29.31.31,0,0,1,.29.29Z" />
      <path class="cls-27" d="M255.46,119.48l-.1.69a22.35,22.35,0,0,1-5.79,1,23.1,23.1,0,0,1-5.89-1v-.79a23,23,0,0,0,5.89.79,29.27,29.27,0,0,0,5.89-.69Z" />
      <path class="cls-19" d="M257.33,107.9l.1-1c-.79-.49-1.37-.79-1.37-.79a5.93,5.93,0,0,1,.79.69c-1-.59-2-1.18-2.55-1.47a5.1,5.1,0,0,0-.49-.29l.29.29c.39.39,1.28,1.08,2.16,1.77-1.77-.88-4.32-2.45-4.32-2.45a18.11,18.11,0,0,0,4,3.14h0a47.31,47.31,0,0,1-5.1-2.75,32,32,0,0,0,3.53,2.75c-1.77-.88-4.32-2.45-4.51-2.45a36.3,36.3,0,0,0,3.24,2.55c-1.77-.88-3.93-2.26-3.93-2.26a25.76,25.76,0,0,0,2.65,2.26,42.9,42.9,0,0,1-3.83-2.26,17.78,17.78,0,0,0,2.45,2.16h-.1c-.88-.39-2.06-1.08-3-1.57s-1.57-1-1.57-1,1.28,1.18,2.75,2.36c-1.08,0-6-3.14-6-3.14a27.1,27.1,0,0,0,2.75,2.36,13.28,13.28,0,0,1-3.14-1.47l1.57,13.35L241.33,117V104.27c0-4.32,3.53-6.67,7.75-6.67h1.37c4.32,0,7.75,2.36,7.75,6.67V117L256,118.7Z" />
      <path class="cls-27" d="M251.24,113.5c0,.2-.69.39-1.47.39s-1.47-.2-1.47-.39.69-.49,1.47-.49,1.47.2,1.47.49Z" />
      <path class="cls-32" d="M246.24,111.14a.6.6,0,0,1,0-.79.47.47,0,0,1,.69,0,.6.6,0,0,1,0,.79.47.47,0,0,1-.69,0Z" />
      <path class="cls-32" d="M252.12,111a.49.49,0,1,1,.69,0,.47.47,0,0,1-.69,0Z" />
      <path class="cls-19" d="M244.27,109.38s3.34-.59,4,0Z" />
      <path class="cls-19" d="M254.68,109.38s-3.34-.59-4,0Z" />
      <path class="cls-5" d="M249.67,117.42a22.55,22.55,0,0,0,3.53-.69,24,24,0,0,1-3.53.2,23.41,23.41,0,0,1-3.43-.2,14.09,14.09,0,0,0,3.43.69Z" />
      <path class="cls-33" d="M249.67,117.52a7.85,7.85,0,0,1-2.36-.39,2.87,2.87,0,0,0-.88-.2c-.1-.1-.1-.1-.2-.1a.1.1,0,0,1,0-.2h.2a24.56,24.56,0,0,0,3.24.2c1.47-.1,2.65-.1,3.24-.2a.34.34,0,0,0,.2-.1.34.34,0,0,1,.2.1c0,.1,0,.2-.1.2H253l-.88.29a8,8,0,0,1-2.45.39Zm0-.1h0Zm-1.86-.39a9.89,9.89,0,0,0,1.86.2,5.9,5.9,0,0,0,2-.29,11.9,11.9,0,0,1-2,.1Z" />
      <polygon class="cls-34" points="242.51 210.65 242.7 208.69 235.34 208.69 235.44 210.65 242.51 210.65 242.51 210.65" />
      <polygon class="cls-34" points="254.58 210.65 261.84 210.65 262.04 208.69 254.58 208.69 254.58 210.65 254.58 210.65" />
      <polygon class="cls-35" points="236.13 145.69 236.13 156.29 254.68 156.29 254.68 145.69 236.13 145.69 236.13 145.69" />
      <polygon class="cls-36" points="246.53 146.77 246.53 148.83 244.37 148.83 244.37 146.77 246.53 146.77 246.53 146.77" />
      <polygon class="cls-37" points="242.02 151.28 242.02 155.5 237.8 155.5 237.8 151.28 242.02 151.28 242.02 151.28" />
      <polygon class="cls-38" points="246.43 149.02 246.43 153.24 242.21 153.24 242.21 149.02 246.43 149.02 246.43 149.02" />
      <polygon class="cls-28" points="250.85 146.77 250.85 150.99 246.63 150.99 246.63 146.77 250.85 146.77 250.85 146.77" />
      <polygon class="cls-39" points="239.76 149.02 239.76 151.09 237.7 151.09 237.7 149.02 239.76 149.02 239.76 149.02" />
      <polygon class="cls-40" points="239.76 146.77 239.76 148.83 237.7 148.83 237.7 146.77 239.76 146.77 239.76 146.77" />
      <polygon class="cls-41" points="242.02 149.02 242.02 151.09 239.96 151.09 239.96 149.02 242.02 149.02 242.02 149.02" />
      <polygon class="cls-42" points="242.02 146.77 242.02 148.83 239.96 148.83 239.96 146.77 242.02 146.77 242.02 146.77" />
      <polygon class="cls-40" points="244.27 153.44 244.27 155.5 242.21 155.5 242.21 153.44 244.27 153.44 244.27 153.44" />
      <polygon class="cls-40" points="244.27 146.77 244.27 148.83 242.21 148.83 242.21 146.77 244.27 146.77 244.27 146.77" />
      <polygon class="cls-12" points="246.43 153.44 246.43 155.5 244.37 155.5 244.37 153.44 246.43 153.44 246.43 153.44" />
      <polygon class="cls-12" points="248.69 153.44 248.69 155.5 246.63 155.5 246.63 153.44 248.69 153.44 248.69 153.44" />
      <polygon class="cls-42" points="248.69 151.18 248.69 153.24 246.63 153.24 246.63 151.18 248.69 151.18 248.69 151.18" />
      <polygon class="cls-40" points="250.95 153.44 250.95 155.5 248.89 155.5 248.89 153.44 250.95 153.44 250.95 153.44" />
      <polygon class="cls-39" points="250.95 151.18 250.95 153.24 248.89 153.24 248.89 151.18 250.95 151.18 250.95 151.18" />
      <polygon class="cls-39" points="253.11 149.02 253.11 151.09 251.04 151.09 251.04 149.02 253.11 149.02 253.11 149.02" />
      <polygon class="cls-40" points="253.11 146.77 253.11 148.83 251.04 148.83 251.04 146.77 253.11 146.77 253.11 146.77" />
      <polygon class="cls-40" points="253.11 153.44 253.11 155.5 251.04 155.5 251.04 153.44 253.11 153.44 253.11 153.44" />
      <polygon class="cls-38" points="253.11 151.18 253.11 153.24 251.04 153.24 251.04 151.18 253.11 151.18 253.11 151.18" />
      <path d="M254.87,144H236a1.32,1.32,0,0,0-1.37,1.28v12a1.32,1.32,0,0,0,1.37,1.28h18.84a1.32,1.32,0,0,0,1.37-1.28v-12a1.32,1.32,0,0,0-1.37-1.28Zm1,7.56h-1.08V150.5h1.08Zm-1.67,4.71H236.62V146h17.57Z" />
      <path class="cls-24" d="M232.4,151a3.07,3.07,0,0,0,.69.2l.59.29a2.87,2.87,0,0,1,.88.2c.29.1.69.2,1.08.29a4.93,4.93,0,0,1,1.18.2,24.88,24.88,0,0,0,2.85.39c2,.29,4,.59,5.59.88.69.1,1.37.2,1.77.29a3.07,3.07,0,0,1,.69.2,2.7,2.7,0,0,1,2.26,3.14,2.86,2.86,0,0,1-2.94,2.26h-.1a1.7,1.7,0,0,0-.69-.1c-.39,0-1-.1-1.77-.2-1.47-.1-3.34-.2-5.4-.29-1,0-2.06-.1-3-.2a7.58,7.58,0,0,1-1.47-.2,5.79,5.79,0,0,1-1.37-.2A4.93,4.93,0,0,1,232,158c-.29-.1-.59-.1-.79-.2a4.11,4.11,0,0,0-.69-.1,3.48,3.48,0,0,1,1.57-6.77.36.36,0,0,0,.29.1Z" />
      <path class="cls-24" d="M257,155h-.2a.88.88,0,0,0,.1-.49,1.25,1.25,0,0,0-1.47-1l-2,.29c.49-.69.59-1.47.1-1.86l-4.42,1.47-.88.29-7.16-.59,1.67,5.1,3.73.39.69.69,7.26.88a1.09,1.09,0,0,0,1.28-1.08v-.39h.49a1.22,1.22,0,0,0,1.18-1.28c0-.1-.1-.1-.1-.2a1.13,1.13,0,0,0,1.08-1.28,1.09,1.09,0,0,0-1.37-1Z" />
      <polygon class="cls-27" points="234.66 151.57 227.98 150.89 227.98 150.3 234.66 151.18 234.66 151.57 234.66 151.57" />
      <path class="cls-43" d="M69,245.93a3.14,3.14,0,0,1-3-2.57c-.46-1-2.94-3.49-4.51-5-3.22-3.22-4.87-5-5.24-6.9a3.13,3.13,0,0,1,2.57-3.59,3.09,3.09,0,0,1,3.49,2.21A39.36,39.36,0,0,0,65.89,234c3.68,3.59,6,6,6.25,8.46a3.09,3.09,0,0,1-2.76,3.4.55.55,0,0,1-.37.09Zm-3-2.57Zm-.09-.18ZM62.4,230.48Z" />
      <polygon class="cls-44" points="74.72 294.48 68.28 294.76 68.01 287.77 73.98 287.77 74.72 294.48 74.72 294.48" />
      <path class="cls-45" d="M75,297.7l-5.33.28-.28-.83c-1.38.28-5.24.83-6.9,1.1-1.38,0-3.68,0-4.51-.55a.59.59,0,0,1-.55-.55c.28-2.21,8.64-3.31,10.57-5.88h.28c.55.55,1.38,1.66,2.76,1.66,1.1,0,2.57-1.38,3.13-1.66.55.55.83,6.16.83,6.44Z" />
      <polygon class="cls-46" points="63.78 262.67 66.08 267.08 72.24 270.48 74.63 262.3 78.95 244.64 64.42 236.18 63.78 262.67 63.78 262.67" />
      <polygon class="cls-46" points="74.63 262.3 63.78 262.67 65.43 292.18 75 291.81 74.63 262.3 74.63 262.3" />
      <polygon class="cls-44" points="79.22 294.67 85.11 295.03 85.29 287.77 79.87 287.77 79.22 294.67 79.22 294.67" />
      <path class="cls-45" d="M78,298.07l5.43.28.37-.92c1.66.28,5.43.92,7.45,1.2a11.91,11.91,0,0,0,4.51-.55s.37-.37.37-.64c0-2.3-8.64-3.4-10.94-6.07h-.28c-.55.64-1.1,1.75-2.57,1.75s-2.57-1.38-3.13-1.75c-.92.64-1.2,6.34-1.2,6.71Z" />
      <polygon class="cls-46" points="88.6 262.67 86.21 274.25 81.43 268.27 78.95 262.3 72.24 243.35 88.05 236.18 88.6 262.67 88.6 262.67" />
      <polygon class="cls-46" points="78.95 262.3 88.6 262.67 87.04 292.18 78.67 291.81 78.95 262.3 78.95 262.3" />
      <path class="cls-43" d="M94.49,235.72a3.24,3.24,0,0,1-3.13-2.57,108.7,108.7,0,0,0-4.6-16c-.28-.92-.64-1.84-.83-2.67a3.11,3.11,0,0,1,1.93-4,3.2,3.2,0,0,1,4,2c.28.83.55,1.66.92,2.57A134,134,0,0,1,97.52,232,3.12,3.12,0,0,1,95,235.63a1.17,1.17,0,0,1-.55.09Z" />
      <polygon class="cls-19" points="77.57 208.5 77.29 206.21 73.89 206.85 73.89 208.78 77.29 209.33 77.57 208.5 77.57 208.5" />
      <path class="cls-43" d="M59.36,234.07H59a3.13,3.13,0,0,1-2.76-3.49c.09-.74.28-2.21.46-4.14.83-7.45,1.56-14.25,1.84-15.91A3.11,3.11,0,0,1,62.12,208a3.07,3.07,0,0,1,2.57,3.59c-.28,1.56-1.2,10.39-1.84,15.63-.18,1.84-.37,3.4-.46,4.14a3,3,0,0,1-3,2.76Z" />
      <polygon class="cls-19" points="88.7 213.84 76.19 209.06 78.95 201.88 91.36 206.67 88.7 213.84 88.7 213.84" />
      <path class="cls-19" d="M88.6,224.14c-.28-1.84-1.1-6.25-1.66-9.47-.28-1.66-.55-3-.74-3.77l7.63-1.29c.09.74.37,2,.64,3.68.64,3.49,1.47,7.91,1.75,9.93Z" />
      <path class="cls-19" d="M64,223.22l-7.63-.92c.28-2,1-6.25,1.66-9.56.37-1.66.64-3,.74-3.77l7.54,1.29c-.09.74-.37,2.21-.74,4-.55,3-1.38,7.17-1.56,9Z" />
      <path class="cls-19" d="M86.31,209.24a3.88,3.88,0,0,0,2.76,4.69A3.85,3.85,0,1,0,91,206.48a3.88,3.88,0,0,0-4.69,2.76Z" />
      <polygon class="cls-19" points="81.52 243.08 64.05 243.08 63.69 221.1 63.13 208.87 80.42 207.59 81.52 243.08 81.52 243.08" />
      <polygon class="cls-19" points="63.78 213.66 61.02 206.48 73.43 201.7 76.19 208.87 63.78 213.66 63.78 213.66" />
      <polygon class="cls-19" points="76.1 243.08 88.24 243.08 88.6 221.1 89.25 208.87 76.1 207.86 76.1 243.08 76.1 243.08" />
      <path class="cls-19" d="M66.08,209.06a3.83,3.83,0,0,1-2.67,4.69,3.82,3.82,0,1,1-2-7.36,3.83,3.83,0,0,1,4.69,2.67Z" />
      <polygon class="cls-19" points="66.08 204.55 69.29 203.36 70.03 204.83 66.08 204.55 66.08 204.55" />
      <path class="cls-43" d="M75.92,207.22c-2.57,0-4.6-1.56-4.6-4.14v-3.31h9.2v3.31c0,2.57-2,4.14-4.6,4.14Z" />
      <path class="cls-47" d="M69.2,193.24c.09.09.18.09.18.18a9.26,9.26,0,0,1-.28-2.3v-.46l-.46.09v2.39c.18,0,.46,0,.55.09Z" />
      <path class="cls-47" d="M82.72,190.67v.46c0,2.39-.74,4.6-2.57,5.88h0A5.71,5.71,0,0,0,76,195.08a5.82,5.82,0,0,0-4.23,2h0a6,6,0,0,1-2.11-2.85.34.34,0,0,1-.09.28v.09a1,1,0,0,1-.09,1.1c-.18.18.09,1.2.09,1.47V198a1,1,0,0,1,1.75.55v2.76a7,7,0,0,0,4.32,1.75h.46a7.21,7.21,0,0,0,4.41-1.66v-3.22a1,1,0,0,1,1.66-.64v-2.85a.92.92,0,0,1,1.1-.92v-3Zm-6.8,8.55a4.22,4.22,0,0,1-2.94-1,3.82,3.82,0,0,1,2.94-2.11,3.82,3.82,0,0,1,3,2.11,4.31,4.31,0,0,1-3,1Z" />
      <path class="cls-48" d="M69.48,188.74l-.55-.18c-.37,0-.92,0-1,.46a10.61,10.61,0,0,0,.18,3.86c-.09.64-.18,1.56.74,1.75l.74.09" />
      <path class="cls-48" d="M82.44,188.83l.55-.09c.46,0,1,0,1,.46a10.61,10.61,0,0,1-.18,3.86c.09.64.18,1.56-.83,1.75l-.64.09" />
      <path class="cls-48" d="M83.27,185.88v8.46a7.25,7.25,0,0,1-4,6.71,7.84,7.84,0,0,1-3.22.74h-.46a7,7,0,0,1-2.76-.55,7.35,7.35,0,0,1-4.23-6.9v-8.46l13.06-3.68.92,1.56Z" />
      <path class="cls-32" d="M73.34,190a.51.51,0,1,1-1,.09.51.51,0,0,1,1-.09Z" />
      <path class="cls-32" d="M78.49,190a.56.56,0,1,0,1.1.18.61.61,0,0,0-.55-.64.51.51,0,0,0-.55.46Z" />
      <path class="cls-49" d="M75.92,180c-3.77,0-7.17,2-7.26,5.88h0v6.71h.74v-5.33c4,1.47,13.15-9.29,13.15-1.38v6.71h.74v-6.71c0-4.41-3.49-5.88-7.36-5.88Z" />
      <path class="cls-49" d="M82.72,189.84v.46c0,2.39-.74,4.6-2.57,5.88h0A5.71,5.71,0,0,0,76,194.25a5.82,5.82,0,0,0-4.23,2h0a7.1,7.1,0,0,1-2.67-6v-.46l-.46.09v4.78a7.35,7.35,0,0,0,7,7.54h.46a7.32,7.32,0,0,0,7.17-7.54v-4.78Zm-6.8,8.55a4.22,4.22,0,0,1-2.94-1,3.82,3.82,0,0,1,2.94-2.11,3.82,3.82,0,0,1,3,2.11,4.31,4.31,0,0,1-3,1Z" />
      <path class="cls-19" d="M75.92,197.65a7.43,7.43,0,0,1-1.84-.28c-.09,0-.18-.18-.18-.28s.18-.28.28-.18a7.48,7.48,0,0,0,3.49,0c.18-.09.37,0,.37.18s-.09.28-.18.28a7.52,7.52,0,0,1-1.93.28Z" />
      <path class="cls-49" d="M70.31,189.47s.09,0,.18-.18l.37-.37a8.48,8.48,0,0,0,.74-.46,4,4,0,0,1,.46-.09v-.09h.55a3.27,3.27,0,0,1,.92.18,6.34,6.34,0,0,1,.74.28,1.44,1.44,0,0,1,.64.46h0c.09,0,.09.09,0,.09h-.09s-.28-.09-.64-.18a8.88,8.88,0,0,0-1.66-.28h-.18s-.18,0-.18.09a.55.55,0,0,0-.37.09c-.28.09-.46.18-.74.28a1.55,1.55,0,0,1-.46.18.28.28,0,0,1-.18.09h-.09v-.09Z" />
      <path class="cls-49" d="M81.43,189.66a.32.32,0,0,0-.18-.09,2,2,0,0,0-.46-.28c-.28-.09-.46-.28-.74-.37-.09,0-.18-.09-.37-.09a.32.32,0,0,0-.18-.09h-.18a8.1,8.1,0,0,0-1.56.18A4.17,4.17,0,0,1,77,189c-.09.09-.09,0-.09,0v-.09h0a1.55,1.55,0,0,1,.74-.37,6.34,6.34,0,0,1,.74-.28,3.13,3.13,0,0,1,.92-.09h.46l.09.09h0a.7.7,0,0,1,.46.18c.28.18.46.37.64.46l.46.46a.32.32,0,0,0,.09.18v.09Z" />
      <path class="cls-50" d="M74,193.15h1.93v-4.32c-.18,0-.64,0-.64.74a5.33,5.33,0,0,1-1,2.94.86.86,0,0,0-.28.64Z" />
      <path class="cls-47" d="M77.85,193.15c0,.18-.18.28-.37.37-.46.18-.74.18-.92.37a1,1,0,0,1-.64.28h0a1,1,0,0,1-.64-.28c-.18-.18-.46-.18-.92-.37-.18-.09-.37-.18-.37-.37Z" />
      <path class="cls-43" d="M92,231.13v-.28a6.34,6.34,0,0,0,.28-.74,4,4,0,0,1,.18-.92q.14-.55.28-1.38c.37-2.11.64-5.06,1-8s.64-6,1-8.28c.09-.55.09-1.1.18-1.56a6.33,6.33,0,0,0,.18-1.2,4.11,4.11,0,0,0,.18-1,2.51,2.51,0,0,1,5,.64l-.09.09a8,8,0,0,1-.09,1c0,.28-.09.64-.09,1.1s-.09.92-.18,1.47c-.18,2.21-.28,5.15-.46,8.18s-.37,6.07-.64,8.37c-.09.55-.18,1.2-.28,1.66a6.26,6.26,0,0,1-.18,1.38,4.14,4.14,0,0,0-.18.74.71.71,0,0,0-.09.28,3.11,3.11,0,0,1-6.07-1.38c0-.09,0-.09.09-.18Z" />
      <path class="cls-51" d="M101.2,207.13l-1.93-.28a.2.2,0,0,1-.18-.18h0a.2.2,0,0,1,.18-.18l2,.28c.09,0,.09.18.09.28h0c0,.09-.09.18-.18.09Z" />
      <path class="cls-52" d="M99.27,207.68l-1.2-.09c-.09,0-.18,0-.18-.09h0a.2.2,0,0,1,.18-.18h1.2c.09,0,.09.09.09.18h0c0,.09,0,.18-.09.18Z" />
      <path class="cls-43" d="M100.74,201.24v1.56a.81.81,0,0,0,.83-.74.82.82,0,0,0-.83-.83Zm0,1.56v1.66a.83.83,0,0,0,0-1.66Zm0,1.66V206a.81.81,0,0,0,.83-.74.82.82,0,0,0-.83-.83Zm0,1.56v1.66a.83.83,0,1,0,0-1.66Z" />
      <path class="cls-43" d="M95.87,208.14a.18.18,0,0,1-.18-.18c.18-5.33-.18-5-.18-5a1.13,1.13,0,0,0-.64-1,.24.24,0,0,0-.28.28l-.18,5.33h0v.09h0l.46,1.1c.09.09.18.18.28.18l3.86.09a.2.2,0,0,0,.18-.18h0c.09-.09,0-.55-.18-.55Z" />
      <path class="cls-52" d="M95.68,199.49l-.18,8.37a.66.66,0,0,0,.55.64h4s.55.09.55-.55l.18-8.37a.54.54,0,0,0-.55-.55l-4-.09a.54.54,0,0,0-.55.55Z" />
      <path class="cls-51" d="M95.41,199.49l-.18,8.37a.54.54,0,0,0,.55.55l4,.09a.54.54,0,0,0,.55-.55l.18-8.37a.66.66,0,0,0-.55-.64H96s-.55-.09-.55.55Z" />
      <polygon class="cls-53" points="95.78 206.67 99.82 206.76 100.01 199.59 95.96 199.49 95.78 206.67 95.78 206.67" />
      <path class="cls-54" d="M95.32,201.52l-.09,6.34a.54.54,0,0,0,.55.55l4,.09a.54.54,0,0,0,.55-.55l.09-3.13-.64-.37v2.3l-4-.09.18-4.78-.64-.37Z" />
      <polygon class="cls-40" points="97.89 201.88 95.96 201.79 95.96 199.49 97.89 199.59 97.89 201.88 97.89 201.88" />
      <polygon class="cls-40" points="98.81 204.28 96.88 204.28 96.97 201.98 98.9 201.98 98.81 204.28 98.81 204.28" />
      <polygon class="cls-40" points="99.82 206.76 97.89 206.76 97.89 204.46 99.82 204.46 99.82 206.76 99.82 206.76" />
      <polygon class="cls-40" points="98.9 200.69 97.98 200.69 97.98 199.49 98.9 199.59 98.9 200.69 98.9 200.69" />
      <polygon class="cls-40" points="99.92 200.69 99 200.69 99 199.59 100.01 199.59 99.92 200.69 99.92 200.69" />
      <polygon class="cls-41" points="98.9 201.88 97.98 201.88 97.98 200.78 98.9 200.78 98.9 201.88 98.9 201.88" />
      <polygon class="cls-40" points="99.92 201.88 99 201.88 99 200.78 99.92 200.78 99.92 201.88 99.92 201.88" />
      <polygon class="cls-40" points="96.88 203.08 95.87 203.08 95.96 201.88 96.88 201.98 96.88 203.08 96.88 203.08" />
      <polygon class="cls-40" points="99.92 203.17 99 203.08 99 201.98 99.92 201.98 99.92 203.17 99.92 203.17" />
      <polygon class="cls-40" points="96.79 204.28 95.87 204.28 95.87 203.17 96.79 203.17 96.79 204.28 96.79 204.28" />
      <polygon class="cls-40" points="99.92 204.28 98.9 204.28 99 203.17 99.92 203.17 99.92 204.28 99.92 204.28" />
      <polygon class="cls-40" points="96.79 205.47 95.87 205.47 95.87 204.37 96.79 204.37 96.79 205.47 96.79 205.47" />
      <polygon class="cls-40" points="97.8 205.56 96.88 205.47 96.88 204.37 97.8 204.37 97.8 205.56 97.8 205.56" />
      <polygon class="cls-40" points="96.79 206.76 95.78 206.67 95.87 205.56 96.79 205.56 96.79 206.76 96.79 206.76" />
      <polygon class="cls-40" points="97.8 206.76 96.88 206.76 96.88 205.56 97.8 205.66 97.8 206.76 97.8 206.76" />
      <polygon class="cls-55" points="63.32 223.68 57.06 223.49 57.16 222.39 63.41 223.13 63.32 223.68 63.32 223.68" />
      <polygon class="cls-47" points="93.29 224.04 89.43 225.15 89.16 224.04 93.29 223.49 93.29 224.04 93.29 224.04" />
      <path class="cls-56" d="M126.2,156v29.6A20.26,20.26,0,0,1,106,205.8" />
      <line class="cls-56" x1="213.11" y1="123.98" x2="157.3" y2="123.98" />
      <line class="cls-56" x1="94.11" y1="123.98" x2="38.3" y2="123.98" />
      <line class="cls-56" x1="125.7" y1="76" x2="125.7" y2="94" />
      <line class="cls-56" x1="161.53" y1="77" x2="137.88" y2="97.03" />
      <line class="cls-56" x1="89.88" y1="77" x2="113.53" y2="97.03" />
      <rect class="cls-57" x="56.2" y="1.5" width="140" height="68" rx="12" ry="12" />
      <path class="cls-58" d="M149.13,18.1V52.88c0,3.58,8.1,6.54,18.06,6.54V18.1Z" />
      <path class="cls-59" d="M166.93,59.44h.27c10,0,18.06-3,18.06-6.54V18.1H166.93V59.44Z" />
      <path class="cls-5" d="M185.26,18.1c0,3.58-8.1,6.54-18.06,6.54s-18.06-2.93-18.06-6.54,8.1-6.54,18.06-6.54,18.06,2.89,18.06,6.54" />
      <path class="cls-60" d="M181.57,17.72c0,2.35-6.42,4.34-14.37,4.34s-14.37-1.93-14.37-4.34,6.42-4.34,14.37-4.34,14.37,1.95,14.37,4.34" />
      <path class="cls-61" d="M178.57,20.36c1.88-.76,3-1.66,3-2.62,0-2.35-6.42-4.34-14.37-4.34s-14.37,1.93-14.37,4.34c0,1,1.12,1.93,3,2.62A33.47,33.47,0,0,1,167.2,18.7a32,32,0,0,1,11.37,1.66" />
      <path class="cls-58" d="M108.13,18.1V52.88c0,3.58,8.1,6.54,18.06,6.54V18.1Z" />
      <path class="cls-59" d="M125.93,59.44h.27c10,0,18.06-3,18.06-6.54V18.1H125.93V59.44Z" />
      <path class="cls-5" d="M144.26,18.1c0,3.58-8.1,6.54-18.06,6.54s-18.06-2.93-18.06-6.54,8.1-6.54,18.06-6.54,18.06,2.89,18.06,6.54" />
      <path class="cls-60" d="M140.57,17.72c0,2.35-6.42,4.34-14.37,4.34s-14.37-1.93-14.37-4.34,6.42-4.34,14.37-4.34,14.37,1.95,14.37,4.34" />
      <path class="cls-61" d="M137.57,20.36c1.88-.76,3-1.66,3-2.62,0-2.35-6.42-4.34-14.37-4.34s-14.37,1.93-14.37,4.34c0,1,1.12,1.93,3,2.62A33.47,33.47,0,0,1,126.2,18.7a32,32,0,0,1,11.37,1.66" />
      <path class="cls-58" d="M67.13,18.1V52.88c0,3.58,8.1,6.54,18.06,6.54V18.1Z" />
      <path class="cls-59" d="M84.93,59.44h.27c10,0,18.06-3,18.06-6.54V18.1H84.93V59.44Z" />
      <path class="cls-5" d="M103.26,18.1c0,3.58-8.1,6.54-18.06,6.54S67.13,21.7,67.13,18.1s8.1-6.54,18.06-6.54,18.06,2.89,18.06,6.54" />
      <path class="cls-60" d="M99.57,17.72c0,2.35-6.42,4.34-14.37,4.34s-14.37-1.93-14.37-4.34,6.42-4.34,14.37-4.34,14.37,1.95,14.37,4.34" />
      <path class="cls-61" d="M96.57,20.36c1.88-.76,3-1.66,3-2.62,0-2.35-6.42-4.34-14.37-4.34s-14.37,1.93-14.37,4.34c0,1,1.12,1.93,3,2.62A33.47,33.47,0,0,1,85.2,18.7a32,32,0,0,1,11.37,1.66" />
    </g>
  </g>
</svg>