<?xml version="1.0" encoding="UTF-8" standalone="no"?>
<!DOCTYPE svg PUBLIC "-//W3C//DTD SVG 1.1//EN" "http://www.w3.org/Graphics/SVG/1.1/DTD/svg11.dtd">
<!-- Generated by Microsoft Visio, SVG Export ManagedDisk.svg Page-1 -->
<svg xmlns="http://www.w3.org/2000/svg" xmlns:xlink="http://www.w3.org/1999/xlink" xmlns:ev="http://www.w3.org/2001/xml-events"
		width="0.285614in" height="0.246243in" viewBox="0 0 20.5642 17.7295" xml:space="preserve"
		color-interpolation-filters="sRGB" class="st2">
	<style type="text/css">
	<![CDATA[
		.st1 {fill:none;stroke:none;stroke-linecap:round;stroke-linejoin:round;stroke-width:0.75}
		.st2 {fill:none;fill-rule:evenodd;font-size:12px;overflow:visible;stroke-linecap:square;stroke-miterlimit:3}
	]]>
	</style>

	<g>
		<title>Page-1</title>
		<g id="shape727-1" transform="translate(0.375,-0.375)">
			<title>Disks Storage.727</title>
			<rect x="0" y="0.75" width="19.8142" height="16.9795" class="st1"/>
			<svg viewBox="0 0 330.25 282.99" enable-background="new" color-interpolation-filters="sRGB" height="16.9795"
					preserveAspectRatio="none" width="19.8142" x="0" y="0.75">
				<defs>
					<clipPath id="mfid89">
						<rect id="mfid90" x="0" y="0" width="330.25" height="282.99"/>
					</clipPath>
				</defs>
				<g clip-path="url(#mfid89)">
					<defs>
						<g id="mfid91">
							<path d="M300,219 C300,250 233,275 150,275 C67,275 0,250 0,219 L0,181 L300,181 Z"/>
						</g>
					</defs>
					<g stroke="#000000" stroke-miterlimit="10" fill="#4a9f49">
						<use xlink:href="#mfid91" stroke="none"/>
					</g>
					<defs>
						<g id="mfid92">
							<path
									d="M300,181 C300,212 233,238 150,238 C67,238 0,212 0,181 C0,150 67,125 150,125 C233,125 300,150 300,181 Z"/>
						</g>
					</defs>
					<g stroke="#000000" stroke-miterlimit="10" fill="#adc80b">
						<use xlink:href="#mfid92" stroke="none"/>
					</g>
					<defs>
						<g id="mfid93">
							<path d="M130,125 C105,126 80,130 56,138 L124,169 C131,167 137,166 144,166 Z"/>
						</g>
					</defs>
					<g stroke="#000000" stroke-miterlimit="10" fill="#cbe238">
						<use xlink:href="#mfid93" stroke="none"/>
					</g>
					<defs>
						<g id="mfid94">
							<path d="M244,225 L176,193 C169,195 162,196 156,197 L170,238 C195,236 220,232 244,225 Z"/>
						</g>
					</defs>
					<g stroke="#000000" stroke-miterlimit="10" fill="#cbe238">
						<use xlink:href="#mfid94" stroke="none"/>
					</g>
					<defs>
						<g id="mfid95">
							<path
									d="M191,181 C191,190 172,197 150,197 C128,197 109,190 109,181 C109,173 128,166 150,166 C172,166 191,173 191,181 Z"/>
						</g>
					</defs>
					<g stroke="#000000" stroke-miterlimit="10" fill="#087e06">
						<use xlink:href="#mfid95" stroke="none"/>
					</g>
					<defs>
						<g id="mfid96">
							<path d="M300,94 C300,125 233,150 150,150 C67,150 0,125 0,94 L0,56 L300,56 Z"/>
						</g>
					</defs>
					<g stroke="#000000" stroke-miterlimit="10" fill="#0879da">
						<use xlink:href="#mfid96" stroke="none"/>
					</g>
					<defs>
						<g id="mfid97">
							<path d="M300,56 C300,87 233,113 150,113 C67,113 0,87 0,56 C0,25 67,0 150,0 C233,0 300,25 300,56 Z"/>
						</g>
					</defs>
					<g stroke="#000000" stroke-miterlimit="10" fill="#11bdf5">
						<use xlink:href="#mfid97" stroke="none"/>
					</g>
					<defs>
						<g id="mfid98">
							<path d="M130,0 C105,1 80,5 56,13 L124,44 C131,42 138,41 144,41 Z"/>
						</g>
					</defs>
					<g stroke="#000000" stroke-miterlimit="10" fill="#39cef7">
						<use xlink:href="#mfid98" stroke="none"/>
					</g>
					<defs>
						<g id="mfid99">
							<path d="M244,100 L176,68 C169,70 162,71 156,72 L170,113 C195,111 220,107 244,100 Z"/>
						</g>
					</defs>
					<g stroke="#000000" stroke-miterlimit="10" fill="#39cef7">
						<use xlink:href="#mfid99" stroke="none"/>
					</g>
					<defs>
						<g id="mfid100">
							<path
									d="M191,56 C191,65 172,72 150,72 C128,72 109,65 109,56 C109,48 128,41 150,41 C172,41 191,48 191,56 Z"/>
						</g>
					</defs>
					<g stroke="#000000" stroke-miterlimit="10" fill="#035293">
						<use xlink:href="#mfid100" stroke="none"/>
					</g>
				</g>
			</svg>
			<rect x="0" y="0.75" width="19.8142" height="16.9795" class="st1"/>
		</g>
	</g>
</svg>
