<?xml version="1.0" encoding="UTF-8" standalone="no"?>
<!DOCTYPE svg PUBLIC "-//W3C//DTD SVG 1.1//EN" "http://www.w3.org/Graphics/SVG/1.1/DTD/svg11.dtd">
<!-- Generated by Microsoft Visio, SVG Export NSG.svg Page-1 -->
<svg xmlns="http://www.w3.org/2000/svg" xmlns:xlink="http://www.w3.org/1999/xlink" xmlns:ev="http://www.w3.org/2001/xml-events"
		xmlns:v="http://schemas.microsoft.com/visio/2003/SVGExtensions/" width="0.337849in" height="0.453049in"
		viewBox="0 0 24.3251 32.6195" xml:space="preserve" color-interpolation-filters="sRGB" class="st6">
	<v:documentProperties v:langID="1033" v:viewMarkup="false"/>

	<style type="text/css">
	<![CDATA[
		.st1 {fill:#3999c6;stroke:none;stroke-width:0.75}
		.st2 {fill:#59b4d9;fill-opacity:0.4;stroke:none;stroke-width:0.75}
		.st3 {fill:#ffffff;fill-opacity:0.3;stroke:none;stroke-width:0.75}
		.st4 {fill:#ffffff;fill-opacity:0.7;stroke:none;stroke-width:0.75}
		.st5 {fill:#3e3e3e;stroke:none;stroke-width:0.75}
		.st6 {fill:none;fill-rule:evenodd;font-size:12px;overflow:visible;stroke-linecap:square;stroke-miterlimit:3}
	]]>
	</style>

	<g v:mID="0" v:index="1" v:groupContext="foregroundPage">
		<title>Page-1</title>
		<v:pageProperties v:drawingScale="1" v:pageScale="1" v:drawingUnits="19" v:shadowOffsetX="9" v:shadowOffsetY="-9"/>
		<g id="group61-1" transform="translate(0.75,-0.75)" v:mID="61" v:groupContext="group">
			<title>Network Security Group.61</title>
			<g id="shape62-2" v:mID="62" v:groupContext="shape">
				<title>Sheet.62</title>
				<path d="M19.46 5.24 C12.6 4.49 11.41 1.5 11.41 1.5 C11.41 1.5 9.85 5.37 0 5.37 L0 21.33 C0 23.26 1.06 25.07 2.56
							 26.63 C5.92 30.19 11.41 32.62 11.41 32.62 C11.41 32.62 22.83 27.63 22.83 21.33 L22.83 5.37 C21.58 5.37
							 20.46 5.3 19.46 5.24 Z" class="st1"/>
			</g>
			<g id="shape63-4" v:mID="63" v:groupContext="shape" transform="translate(0,-5.98692)">
				<title>Sheet.63</title>
				<path d="M14.28 17.78 L19.46 11.23 C12.6 10.48 11.41 7.49 11.41 7.49 C11.41 7.49 9.85 11.35 0 11.35 L0 27.32 C0 29.25
							 1.06 31.06 2.56 32.62 L6.42 27.76 L14.28 17.78 Z" class="st2"/>
			</g>
			<g id="group64-6" transform="translate(2.30746,-3.11819)" v:mID="64" v:groupContext="group">
				<title>Sheet.64</title>
				<g id="shape65-7" v:mID="65" v:groupContext="shape" transform="translate(0.0623637,0)">
					<title>Sheet.65</title>
					<path d="M0 19.83 L0 23.64 C0 25.2 0.87 26.63 2.06 27.88 C4.74 30.75 9.11 32.62 9.11 32.62 L9.11 19.83 L0 19.83
								 Z" class="st3"/>
				</g>
				<g id="shape66-9" v:mID="66" v:groupContext="shape" transform="translate(9.1051,0)">
					<title>Sheet.66</title>
					<path d="M0 32.62 C0 32.62 9.11 28.63 9.11 23.64 L9.11 19.83 L0 19.83 L0 32.62 Z" class="st4"/>
				</g>
				<g id="shape67-11" v:mID="67" v:groupContext="shape" transform="translate(0,-12.7846)">
					<title>Sheet.67</title>
					<path d="M9.11 20.58 C9.11 20.58 7.86 23.7 0 23.7 L0 32.62 L9.11 32.62 L9.11 20.58 Z" class="st4"/>
				</g>
				<g id="shape68-13" v:mID="68" v:groupContext="shape" transform="translate(9.1051,-12.7846)">
					<title>Sheet.68</title>
					<path d="M6.36 23.58 C0.94 22.95 0 20.65 0 20.65 L0 32.62 L9.11 32.62 L9.11 23.7 C8.11 23.7 7.17 23.64 6.36 23.58
								 Z" class="st3"/>
				</g>
			</g>
			<g id="group69-15" transform="translate(3.12442,-12.7746)" v:mID="69" v:groupContext="group">
				<title>Sheet.69</title>
				<g id="shape70-16" v:mID="70" v:groupContext="shape" transform="translate(-8.14349E-14,-0.1029)">
					<title>Sheet.70</title>
					<path d="M5.18 32.62 L4.08 32.62 L1.15 28.13 C1.08 28.01 1.02 27.89 0.97 27.77 L0.95 27.77 C0.97 27.9 0.98 28.18
								 0.98 28.61 L0.98 32.62 L0 32.62 L0 26.51 L1.18 26.51 L4 30.89 C4.12 31.07 4.2 31.2 4.23 31.27 L4.25
								 31.27 C4.22 31.11 4.21 30.83 4.21 30.45 L4.21 26.51 L5.18 26.51 L5.18 32.62 Z" class="st5"/>
				</g>
				<g id="shape71-18" v:mID="71" v:groupContext="shape" transform="translate(6.41099,0)">
					<title>Sheet.71</title>
					<path d="M0 32.27 L0 31.23 C0.1 31.31 0.21 31.39 0.34 31.46 C0.47 31.53 0.61 31.58 0.75 31.63 C0.9 31.68 1.04
								 31.71 1.19 31.74 C1.33 31.77 1.46 31.78 1.59 31.78 C2.01 31.78 2.33 31.71 2.54 31.56 C2.75 31.42
								 2.85 31.22 2.85 30.95 C2.85 30.8 2.82 30.68 2.75 30.57 C2.68 30.46 2.58 30.37 2.46 30.28 C2.33 30.19
								 2.18 30.1 2.01 30.02 C1.85 29.94 1.66 29.86 1.47 29.77 C1.26 29.66 1.07 29.55 0.89 29.43 C0.71 29.32
								 0.56 29.19 0.42 29.06 C0.29 28.92 0.19 28.76 0.11 28.59 C0.04 28.42 0 28.21 0 27.98 C0 27.69 0.06
								 27.44 0.19 27.23 C0.32 27.02 0.49 26.84 0.71 26.71 C0.92 26.57 1.16 26.47 1.43 26.4 C1.7 26.33 1.97
								 26.3 2.26 26.3 C2.89 26.3 3.36 26.37 3.65 26.52 L3.65 27.52 C3.31 27.27 2.86 27.14 2.31 27.14 C2.16
								 27.14 2.01 27.16 1.87 27.19 C1.72 27.21 1.58 27.26 1.46 27.33 C1.35 27.39 1.25 27.48 1.18 27.58
								 C1.1 27.68 1.07 27.81 1.07 27.95 C1.07 28.09 1.09 28.2 1.15 28.3 C1.21 28.4 1.29 28.49 1.4 28.58
								 C1.51 28.66 1.64 28.74 1.8 28.82 C1.96 28.9 2.14 28.98 2.35 29.07 C2.56 29.18 2.76 29.3 2.95 29.42
								 C3.14 29.54 3.31 29.68 3.45 29.83 C3.6 29.97 3.71 30.14 3.79 30.32 C3.88 30.5 3.92 30.7 3.92 30.94
								 C3.92 31.24 3.86 31.51 3.73 31.72 C3.61 31.93 3.44 32.11 3.23 32.24 C3.01 32.37 2.77 32.47 2.49
								 32.53 C2.22 32.59 1.93 32.62 1.62 32.62 C1.52 32.62 1.39 32.61 1.24 32.6 C1.09 32.58 0.94 32.56
								 0.79 32.53 C0.63 32.5 0.48 32.46 0.34 32.42 C0.2 32.38 0.09 32.33 0 32.27 Z" class="st5"/>
				</g>
				<g id="shape72-20" v:mID="72" v:groupContext="shape" transform="translate(11.0583,-0.00124727)">
					<title>Sheet.72</title>
					<path d="M5.16 32.1 C4.53 32.45 3.82 32.62 3.04 32.62 C2.13 32.62 1.4 32.34 0.84 31.78 C0.28 31.21 0 30.47 0
								 29.54 C0 28.59 0.31 27.82 0.92 27.21 C1.53 26.6 2.31 26.3 3.25 26.3 C3.93 26.3 4.5 26.4 4.97 26.6
								 L4.97 27.64 C4.5 27.33 3.94 27.18 3.29 27.18 C2.64 27.18 2.11 27.39 1.69 27.82 C1.27 28.25 1.07
								 28.8 1.07 29.49 C1.07 30.19 1.24 30.74 1.6 31.14 C1.96 31.54 2.45 31.75 3.06 31.75 C3.48 31.75 3.85
								 31.66 4.15 31.5 L4.15 30.05 L2.86 30.05 L2.86 29.2 L5.16 29.2 C5.16 29.2 5.16 32.1 5.16 32.1 Z"
							class="st5"/>
				</g>
			</g>
		</g>
	</g>
</svg>
