<?xml version="1.0" encoding="UTF-8" standalone="no"?>
<!DOCTYPE svg PUBLIC "-//W3C//DTD SVG 1.1//EN" "http://www.w3.org/Graphics/SVG/1.1/DTD/svg11.dtd">
<!-- Generated by Microsoft Visio, SVG Export NSGSubnetSmall.svg Page-1 -->
<svg xmlns="http://www.w3.org/2000/svg" xmlns:xlink="http://www.w3.org/1999/xlink" xmlns:ev="http://www.w3.org/2001/xml-events"
		xmlns:v="http://schemas.microsoft.com/visio/2003/SVGExtensions/" width="0.0625in" height="0.094818in"
		viewBox="0 0 4.5 6.8269" xml:space="preserve" color-interpolation-filters="sRGB" class="st8">
	<v:documentProperties v:langID="1033" v:viewMarkup="false"/>

	<style type="text/css">
	<![CDATA[
		.st1 {fill:#3999c6;stroke:none;stroke-linecap:round;stroke-linejoin:round;stroke-width:0.75}
		.st2 {fill:#7fba00;stroke:none;stroke-linecap:round;stroke-linejoin:round;stroke-width:0.75}
		.st3 {fill:#3999c6;stroke:none;stroke-width:0.75}
		.st4 {fill:#59b4d9;fill-opacity:0.4;stroke:none;stroke-width:0.75}
		.st5 {fill:#ffffff;fill-opacity:0.3;stroke:none;stroke-width:0.75}
		.st6 {fill:#ffffff;fill-opacity:0.7;stroke:none;stroke-width:0.75}
		.st7 {fill:#3e3e3e;stroke:none;stroke-width:0.75}
		.st8 {fill:none;fill-rule:evenodd;font-size:12px;overflow:visible;stroke-linecap:square;stroke-miterlimit:3}
	]]>
	</style>

	<g v:mID="0" v:index="1" v:groupContext="foregroundPage">
		<title>Page-1</title>
		<v:pageProperties v:drawingScale="1" v:pageScale="1" v:drawingUnits="19" v:shadowOffsetX="9" v:shadowOffsetY="-9"/>
		<g id="group39-1" v:mID="39" v:groupContext="group">
			<title>Networking/VNET Integration</title>
			<g id="shape40-2" v:mID="40" v:groupContext="shape" transform="translate(3.13577,0)">
				<title>Sheet.40</title>
				<path d="M1.36 5.61 L1.1 5.34 L0.15 4.42 L0 4.56 L1.07 5.61 L0 6.69 L0.15 6.83 L1.1 5.9 L1.36 5.61 L1.36 5.61 Z"
						class="st1"/>
			</g>
			<g id="shape41-4" v:mID="41" v:groupContext="shape">
				<title>Sheet.41</title>
				<path d="M0 5.61 L0.27 5.34 L1.21 4.42 L1.36 4.56 L0.3 5.61 L1.36 6.69 L1.21 6.83 L0.27 5.9 L0 5.61 L0 5.61 Z"
						class="st1"/>
			</g>
			<g id="shape42-6" v:mID="42" v:groupContext="shape" transform="translate(1.15257,-0.952031)">
				<title>Sheet.42</title>
				<path d="M0.55 6.56 C0.55 6.71 0.42 6.83 0.28 6.83 C0.14 6.83 0 6.7 0 6.56 C0 6.42 0.11 6.29 0.28 6.29 C0.44 6.29
							 0.55 6.42 0.55 6.56 Z" class="st2"/>
			</g>
			<g id="shape43-8" v:mID="43" v:groupContext="shape" transform="translate(1.96897,-0.952031)">
				<title>Sheet.43</title>
				<path d="M0.55 6.56 C0.55 6.71 0.42 6.83 0.28 6.83 C0.14 6.83 -0 6.7 0 6.56 C-0 6.42 0.13 6.29 0.28 6.29 C0.44 6.29
							 0.55 6.42 0.55 6.56 Z" class="st2"/>
			</g>
			<g id="shape44-10" v:mID="44" v:groupContext="shape" transform="translate(2.81206,-0.952031)">
				<title>Sheet.44</title>
				<path d="M0.54 6.56 C0.54 6.41 0.41 6.29 0.27 6.29 C0.12 6.29 0 6.41 0 6.56 C-0 6.71 0.12 6.83 0.27 6.83 C0.41 6.83
							 0.54 6.71 0.54 6.56 Z" class="st2"/>
			</g>
		</g>
		<g id="group49-12" transform="translate(0.862697,-2.29403)" v:mID="49" v:groupContext="group">
			<title>Network Security Group</title>
			<g id="shape50-13" v:mID="50" v:groupContext="shape">
				<title>Sheet.50</title>
				<path d="M2.37 3.5 C1.53 3.41 1.39 3.04 1.39 3.04 C1.39 3.04 1.2 3.51 0 3.51 L0 5.45 C0 5.69 0.13 5.91 0.31 6.1 C0.72
							 6.53 1.39 6.83 1.39 6.83 C1.39 6.83 2.77 6.22 2.77 5.45 L2.77 3.51 C2.62 3.51 2.49 3.51 2.37 3.5 Z"
						class="st3"/>
			</g>
			<g id="shape51-15" v:mID="51" v:groupContext="shape" transform="translate(0,-0.727766)">
				<title>Sheet.51</title>
				<path d="M1.74 5.02 L2.37 4.23 C1.53 4.14 1.39 3.77 1.39 3.77 C1.39 3.77 1.2 4.24 0 4.24 L0 6.18 C0 6.42 0.13 6.64
							 0.31 6.83 L0.78 6.24 L1.74 5.02 Z" class="st4"/>
			</g>
			<g id="group52-17" transform="translate(0.280493,-0.379045)" v:mID="52" v:groupContext="group">
				<title>Sheet.52</title>
				<g id="shape53-18" v:mID="53" v:groupContext="shape" transform="translate(0.00758089,0)">
					<title>Sheet.53</title>
					<path d="M0 5.27 L0 5.74 C0 5.92 0.11 6.1 0.25 6.25 C0.58 6.6 1.11 6.83 1.11 6.83 L1.11 5.27 L0 5.27 Z"
							class="st5"/>
				</g>
				<g id="shape54-20" v:mID="54" v:groupContext="shape" transform="translate(1.10681,0)">
					<title>Sheet.54</title>
					<path d="M0 6.83 C0 6.83 1.11 6.34 1.11 5.74 L1.11 5.27 L0 5.27 L0 6.83 Z" class="st6"/>
				</g>
				<g id="shape55-22" v:mID="55" v:groupContext="shape" transform="translate(0,-1.55408)">
					<title>Sheet.55</title>
					<path d="M1.11 5.36 C1.11 5.36 0.96 5.74 0 5.74 L0 6.83 L1.11 6.83 L1.11 5.36 Z" class="st6"/>
				</g>
				<g id="shape56-24" v:mID="56" v:groupContext="shape" transform="translate(1.10681,-1.55408)">
					<title>Sheet.56</title>
					<path d="M0.77 5.73 C0.11 5.65 0 5.37 0 5.37 L0 6.83 L1.11 6.83 L1.11 5.74 C0.99 5.74 0.87 5.74 0.77 5.73 Z"
							class="st5"/>
				</g>
			</g>
			<g id="group57-26" transform="translate(0.379803,-1.55287)" v:mID="57" v:groupContext="group">
				<title>Sheet.57</title>
				<g id="shape58-27" v:mID="58" v:groupContext="shape" transform="translate(-9.80466E-15,-0.0125085)">
					<title>Sheet.58</title>
					<path d="M0.63 6.83 L0.5 6.83 L0.14 6.28 C0.13 6.27 0.12 6.25 0.12 6.24 L0.12 6.24 C0.12 6.25 0.12 6.29 0.12
								 6.34 L0.12 6.83 L0 6.83 L0 6.08 L0.14 6.08 L0.49 6.62 C0.5 6.64 0.51 6.65 0.51 6.66 L0.52 6.66 C0.51
								 6.64 0.51 6.61 0.51 6.56 L0.51 6.08 L0.63 6.08 L0.63 6.83 Z" class="st7"/>
				</g>
				<g id="shape59-29" v:mID="59" v:groupContext="shape" transform="translate(0.779316,0)">
					<title>Sheet.59</title>
					<path d="M0 6.78 L0 6.66 C0.01 6.67 0.03 6.68 0.04 6.69 C0.06 6.69 0.07 6.7 0.09 6.71 C0.11 6.71 0.13 6.72 0.14
								 6.72 C0.16 6.72 0.18 6.72 0.19 6.72 C0.24 6.72 0.28 6.72 0.31 6.7 C0.33 6.68 0.35 6.66 0.35 6.62
								 C0.35 6.61 0.34 6.59 0.33 6.58 C0.33 6.56 0.31 6.55 0.3 6.54 C0.28 6.53 0.27 6.52 0.24 6.51 C0.22
								 6.5 0.2 6.49 0.18 6.48 C0.15 6.47 0.13 6.45 0.11 6.44 C0.09 6.43 0.07 6.41 0.05 6.39 C0.04 6.38
								 0.02 6.36 0.01 6.34 C0 6.32 0 6.29 0 6.26 C0 6.23 0.01 6.2 0.02 6.17 C0.04 6.15 0.06 6.12 0.09 6.11
								 C0.11 6.09 0.14 6.08 0.17 6.07 C0.21 6.06 0.24 6.06 0.27 6.06 C0.35 6.06 0.41 6.07 0.44 6.09 L0.44
								 6.21 C0.4 6.18 0.35 6.16 0.28 6.16 C0.26 6.16 0.24 6.16 0.23 6.17 C0.21 6.17 0.19 6.18 0.18 6.18
								 C0.16 6.19 0.15 6.2 0.14 6.21 C0.13 6.23 0.13 6.24 0.13 6.26 C0.13 6.28 0.13 6.29 0.14 6.3 C0.15
								 6.31 0.16 6.33 0.17 6.34 C0.18 6.35 0.2 6.36 0.22 6.36 C0.24 6.37 0.26 6.38 0.29 6.4 C0.31 6.41
								 0.34 6.42 0.36 6.44 C0.38 6.45 0.4 6.47 0.42 6.49 C0.44 6.51 0.45 6.53 0.46 6.55 C0.47 6.57 0.48
								 6.59 0.48 6.62 C0.48 6.66 0.47 6.69 0.45 6.72 C0.44 6.74 0.42 6.76 0.39 6.78 C0.37 6.8 0.34 6.81
								 0.3 6.82 C0.27 6.82 0.23 6.83 0.2 6.83 C0.18 6.83 0.17 6.83 0.15 6.82 C0.13 6.82 0.11 6.82 0.1 6.82
								 C0.08 6.81 0.06 6.81 0.04 6.8 C0.02 6.8 0.01 6.79 0 6.78 Z" class="st7"/>
				</g>
				<g id="shape60-31" v:mID="60" v:groupContext="shape" transform="translate(1.34424,-0.000151618)">
					<title>Sheet.60</title>
					<path d="M0.63 6.76 C0.55 6.81 0.46 6.83 0.37 6.83 C0.26 6.83 0.17 6.79 0.1 6.72 C0.03 6.66 0 6.57 0 6.45 C0
								 6.34 0.04 6.24 0.11 6.17 C0.19 6.1 0.28 6.06 0.4 6.06 C0.48 6.06 0.55 6.07 0.6 6.1 L0.6 6.22 C0.55
								 6.18 0.48 6.17 0.4 6.17 C0.32 6.17 0.26 6.19 0.21 6.24 C0.15 6.3 0.13 6.36 0.13 6.45 C0.13 6.53
								 0.15 6.6 0.19 6.65 C0.24 6.7 0.3 6.72 0.37 6.72 C0.42 6.72 0.47 6.71 0.5 6.69 L0.5 6.51 L0.35 6.51
								 L0.35 6.41 L0.63 6.41 C0.63 6.41 0.63 6.76 0.63 6.76 Z" class="st7"/>
				</g>
			</g>
		</g>
	</g>
</svg>
