<?xml version="1.0" encoding="UTF-8" standalone="no"?>
<!DOCTYPE svg PUBLIC "-//W3C//DTD SVG 1.1//EN" "http://www.w3.org/Graphics/SVG/1.1/DTD/svg11.dtd">
<!-- Generated by Microsoft Visio, SVG Export StorageSecureTransfer.svg Page-1 -->
<svg xmlns="http://www.w3.org/2000/svg" xmlns:xlink="http://www.w3.org/1999/xlink" xmlns:ev="http://www.w3.org/2001/xml-events"
		xmlns:v="http://schemas.microsoft.com/visio/2003/SVGExtensions/" width="0.774196in" height="0.768892in"
		viewBox="0 0 55.7421 55.3602" xml:space="preserve" color-interpolation-filters="sRGB" class="st13">
	<v:documentProperties v:langID="1033" v:viewMarkup="false"/>

	<style type="text/css">
	<![CDATA[
		.st1 {fill:#ffffff;stroke:none;stroke-linecap:round;stroke-linejoin:round;stroke-width:0.75}
		.st2 {fill:#a0a1a2;stroke:none;stroke-linecap:butt;stroke-width:7.65}
		.st3 {fill:#7a7a7a}
		.st4 {stroke:none;stroke-linecap:butt;stroke-width:7.65}
		.st5 {fill:#b8d432;stroke:none;stroke-linecap:butt;stroke-width:7.65}
		.st6 {fill:#ffffff;stroke:none;stroke-linecap:butt;stroke-width:7.65}
		.st7 {fill:#ffffff;fill-opacity:0.2;stroke:none;stroke-linecap:butt;stroke-width:7.65}
		.st8 {visibility:visible}
		.st9 {fill:#5b9bd5;fill-opacity:0.22;filter:url(#filter_2);stroke:none}
		.st10 {fill:#7fba00;stroke:none;stroke-width:12.24}
		.st11 {fill:#b8d432;fill-opacity:0.4;stroke:none;stroke-width:12.24}
		.st12 {fill:#ffffff;stroke:none;stroke-width:12.24}
		.st13 {fill:none;fill-rule:evenodd;font-size:12px;overflow:visible;stroke-linecap:square;stroke-miterlimit:3}
	]]>
	</style>

	<defs id="Filters">
		<filter id="filter_2">
			<feGaussianBlur stdDeviation="2"/>
		</filter>
	</defs>
	<g v:mID="0" v:index="1" v:groupContext="foregroundPage">
		<title>Page-1</title>
		<v:pageProperties v:drawingScale="0.0393701" v:pageScale="0.0393701" v:drawingUnits="24" v:shadowOffsetX="9"
				v:shadowOffsetY="-9"/>
		<g id="group609-1" transform="translate(0.375,-0.375)" v:mID="609" v:groupContext="group">
			<title>Sheet.609</title>
			<g id="shape608-2" v:mID="608" v:groupContext="shape">
				<title>Sheet.608</title>
				<rect x="0" y="0.750002" width="54.9921" height="54.6102" class="st1"/>
			</g>
			<g id="group573-4" transform="translate(18.2835,-19.628)" v:mID="573" v:groupContext="group">
				<title>Azure Files Storage</title>
				<g id="shape574-5" v:mID="574" v:groupContext="shape">
					<title>Sheet.574</title>
					<path d="M0 54.68 C0 55.04 0.29 55.36 0.66 55.36 L17.73 55.36 C18.09 55.36 18.43 55.07 18.43 54.68 L18.43 42.86
								 L0 42.86 L0 54.68 Z" class="st2"/>
				</g>
				<g id="shape575-7" v:mID="575" v:groupContext="shape" transform="translate(0,-12.4978)">
					<title>Sheet.575</title>
					<path d="M17.73 52.54 L0.66 52.54 C0.29 52.54 0 52.86 0 53.22 L0 55.36 L18.43 55.36 L18.43 53.22 C18.43 52.86
								 18.13 52.58 17.72 52.58 L17.73 52.54 Z" class="st3"/>
					<path d="M17.73 52.54 L0.66 52.54 C0.29 52.54 0 52.86 0 53.22 L0 55.36 L18.43 55.36 L18.43 53.22 C18.43 52.86
								 18.13 52.58 17.72 52.58" class="st4"/>
				</g>
				<g id="shape576-10" v:mID="576" v:groupContext="shape" transform="translate(1.47401,-5.17748)">
					<title>Sheet.576</title>
					<rect x="0" y="52.8606" width="15.4772" height="2.49968" class="st5"/>
				</g>
				<g id="shape577-12" v:mID="577" v:groupContext="shape" transform="translate(1.47401,-8.92669)">
					<title>Sheet.577</title>
					<rect x="0" y="52.8606" width="15.4772" height="2.49968" class="st6"/>
				</g>
				<g id="shape578-14" v:mID="578" v:groupContext="shape" transform="translate(1.47401,-1.42826)">
					<title>Sheet.578</title>
					<rect x="0" y="52.8606" width="15.4772" height="2.49968" class="st5"/>
				</g>
				<g id="shape579-16" v:mID="579" v:groupContext="shape" transform="translate(0,-0.142795)">
					<title>Sheet.579</title>
					<path d="M0.74 40.15 C0.33 40.15 0 40.47 0 40.86 L0 43.47 L0 44.65 L0 54.65 C0 55.04 0.33 55.36 0.74 55.36 L1.55
								 55.36 L16.07 40.15 L0.74 40.15 Z" class="st7"/>
				</g>
			</g>
			<g id="group580-18" transform="translate(32.7269,-14.2496)" v:mID="580" v:groupContext="group">
				<title>Azure Security / Security Center.580</title>
				<g id="shape581-19" v:mID="581" v:groupContext="shape">
					<title>Sheet.581</title>
					<g id="shadow581-20" v:groupContext="shadow" v:shadowOffsetX="0.3456" v:shadowOffsetY="-1.9728"
							v:shadowType="1" transform="matrix(1,0,0,1,0.3456,1.9728)" class="st8">
						<path d="M6.79 45.81 C4.4 45.55 3.98 44.5 3.98 44.5 C3.98 44.5 3.44 45.85 0 45.85 L0 51.42 C0 52.1 0.37 52.73
									 0.89 53.27 C2.07 54.51 3.98 55.36 3.98 55.36 C3.98 55.36 7.96 53.62 7.96 51.42 L7.96 45.85 C7.53
									 45.85 7.14 45.83 6.79 45.81 Z" class="st9"/>
					</g>
					<path d="M6.79 45.81 C4.4 45.55 3.98 44.5 3.98 44.5 C3.98 44.5 3.44 45.85 0 45.85 L0 51.42 C0 52.1 0.37 52.73
								 0.89 53.27 C2.07 54.51 3.98 55.36 3.98 55.36 C3.98 55.36 7.96 53.62 7.96 51.42 L7.96 45.85 C7.53
								 45.85 7.14 45.83 6.79 45.81 Z" class="st10"/>
				</g>
				<g id="shape582-24" v:mID="582" v:groupContext="shape" transform="translate(0,-2.08876)">
					<title>Sheet.582</title>
					<g id="shadow582-25" v:groupContext="shadow" v:shadowOffsetX="0.3456" v:shadowOffsetY="-1.9728"
							v:shadowType="1" transform="matrix(1,0,0,1,0.3456,1.9728)" class="st8">
						<path d="M4.98 50.18 L6.79 47.9 C4.4 47.64 3.98 46.59 3.98 46.59 C3.98 46.59 3.44 47.94 0 47.94 L0 53.51
									 C0 54.19 0.37 54.82 0.89 55.36 L2.24 53.66 L4.98 50.18 Z" class="st9"/>
					</g>
					<path d="M4.98 50.18 L6.79 47.9 C4.4 47.64 3.98 46.59 3.98 46.59 C3.98 46.59 3.44 47.94 0 47.94 L0 53.51 C0 54.19
								 0.37 54.82 0.89 55.36 L2.24 53.66 L4.98 50.18 Z" class="st11"/>
				</g>
				<g id="shape583-29" v:mID="583" v:groupContext="shape" transform="translate(2.21931,-3.11139)">
					<title>Sheet.583</title>
					<g id="shadow583-30" v:groupContext="shadow" v:shadowOffsetX="0.3456" v:shadowOffsetY="-1.9728"
							v:shadowType="1" transform="matrix(1,0,0,1,0.3456,1.9728)" class="st8">
						<path d="M3.35 52.95 L3.11 52.95 L3.11 52.16 C3.11 51.79 2.98 51.44 2.74 51.2 C2.74 51.2 2.72 51.18 2.72
									 51.18 C2.48 50.92 2.13 50.77 1.76 50.77 C1.39 50.77 1.04 50.94 0.81 51.18 C0.57 51.44 0.41 51.79
									 0.41 52.18 L0.41 52.97 L0.17 52.97 C0.09 52.97 0 53.05 0 53.14 L0 54.71 L0 55.19 C0 55.27 0.09
									 55.36 0.17 55.36 L3.33 55.36 C3.42 55.36 3.5 55.27 3.5 55.19 L3.5 53.14 C3.52 53.01 3.44 52.95
									 3.35 52.95 ZM2.48 52.95 L1.39 52.95 L1.07 52.95 L1.07 52.16 C1.07 51.94 1.15 51.75 1.28 51.6
									 C1.41 51.47 1.59 51.38 1.78 51.38 C1.98 51.38 2.15 51.47 2.28 51.6 C2.31 51.64 2.35 51.66 2.37
									 51.7 C2.46 51.84 2.5 51.99 2.5 52.16 C2.48 52.16 2.48 52.95 2.48 52.95 Z" class="st9"/>
					</g>
					<path d="M3.35 52.95 L3.11 52.95 L3.11 52.16 C3.11 51.79 2.98 51.44 2.74 51.2 C2.74 51.2 2.72 51.18 2.72 51.18
								 C2.48 50.92 2.13 50.77 1.76 50.77 C1.39 50.77 1.04 50.94 0.81 51.18 C0.57 51.44 0.41 51.79 0.41
								 52.18 L0.41 52.97 L0.17 52.97 C0.09 52.97 0 53.05 0 53.14 L0 54.71 L0 55.19 C0 55.27 0.09 55.36
								 0.17 55.36 L3.33 55.36 C3.42 55.36 3.5 55.27 3.5 55.19 L3.5 53.14 C3.52 53.01 3.44 52.95 3.35 52.95
								 ZM2.48 52.95 L1.39 52.95 L1.07 52.95 L1.07 52.16 C1.07 51.94 1.15 51.75 1.28 51.6 C1.41 51.47 1.59
								 51.38 1.78 51.38 C1.98 51.38 2.15 51.47 2.28 51.6 C2.31 51.64 2.35 51.66 2.37 51.7 C2.46 51.84 2.5
								 51.99 2.5 52.16 C2.48 52.16 2.48 52.95 2.48 52.95 Z" class="st12"/>
				</g>
			</g>
		</g>
	</g>
</svg>
