<?xml version="1.0" encoding="UTF-8" standalone="no"?>
<!DOCTYPE svg PUBLIC "-//W3C//DTD SVG 1.1//EN" "http://www.w3.org/Graphics/SVG/1.1/DTD/svg11.dtd">
<!-- Generated by Microsoft Visio, SVG Export Drawing1.svg Page-1 -->
<svg xmlns="http://www.w3.org/2000/svg" xmlns:xlink="http://www.w3.org/1999/xlink" xmlns:ev="http://www.w3.org/2001/xml-events"
		xmlns:v="http://schemas.microsoft.com/visio/2003/SVGExtensions/" width="0.560116in" height="0.68908in"
		viewBox="0 0 40.3284 49.6137" xml:space="preserve" color-interpolation-filters="sRGB" class="st8">
	<v:documentProperties v:langID="1033" v:viewMarkup="false"/>

	<style type="text/css">
	<![CDATA[
		.st1 {fill:#3999c6;stroke:none;stroke-linecap:round;stroke-linejoin:round;stroke-width:0.75}
		.st2 {fill:#7fba00;stroke:none;stroke-linecap:round;stroke-linejoin:round;stroke-width:0.75}
		.st3 {fill:#3999c6;stroke:none;stroke-width:0.75}
		.st4 {fill:#59b4d9;fill-opacity:0.4;stroke:none;stroke-width:0.75}
		.st5 {fill:#ffffff;fill-opacity:0.3;stroke:none;stroke-width:0.75}
		.st6 {fill:#ffffff;fill-opacity:0.7;stroke:none;stroke-width:0.75}
		.st7 {fill:#3e3e3e;stroke:none;stroke-width:0.75}
		.st8 {fill:none;fill-rule:evenodd;font-size:12px;overflow:visible;stroke-linecap:square;stroke-miterlimit:3}
	]]>
	</style>

	<g v:mID="0" v:index="1" v:groupContext="foregroundPage">
		<title>Page-1</title>
		<v:pageProperties v:drawingScale="1" v:pageScale="1" v:drawingUnits="19" v:shadowOffsetX="9" v:shadowOffsetY="-9"/>
		<g id="group2-1" v:mID="2" v:groupContext="group">
			<title>Networking/VNET Integration</title>
			<g id="shape3-2" v:mID="3" v:groupContext="shape" transform="translate(28.1023,7.10543E-15)">
				<title>Sheet.3</title>
				<path d="M12.23 38.68 L9.84 36.3 L1.39 28.01 L0 29.26 L9.58 38.68 L0 48.36 L1.39 49.61 L9.84 41.32 L12.23 38.68 L12.23
							 38.68 Z" class="st1"/>
			</g>
			<g id="shape4-4" v:mID="4" v:groupContext="shape">
				<title>Sheet.4</title>
				<path d="M0 38.68 L2.39 36.3 L10.84 28.01 L12.23 29.26 L2.65 38.68 L12.23 48.36 L10.84 49.61 L2.39 41.32 L0 38.68
							 L0 38.68 Z" class="st1"/>
			</g>
			<g id="shape5-6" v:mID="5" v:groupContext="shape" transform="translate(10.3292,-8.53197)">
				<title>Sheet.5</title>
				<path d="M4.93 47.21 C4.93 48.6 3.79 49.61 2.52 49.61 C1.26 49.61 0 48.47 0 47.21 C-0 45.96 1.02 44.83 2.52 44.83
							 C3.91 44.83 4.93 45.96 4.93 47.21 Z" class="st2"/>
			</g>
			<g id="shape6-8" v:mID="6" v:groupContext="shape" transform="translate(17.6457,-8.53197)">
				<title>Sheet.6</title>
				<path d="M4.91 47.21 C4.91 48.6 3.78 49.61 2.52 49.61 C1.26 49.61 0 48.47 0 47.21 C0 45.96 1.13 44.83 2.52 44.83
							 C3.91 44.83 4.91 45.96 4.91 47.21 Z" class="st2"/>
			</g>
			<g id="shape7-10" v:mID="7" v:groupContext="shape" transform="translate(25.2012,-8.53197)">
				<title>Sheet.7</title>
				<path d="M4.8 47.21 C4.8 45.9 3.71 44.83 2.39 44.83 C1.08 44.83 0 45.9 0 47.21 C-0 48.53 1.08 49.61 2.39 49.61 C3.71
							 49.61 4.8 48.53 4.8 47.21 Z" class="st2"/>
			</g>
		</g>
		<g id="group8-12" transform="translate(8.75163,-17.7443)" v:mID="8" v:groupContext="group">
			<title>Network Security Group</title>
			<g id="shape9-13" v:mID="9" v:groupContext="shape">
				<title>Sheet.9</title>
				<path d="M19.46 22.24 C12.6 21.49 11.41 18.49 11.41 18.49 C11.41 18.49 9.85 22.36 0 22.36 L0 38.33 C0 40.26 1.06
							 42.07 2.56 43.63 C5.92 47.18 11.41 49.61 11.41 49.61 C11.41 49.61 22.83 44.62 22.83 38.33 L22.83 22.36
							 C21.58 22.36 20.46 22.3 19.46 22.24 Z" class="st3"/>
			</g>
			<g id="shape10-15" v:mID="10" v:groupContext="shape" transform="translate(0,-5.98692)">
				<title>Sheet.10</title>
				<path d="M14.28 34.77 L19.46 28.22 C12.6 27.47 11.41 24.48 11.41 24.48 C11.41 24.48 9.85 28.35 0 28.35 L0 44.31 C0
							 46.25 1.06 48.05 2.56 49.61 L6.42 44.75 L14.28 34.77 Z" class="st4"/>
			</g>
			<g id="group11-17" transform="translate(2.30746,-3.11819)" v:mID="11" v:groupContext="group">
				<title>Sheet.11</title>
				<g id="shape12-18" v:mID="12" v:groupContext="shape" transform="translate(0.0623637,0)">
					<title>Sheet.12</title>
					<path d="M0 36.83 L0 40.63 C0 42.19 0.87 43.63 2.06 44.87 C4.74 47.74 9.11 49.61 9.11 49.61 L9.11 36.83 L0 36.83
								 Z" class="st5"/>
				</g>
				<g id="shape13-20" v:mID="13" v:groupContext="shape" transform="translate(9.1051,0)">
					<title>Sheet.13</title>
					<path d="M0 49.61 C0 49.61 9.11 45.62 9.11 40.63 L9.11 36.83 L0 36.83 L0 49.61 Z" class="st6"/>
				</g>
				<g id="shape14-22" v:mID="14" v:groupContext="shape" transform="translate(0,-12.7846)">
					<title>Sheet.14</title>
					<path d="M9.11 37.58 C9.11 37.58 7.86 40.7 0 40.7 L0 49.61 L9.11 49.61 L9.11 37.58 Z" class="st6"/>
				</g>
				<g id="shape15-24" v:mID="15" v:groupContext="shape" transform="translate(9.1051,-12.7846)">
					<title>Sheet.15</title>
					<path d="M6.36 40.57 C0.94 39.95 0 37.64 0 37.64 L0 49.61 L9.11 49.61 L9.11 40.7 C8.11 40.7 7.17 40.63 6.36 40.57
								 Z" class="st5"/>
				</g>
			</g>
			<g id="group16-26" transform="translate(3.12442,-12.7746)" v:mID="16" v:groupContext="group">
				<title>Sheet.16</title>
				<g id="shape17-27" v:mID="17" v:groupContext="shape" transform="translate(-8.14349E-14,-0.1029)">
					<title>Sheet.17</title>
					<path d="M5.18 49.61 L4.08 49.61 L1.15 45.12 C1.08 45.01 1.02 44.89 0.97 44.77 L0.95 44.77 C0.97 44.9 0.98 45.18
								 0.98 45.61 L0.98 49.61 L0 49.61 L0 43.5 L1.18 43.5 L4 47.89 C4.12 48.07 4.2 48.19 4.23 48.26 L4.25
								 48.26 C4.22 48.1 4.21 47.83 4.21 47.44 L4.21 43.5 L5.18 43.5 L5.18 49.61 Z" class="st7"/>
				</g>
				<g id="shape18-29" v:mID="18" v:groupContext="shape" transform="translate(6.41099,0)">
					<title>Sheet.18</title>
					<path d="M0 49.27 L0 48.22 C0.1 48.31 0.21 48.38 0.34 48.45 C0.47 48.52 0.61 48.58 0.75 48.63 C0.9 48.67 1.04
								 48.71 1.19 48.73 C1.33 48.76 1.46 48.77 1.59 48.77 C2.01 48.77 2.33 48.7 2.54 48.56 C2.75 48.42
								 2.85 48.21 2.85 47.94 C2.85 47.8 2.82 47.67 2.75 47.56 C2.68 47.46 2.58 47.36 2.46 47.27 C2.33 47.18
								 2.18 47.1 2.01 47.02 C1.85 46.94 1.66 46.85 1.47 46.76 C1.26 46.65 1.07 46.54 0.89 46.43 C0.71 46.31
								 0.56 46.19 0.42 46.05 C0.29 45.91 0.19 45.76 0.11 45.58 C0.04 45.41 0 45.21 0 44.97 C0 44.69 0.06
								 44.44 0.19 44.22 C0.32 44.01 0.49 43.84 0.71 43.7 C0.92 43.56 1.16 43.46 1.43 43.39 C1.7 43.33 1.97
								 43.29 2.26 43.29 C2.89 43.29 3.36 43.37 3.65 43.51 L3.65 44.51 C3.31 44.26 2.86 44.14 2.31 44.14
								 C2.16 44.14 2.01 44.15 1.87 44.18 C1.72 44.21 1.58 44.25 1.46 44.32 C1.35 44.39 1.25 44.47 1.18
								 44.57 C1.1 44.67 1.07 44.8 1.07 44.94 C1.07 45.08 1.09 45.2 1.15 45.3 C1.21 45.4 1.29 45.49 1.4
								 45.57 C1.51 45.65 1.64 45.73 1.8 45.81 C1.96 45.89 2.14 45.97 2.35 46.07 C2.56 46.18 2.76 46.29
								 2.95 46.42 C3.14 46.54 3.31 46.67 3.45 46.82 C3.6 46.97 3.71 47.13 3.79 47.31 C3.88 47.49 3.92 47.7
								 3.92 47.93 C3.92 48.24 3.86 48.5 3.73 48.71 C3.61 48.93 3.44 49.1 3.23 49.23 C3.01 49.37 2.77 49.46
								 2.49 49.52 C2.22 49.58 1.93 49.61 1.62 49.61 C1.52 49.61 1.39 49.61 1.24 49.59 C1.09 49.58 0.94
								 49.55 0.79 49.52 C0.63 49.49 0.48 49.46 0.34 49.41 C0.2 49.37 0.09 49.32 0 49.27 Z" class="st7"/>
				</g>
				<g id="shape19-31" v:mID="19" v:groupContext="shape" transform="translate(11.0583,-0.00124727)">
					<title>Sheet.19</title>
					<path d="M5.16 49.09 C4.53 49.44 3.82 49.61 3.04 49.61 C2.13 49.61 1.4 49.33 0.84 48.77 C0.28 48.21 0 47.46 0
								 46.54 C0 45.59 0.31 44.81 0.92 44.21 C1.53 43.6 2.31 43.3 3.25 43.3 C3.93 43.3 4.5 43.4 4.97 43.59
								 L4.97 44.64 C4.5 44.33 3.94 44.17 3.29 44.17 C2.64 44.17 2.11 44.38 1.69 44.81 C1.27 45.24 1.07
								 45.8 1.07 46.48 C1.07 47.18 1.24 47.73 1.6 48.14 C1.96 48.54 2.45 48.74 3.06 48.74 C3.48 48.74 3.85
								 48.66 4.15 48.5 L4.15 47.04 L2.86 47.04 L2.86 46.19 L5.16 46.19 C5.16 46.19 5.16 49.09 5.16 49.09
								 Z" class="st7"/>
				</g>
			</g>
		</g>
	</g>
</svg>
