<?xml version="1.0" encoding="UTF-8" standalone="no"?>
<!DOCTYPE svg PUBLIC "-//W3C//DTD SVG 1.1//EN" "http://www.w3.org/Graphics/SVG/1.1/DTD/svg11.dtd">
<!-- Generated by Microsoft Visio, SVG Export SubnetUnderAttack.svg Page-1 -->
<svg xmlns="http://www.w3.org/2000/svg" xmlns:xlink="http://www.w3.org/1999/xlink" xmlns:ev="http://www.w3.org/2001/xml-events"
		xmlns:v="http://schemas.microsoft.com/visio/2003/SVGExtensions/" width="0.656428in" height="0.300111in"
		viewBox="0 0 47.2628 21.608" xml:space="preserve" color-interpolation-filters="sRGB" class="st7">
	<v:documentProperties v:langID="1033" v:viewMarkup="false"/>

	<style type="text/css">
	<![CDATA[
		.st1 {fill:#3999c6;stroke:none;stroke-linecap:round;stroke-linejoin:round;stroke-width:0.75}
		.st2 {fill:#7fba00;stroke:none;stroke-linecap:round;stroke-linejoin:round;stroke-width:0.75}
		.st3 {fill:#ffffff;stroke:none;stroke-linecap:round;stroke-linejoin:round;stroke-width:0.75}
		.st4 {visibility:visible}
		.st5 {fill:#5b9bd5;fill-opacity:0.22;filter:url(#filter_2);stroke:none}
		.st6 {fill:#c00000;stroke:none;stroke-width:4.02632}
		.st7 {fill:none;fill-rule:evenodd;font-size:12px;overflow:visible;stroke-linecap:square;stroke-miterlimit:3}
	]]>
	</style>

	<defs id="Filters">
		<filter id="filter_2">
			<feGaussianBlur stdDeviation="2"/>
		</filter>
	</defs>
	<g v:mID="0" v:index="1" v:groupContext="foregroundPage">
		<title>Page-1</title>
		<v:pageProperties v:drawingScale="1" v:pageScale="1" v:drawingUnits="19" v:shadowOffsetX="9" v:shadowOffsetY="-9"/>
		<g id="group315-1" v:mID="315" v:groupContext="group">
			<title>Sheet.315</title>
			<g id="group74-2" v:mID="74" v:groupContext="group">
				<title>Networking/VNET Integration</title>
				<g id="shape75-3" v:mID="75" v:groupContext="shape" transform="translate(28.1023,7.10543E-15)">
					<title>Sheet.75</title>
					<path d="M12.23 10.68 L9.84 8.29 L1.39 0 L0 1.26 L9.58 10.68 L0 20.35 L1.39 21.61 L9.84 13.31 L12.23 10.68 L12.23
								 10.68 Z" class="st1"/>
				</g>
				<g id="shape76-5" v:mID="76" v:groupContext="shape">
					<title>Sheet.76</title>
					<path d="M0 10.68 L2.39 8.29 L10.84 0 L12.23 1.26 L2.65 10.68 L12.23 20.35 L10.84 21.61 L2.39 13.31 L0 10.68
								 L0 10.68 Z" class="st1"/>
				</g>
				<g id="shape77-7" v:mID="77" v:groupContext="shape" transform="translate(10.3292,-8.53197)">
					<title>Sheet.77</title>
					<path d="M4.93 19.21 C4.93 20.59 3.79 21.61 2.52 21.61 C1.26 21.61 0 20.46 0 19.21 C-0 17.95 1.02 16.83 2.52
								 16.83 C3.91 16.83 4.93 17.95 4.93 19.21 Z" class="st2"/>
				</g>
				<g id="shape78-9" v:mID="78" v:groupContext="shape" transform="translate(17.6457,-8.53197)">
					<title>Sheet.78</title>
					<path d="M4.91 19.21 C4.91 20.59 3.78 21.61 2.52 21.61 C1.26 21.61 0 20.46 0 19.21 C0 17.95 1.13 16.83 2.52 16.83
								 C3.91 16.83 4.91 17.95 4.91 19.21 Z" class="st2"/>
				</g>
				<g id="shape79-11" v:mID="79" v:groupContext="shape" transform="translate(25.2012,-8.53197)">
					<title>Sheet.79</title>
					<path d="M4.8 19.21 C4.8 17.89 3.71 16.83 2.39 16.83 C1.08 16.83 0 17.89 0 19.21 C-0 20.53 1.08 21.61 2.39 21.61
								 C3.71 21.61 4.8 20.53 4.8 19.21 Z" class="st2"/>
				</g>
			</g>
			<g id="group310-13" transform="translate(36,-6.74561)" v:mID="310" v:groupContext="group">
				<title>Sheet.310</title>
				<g id="shape308-14" v:mID="308" v:groupContext="shape" transform="translate(1.78758,-2.22067)">
					<title>Sheet.308</title>
					<rect x="0" y="16.4545" width="1.64632" height="5.15352" class="st3"/>
				</g>
				<g id="group221-16" v:mID="221" v:groupContext="group">
					<title>Alert</title>
					<g id="shape222-17" v:mID="222" v:groupContext="shape" transform="translate(-2.28333,-1.21389)">
						<title>Sheet.222</title>
						<g id="shadow222-18" v:groupContext="shadow" v:shadowOffsetX="0.3456" v:shadowOffsetY="-1.9728"
								v:shadowType="1" transform="matrix(1,0,0,1,0.3456,1.9728)" class="st4">
							<path d="M9.4 20.57 L7.44 17.38 L5.46 14.02 C5.15 13.49 4.54 13.49 4.23 14 L2.27 17.19 L0.31 20.57 C0
										 21.1 0.34 21.61 0.97 21.61 L4.86 21.61 L8.74 21.61 C9.4 21.58 9.71 21.08 9.4 20.57 ZM5.39
										 15.88 L5.24 18.71 L4.49 18.71 L4.35 15.88 L5.39 15.88 ZM4.86 20.45 C4.49 20.45 4.25 20.18
										 4.25 19.84 C4.25 19.48 4.49 19.24 4.86 19.24 C5.22 19.24 5.44 19.48 5.46 19.84 C5.46 20.18
										 5.22 20.45 4.86 20.45 Z" class="st5"/>
						</g>
						<path d="M9.4 20.57 L7.44 17.38 L5.46 14.02 C5.15 13.49 4.54 13.49 4.23 14 L2.27 17.19 L0.31 20.57 C0 21.1
									 0.34 21.61 0.97 21.61 L4.86 21.61 L8.74 21.61 C9.4 21.58 9.71 21.08 9.4 20.57 ZM5.39 15.88 L5.24
									 18.71 L4.49 18.71 L4.35 15.88 L5.39 15.88 ZM4.86 20.45 C4.49 20.45 4.25 20.18 4.25 19.84 C4.25
									 19.48 4.49 19.24 4.86 19.24 C5.22 19.24 5.44 19.48 5.46 19.84 C5.46 20.18 5.22 20.45 4.86 20.45
									 Z" class="st6"/>
					</g>
					<g id="group223-22" v:mID="223" v:groupContext="group">
						<title>Sheet.223</title>
					</g>
				</g>
			</g>
		</g>
	</g>
</svg>
