<?xml version="1.0" encoding="UTF-8" standalone="no"?>
<!DOCTYPE svg PUBLIC "-//W3C//DTD SVG 1.1//EN" "http://www.w3.org/Graphics/SVG/1.1/DTD/svg11.dtd">
<!-- Generated by Microsoft Visio, SVG Export subscriptionsandMFA.svg Page-1 -->
<svg xmlns="http://www.w3.org/2000/svg" xmlns:xlink="http://www.w3.org/1999/xlink" xmlns:ev="http://www.w3.org/2001/xml-events"
		xmlns:v="http://schemas.microsoft.com/visio/2003/SVGExtensions/" width="0.676483in" height="0.655857in"
		viewBox="0 0 48.7067 47.2217" xml:space="preserve" color-interpolation-filters="sRGB" class="st11">
	<v:documentProperties v:langID="1033" v:viewMarkup="false"/>

	<style type="text/css">
	<![CDATA[
		.st1 {fill:#ffc000;stroke:none;stroke-linecap:round;stroke-linejoin:round;stroke-width:0.75}
		.st2 {fill:#ffffff;stroke:none;stroke-linecap:round;stroke-linejoin:round;stroke-width:0.75}
		.st3 {fill:#bf9000;stroke:none;stroke-linecap:round;stroke-linejoin:round;stroke-width:0.75}
		.st4 {fill:#ffe699;stroke:none;stroke-linecap:round;stroke-linejoin:round;stroke-width:0.75}
		.st5 {visibility:visible}
		.st6 {fill:#5b9bd5;fill-opacity:0.22;filter:url(#filter_2);stroke:none}
		.st7 {fill:#b8d432;stroke:none;stroke-width:12.24}
		.st8 {fill:#3e3e3e;stroke:none;stroke-width:12.24}
		.st9 {fill:#ffffff;fill-opacity:0.15;stroke:none;stroke-width:12.24}
		.st10 {fill:#a5a5a5;stroke:none;stroke-linecap:round;stroke-linejoin:round;stroke-width:0.24}
		.st11 {fill:none;fill-rule:evenodd;font-size:12px;overflow:visible;stroke-linecap:square;stroke-miterlimit:3}
	]]>
	</style>

	<defs id="Filters">
		<filter id="filter_2">
			<feGaussianBlur stdDeviation="2"/>
		</filter>
	</defs>
	<g v:mID="0" v:index="1" v:groupContext="foregroundPage">
		<title>Page-1</title>
		<v:pageProperties v:drawingScale="0.0393701" v:pageScale="0.0393701" v:drawingUnits="24" v:shadowOffsetX="9"
				v:shadowOffsetY="-9"/>
		<g id="group22-1" transform="translate(7.99361E-14,-12.1985)" v:mID="22" v:groupContext="group">
			<title>Sheet.22</title>
			<g id="group1-2" transform="translate(-2.19824E-14,-0.0814519)" v:mID="1" v:groupContext="group">
				<title>Sheet.1</title>
				<g id="group2-3" transform="translate(0,-8.69935)" v:mID="2" v:groupContext="group">
					<title>Sheet.2</title>
					<g id="shape2-4" v:mID="2" v:groupContext="groupContent">
						<path d="M5.72 33.78 C6.44 33.07 7.6 33.07 8.31 33.79 L13.46 38.97 C14.18 39.68 14.17 40.84 13.46 41.55 L8.27
									 46.7 C7.56 47.41 6.4 47.41 5.69 46.69 L0.53 41.52 C-0.18 40.8 -0.18 39.64 0.54 38.93 L5.72 33.78
									 Z" class="st1"/>
					</g>
				</g>
				<g id="group3-6" transform="translate(4.58798,0)" v:mID="3" v:groupContext="group">
					<title>Sheet.3</title>
					<g id="shape3-7" v:mID="3" v:groupContext="groupContent">
						<path d="M4.28 31.1 L4.28 45.08 L2.14 47.22 L0 45.08 L0 31.1 L4.28 31.1 Z" class="st1"/>
					</g>
				</g>
				<g id="group4-9" transform="translate(5.37347,-18.0466)" v:mID="4" v:groupContext="group">
					<title>Sheet.4</title>
					<g id="shape4-10" v:mID="4" v:groupContext="groupContent">
						<path d="M0 45.65 C0 44.79 0.71 44.08 1.57 44.08 C2.44 44.08 3.14 44.79 3.14 45.65 C3.14 46.52 2.44 47.22
									 1.57 47.22 C0.71 47.22 0 46.52 0 45.65 Z" class="st2"/>
					</g>
				</g>
				<g id="group5-12" transform="translate(5.44488,-2.48638)" v:mID="5" v:groupContext="group">
					<title>Sheet.5</title>
					<g id="shape5-13" v:mID="5" v:groupContext="groupContent">
						<path d="M0 40.58 L0 47.22 L1.29 47.22 L1.29 40.58 L0 40.58 L0 40.58 Z" class="st3"/>
					</g>
				</g>
				<g id="group6-15" transform="translate(5.44488,-8.20298)" v:mID="6" v:groupContext="group">
					<title>Sheet.6</title>
					<g id="shape6-16" v:mID="6" v:groupContext="groupContent">
						<path d="M0 45.44 L1.29 46.33 L0 47.22 L0 45.44 Z" class="st3"/>
					</g>
				</g>
				<g id="group7-18" transform="translate(5.44279,-1.03764)" v:mID="7" v:groupContext="group">
					<title>Sheet.7</title>
					<g id="shape7-19" v:mID="7" v:groupContext="groupContent">
						<path d="M1.29 45.75 L1.29 47.22 L0 45.75 L1.29 45.75 Z" class="st3"/>
					</g>
				</g>
				<g id="group8-21" transform="translate(8.51543,-1.78326)" v:mID="8" v:groupContext="group">
					<title>Sheet.8</title>
					<g id="shape8-22" v:mID="8" v:groupContext="groupContent">
						<path d="M0 44.8 L1.57 45.69 L0 47.22 L0 44.8 Z" class="st1"/>
					</g>
				</g>
				<g id="group9-24" transform="translate(8.51543,-3.63784)" v:mID="9" v:groupContext="group">
					<title>Sheet.9</title>
					<g id="shape9-25" v:mID="9" v:groupContext="groupContent">
						<path d="M0 44.8 L1.57 46.01 L0 47.22 L0 44.8 Z" class="st1"/>
					</g>
				</g>
				<g id="group10-27" transform="translate(8.51543,-5.4211)" v:mID="10" v:groupContext="group">
					<title>Sheet.10</title>
					<g id="shape10-28" v:mID="10" v:groupContext="groupContent">
						<path d="M0 44.8 L1.57 46.01 L0 47.22 L0 44.8 Z" class="st1"/>
					</g>
				</g>
				<g id="group11-30" transform="translate(2.65996,-15.4787)" v:mID="11" v:groupContext="group">
					<title>Sheet.11</title>
					<g id="shape11-31" v:mID="11" v:groupContext="groupContent">
						<path d="M0 46.15 L0 47.22 L9.07 47.22 L9.07 46.15 L0 46.15 L0 46.15 Z" class="st4"/>
					</g>
				</g>
				<g id="group12-33" transform="translate(2.65996,-13.8381)" v:mID="12" v:groupContext="group">
					<title>Sheet.12</title>
					<g id="shape12-34" v:mID="12" v:groupContext="groupContent">
						<path d="M0 46.15 L0 47.22 L9.07 47.22 L9.07 46.15 L0 46.15 L0 46.15 Z" class="st4"/>
					</g>
				</g>
			</g>
			<g id="group17-36" transform="translate(25.8438,-1.42109E-14)" v:mID="17" v:groupContext="group">
				<title>Multi-factor Authentication</title>
				<g id="shape18-37" v:mID="18" v:groupContext="shape" transform="translate(2.63183,-20.374)">
					<title>Sheet.18</title>
					<g id="shadow18-38" v:groupContext="shadow" v:shadowOffsetX="0.3456" v:shadowOffsetY="-1.9728" v:shadowType="1"
							transform="matrix(1,0,0,1,0.3456,1.9728)" class="st5">
						<ellipse cx="1.27054" cy="46.4957" rx="1.27054" ry="0.726022" class="st6"/>
					</g>
					<ellipse cx="1.27054" cy="46.4957" rx="1.27054" ry="0.726022" class="st7"/>
				</g>
				<g id="shape19-42" v:mID="19" v:groupContext="shape">
					<title>Sheet.19</title>
					<g id="shadow19-43" v:groupContext="shadow" v:shadowOffsetX="0.3456" v:shadowOffsetY="-1.9728" v:shadowType="1"
							transform="matrix(1,0,0,1,0.3456,1.9728)" class="st5">
						<path d="M8.44 34.56 L2.22 35.33 L1.41 28.8 C1.36 28.25 1.72 27.8 2.27 27.76 L5.85 27.3 C6.4 27.26 6.85 27.57
									 6.94 28.12 L7.53 32.84 C7.58 33.11 7.8 33.29 8.08 33.25 C8.35 33.2 8.53 32.97 8.49 32.7 L7.58
									 25.26 C7.53 24.71 7.03 24.4 6.49 24.44 L0.95 25.17 C0.41 25.21 0 25.67 0.09 26.21 L1.23 35.33
									 C1.23 35.42 1.27 35.47 1.27 35.56 C1 35.74 0.86 36.06 0.91 36.38 L2.18 46.36 C2.22 46.86 2.72
									 47.22 3.18 47.18 L9.89 46.27 C10.39 46.22 10.66 45.72 10.62 45.23 L9.35 35.24 C9.3 34.79 8.89
									 34.52 8.44 34.56 ZM3.49 25.8 L4.27 25.71 C4.45 25.67 4.63 25.8 4.63 25.99 C4.67 26.17 4.54 26.35
									 4.36 26.35 L3.58 26.44 C3.4 26.48 3.22 26.35 3.22 26.17 C3.18 25.99 3.31 25.85 3.49 25.8 ZM6.26
									 40.14 L6.44 41.73 L5.26 41.87 L5.04 40.23 C4.67 40.05 4.31 39.69 4.22 39.19 C4.13 38.46 4.63
									 37.83 5.35 37.74 C6.08 37.65 6.72 38.15 6.81 38.87 C6.9 39.42 6.76 39.87 6.26 40.14 Z"
								class="st6"/>
					</g>
					<path d="M8.44 34.56 L2.22 35.33 L1.41 28.8 C1.36 28.25 1.72 27.8 2.27 27.76 L5.85 27.3 C6.4 27.26 6.85 27.57
								 6.94 28.12 L7.53 32.84 C7.58 33.11 7.8 33.29 8.08 33.25 C8.35 33.2 8.53 32.97 8.49 32.7 L7.58 25.26
								 C7.53 24.71 7.03 24.4 6.49 24.44 L0.95 25.17 C0.41 25.21 0 25.67 0.09 26.21 L1.23 35.33 C1.23 35.42
								 1.27 35.47 1.27 35.56 C1 35.74 0.86 36.06 0.91 36.38 L2.18 46.36 C2.22 46.86 2.72 47.22 3.18 47.18
								 L9.89 46.27 C10.39 46.22 10.66 45.72 10.62 45.23 L9.35 35.24 C9.3 34.79 8.89 34.52 8.44 34.56 ZM3.49
								 25.8 L4.27 25.71 C4.45 25.67 4.63 25.8 4.63 25.99 C4.67 26.17 4.54 26.35 4.36 26.35 L3.58 26.44
								 C3.4 26.48 3.22 26.35 3.22 26.17 C3.18 25.99 3.31 25.85 3.49 25.8 ZM6.26 40.14 L6.44 41.73 L5.26
								 41.87 L5.04 40.23 C4.67 40.05 4.31 39.69 4.22 39.19 C4.13 38.46 4.63 37.83 5.35 37.74 C6.08 37.65
								 6.72 38.15 6.81 38.87 C6.9 39.42 6.76 39.87 6.26 40.14 Z" class="st8"/>
				</g>
				<g id="shape20-47" v:mID="20" v:groupContext="shape" transform="translate(0,-4.76452)">
					<title>Sheet.20</title>
					<g id="shadow20-48" v:groupContext="shadow" v:shadowOffsetX="0.3456" v:shadowOffsetY="-1.9728" v:shadowType="1"
							transform="matrix(1,0,0,1,0.3456,1.9728)" class="st5">
						<path d="M1.23 40.05 C1.23 40.14 1.27 40.19 1.27 40.28 C1 40.46 0.86 40.78 0.91 41.1 L1.68 47.22 L4.67 39.83
									 L2.22 40.1 L1.41 33.56 C1.36 33.02 1.72 32.57 2.27 32.52 L5.85 32.07 C6.4 32.02 6.85 32.34 6.94
									 32.88 L7.08 33.88 L7.85 32.02 L7.62 30.07 C7.58 29.52 7.08 29.21 6.53 29.25 L0.95 29.93 C0.41
									 29.98 0 30.43 0.09 30.98 L1.23 40.05 ZM3.49 30.57 L4.27 30.48 C4.45 30.43 4.63 30.57 4.63 30.75
									 C4.67 30.93 4.54 31.11 4.36 31.11 L3.58 31.2 C3.4 31.25 3.22 31.11 3.22 30.93 C3.18 30.75 3.31
									 30.61 3.49 30.57 Z" class="st6"/>
					</g>
					<path d="M1.23 40.05 C1.23 40.14 1.27 40.19 1.27 40.28 C1 40.46 0.86 40.78 0.91 41.1 L1.68 47.22 L4.67 39.83
								 L2.22 40.1 L1.41 33.56 C1.36 33.02 1.72 32.57 2.27 32.52 L5.85 32.07 C6.4 32.02 6.85 32.34 6.94
								 32.88 L7.08 33.88 L7.85 32.02 L7.62 30.07 C7.58 29.52 7.08 29.21 6.53 29.25 L0.95 29.93 C0.41 29.98
								 0 30.43 0.09 30.98 L1.23 40.05 ZM3.49 30.57 L4.27 30.48 C4.45 30.43 4.63 30.57 4.63 30.75 C4.67
								 30.93 4.54 31.11 4.36 31.11 L3.58 31.2 C3.4 31.25 3.22 31.11 3.22 30.93 C3.18 30.75 3.31 30.61 3.49
								 30.57 Z" class="st9"/>
				</g>
			</g>
			<g id="shape21-52" v:mID="21" v:groupContext="shape" transform="translate(12.9219,-4.37259)">
				<title>Plus</title>
				<v:userDefs>
					<v:ud v:nameU="visVersion" v:prompt="" v:val="VT0(15):26"/>
				</v:userDefs>
				<path d="M6.4 40.82 L6.4 37.62 L4.27 37.62 L4.27 40.82 L1.07 40.82 L1.07 42.96 L4.27 42.96 L4.27 46.16 L6.4 46.16
							 L6.4 42.96 L9.6 42.96 L9.6 40.82 L6.4 40.82 Z" class="st10"/>
			</g>
		</g>
	</g>
</svg>
