<?xml version="1.0" encoding="UTF-8" standalone="no"?>
<!DOCTYPE svg PUBLIC "-//W3C//DTD SVG 1.1//EN" "http://www.w3.org/Graphics/SVG/1.1/DTD/svg11.dtd">
<!-- Generated by Microsoft Visio, SVG Export subscriptions.svg Page-1 -->
<svg xmlns="http://www.w3.org/2000/svg" xmlns:xlink="http://www.w3.org/1999/xlink" xmlns:ev="http://www.w3.org/2001/xml-events"
		xmlns:v="http://schemas.microsoft.com/visio/2003/SVGExtensions/" width="0.737157in" height="0.734893in"
		viewBox="0 0 53.0753 52.9123" xml:space="preserve" color-interpolation-filters="sRGB" class="st5">
	<v:documentProperties v:langID="1033" v:viewMarkup="false"/>

	<style type="text/css">
	<![CDATA[
		.st1 {fill:#ffffff;stroke:none;stroke-linecap:round;stroke-linejoin:round;stroke-width:0.75}
		.st2 {fill:#ffc000;stroke:none;stroke-linecap:round;stroke-linejoin:round;stroke-width:0.75}
		.st3 {fill:#bf9000;stroke:none;stroke-linecap:round;stroke-linejoin:round;stroke-width:0.75}
		.st4 {fill:#ffe699;stroke:none;stroke-linecap:round;stroke-linejoin:round;stroke-width:0.75}
		.st5 {fill:none;fill-rule:evenodd;font-size:12px;overflow:visible;stroke-linecap:square;stroke-miterlimit:3}
	]]>
	</style>

	<g v:mID="0" v:index="1" v:groupContext="foregroundPage">
		<title>Page-1</title>
		<v:pageProperties v:drawingScale="0.0393701" v:pageScale="0.0393701" v:drawingUnits="24" v:shadowOffsetX="9"
				v:shadowOffsetY="-9"/>
		<g id="group16-1" transform="translate(0.375,-0.375)" v:mID="16" v:groupContext="group">
			<title>Sheet.16</title>
			<g id="shape13-2" v:mID="13" v:groupContext="shape">
				<title>Sheet.13</title>
				<rect x="0" y="0.750002" width="52.3253" height="52.1623" class="st1"/>
			</g>
			<g id="group1-4" transform="translate(16.8602,-11.021)" v:mID="1" v:groupContext="group">
				<title>Sheet.1</title>
				<g id="group2-5" transform="translate(0,-11.5627)" v:mID="2" v:groupContext="group">
					<title>Sheet.2</title>
					<g id="shape2-6" v:mID="2" v:groupContext="groupContent">
						<path d="M7.6 35.05 C8.56 34.1 10.1 34.11 11.05 35.05 L17.9 41.94 C18.85 42.89 18.84 44.43 17.88 45.37 L11
									 52.22 C10.05 53.16 8.51 53.16 7.56 52.21 L0.71 45.33 C-0.24 44.38 -0.24 42.84 0.72 41.89 L7.6
									 35.05 Z" class="st2"/>
					</g>
				</g>
				<g id="group3-8" transform="translate(6.09807,0)" v:mID="3" v:groupContext="group">
					<title>Sheet.3</title>
					<g id="shape3-9" v:mID="3" v:groupContext="groupContent">
						<path d="M5.69 31.49 L5.69 50.07 L2.85 52.91 L0 50.07 L0 31.49 L5.69 31.49 Z" class="st2"/>
					</g>
				</g>
				<g id="group4-11" transform="translate(7.1421,-23.9864)" v:mID="4" v:groupContext="group">
					<title>Sheet.4</title>
					<g id="shape4-12" v:mID="4" v:groupContext="groupContent">
						<path d="M0 50.83 C0 49.68 0.94 48.74 2.09 48.74 C3.24 48.74 4.18 49.68 4.18 50.83 C4.18 51.98 3.24 52.91
									 2.09 52.91 C0.94 52.91 0 51.98 0 50.83 Z" class="st1"/>
					</g>
				</g>
				<g id="group5-14" transform="translate(7.23701,-3.30475)" v:mID="5" v:groupContext="group">
					<title>Sheet.5</title>
					<g id="shape5-15" v:mID="5" v:groupContext="groupContent">
						<path d="M0 44.08 L0 52.91 L1.71 52.91 L1.71 44.08 L0 44.08 L0 44.08 Z" class="st3"/>
					</g>
				</g>
				<g id="group6-17" transform="translate(7.23701,-10.9029)" v:mID="6" v:groupContext="group">
					<title>Sheet.6</title>
					<g id="shape6-18" v:mID="6" v:groupContext="groupContent">
						<path d="M0 50.54 L1.71 51.73 L0 52.91 L0 50.54 Z" class="st3"/>
					</g>
				</g>
				<g id="group7-20" transform="translate(7.23423,-1.37917)" v:mID="7" v:groupContext="group">
					<title>Sheet.7</title>
					<g id="shape7-21" v:mID="7" v:groupContext="groupContent">
						<path d="M1.71 50.96 L1.71 52.91 L0 50.96 L1.71 50.96 Z" class="st3"/>
					</g>
				</g>
				<g id="group8-23" transform="translate(11.3182,-2.3702)" v:mID="8" v:groupContext="group">
					<title>Sheet.8</title>
					<g id="shape8-24" v:mID="8" v:groupContext="groupContent">
						<path d="M0 49.69 L2.09 50.87 L0 52.91 L0 49.69 Z" class="st2"/>
					</g>
				</g>
				<g id="group9-26" transform="translate(11.3182,-4.8352)" v:mID="9" v:groupContext="group">
					<title>Sheet.9</title>
					<g id="shape9-27" v:mID="9" v:groupContext="groupContent">
						<path d="M0 49.69 L2.09 51.3 L0 52.91 L0 49.69 Z" class="st2"/>
					</g>
				</g>
				<g id="group10-29" transform="translate(11.3182,-7.2054)" v:mID="10" v:groupContext="group">
					<title>Sheet.10</title>
					<g id="shape10-30" v:mID="10" v:groupContext="groupContent">
						<path d="M0 49.69 L2.09 51.3 L0 52.91 L0 49.69 Z" class="st2"/>
					</g>
				</g>
				<g id="group11-32" transform="translate(3.53546,-20.5733)" v:mID="11" v:groupContext="group">
					<title>Sheet.11</title>
					<g id="shape11-33" v:mID="11" v:groupContext="groupContent">
						<path d="M0 51.49 L0 52.91 L12.05 52.91 L12.05 51.49 L0 51.49 L0 51.49 Z" class="st4"/>
					</g>
				</g>
				<g id="group12-35" transform="translate(3.53546,-18.3927)" v:mID="12" v:groupContext="group">
					<title>Sheet.12</title>
					<g id="shape12-36" v:mID="12" v:groupContext="groupContent">
						<path d="M0 51.49 L0 52.91 L12.05 52.91 L12.05 51.49 L0 51.49 L0 51.49 Z" class="st4"/>
					</g>
				</g>
			</g>
		</g>
	</g>
</svg>
