<?xml version="1.0" encoding="UTF-8" standalone="no"?>
<!DOCTYPE svg PUBLIC "-//W3C//DTD SVG 1.1//EN" "http://www.w3.org/Graphics/SVG/1.1/DTD/svg11.dtd">
<!-- Generated by Microsoft Visio, SVG Export UbuntuLogo.svg Page-1 -->
<svg xmlns="http://www.w3.org/2000/svg" xmlns:xlink="http://www.w3.org/1999/xlink" xmlns:ev="http://www.w3.org/2001/xml-events"
		xmlns:v="http://schemas.microsoft.com/visio/2003/SVGExtensions/" width="0.7573in" height="0.186681in"
		viewBox="0 0 54.5256 13.441" xml:space="preserve" color-interpolation-filters="sRGB" class="st4">
	<v:documentProperties v:langID="1033" v:viewMarkup="false"/>

	<style type="text/css">
	<![CDATA[
		.st1 {fill:#231f20;stroke:none;stroke-linecap:butt;stroke-width:0.75}
		.st2 {fill:#f47421;stroke:none;stroke-linecap:butt;stroke-width:0.55}
		.st3 {fill:#ffffff;stroke:none;stroke-linecap:butt;stroke-width:0.55}
		.st4 {fill:none;fill-rule:evenodd;font-size:12px;overflow:visible;stroke-linecap:square;stroke-miterlimit:3}
	]]>
	</style>

	<g v:mID="0" v:index="1" v:groupContext="foregroundPage">
		<title>Page-1</title>
		<v:pageProperties v:drawingScale="1" v:pageScale="1" v:drawingUnits="19" v:shadowOffsetX="9" v:shadowOffsetY="-9"/>
		<g id="group339-1" transform="translate(0.75,-0.75)" v:mID="339" v:groupContext="group">
			<title>Sheet.339</title>
			<g id="shape340-2" v:mID="340" v:groupContext="shape">
				<title>text</title>
				<path d="M40.52 5.4 L40.52 10.32 C40.52 11.58 41.13 12.28 42.34 12.28 C42.67 12.28 42.99 12.26 43.3 12.23 C43.62
							 12.21 43.89 12.16 44.11 12.11 L44.11 5.4 L45.54 5.4 L45.54 13 C45.11 13.15 44.61 13.26 44.05 13.33 C43.49
							 13.4 42.92 13.44 42.34 13.44 C41.27 13.44 40.46 13.1 39.91 12.56 C39.35 12.03 39.07 11.21 39.07 10.12
							 L39.07 5.4 L40.52 5.4 ZM18.3 5.4 L18.3 10.32 C18.3 11.58 18.91 12.28 20.12 12.28 C20.45 12.28 20.77
							 12.26 21.08 12.23 C21.4 12.21 21.67 12.16 21.89 12.11 L21.89 5.4 L23.32 5.4 L23.32 13 C22.89 13.15 22.39
							 13.26 21.83 13.33 C21.26 13.4 20.7 13.44 20.12 13.44 C19.05 13.44 18.24 13.1 17.68 12.56 C17.13 12.03
							 16.85 11.21 16.85 10.12 L16.85 5.4 L18.3 5.4 ZM34.64 2.86 L33.35 3.1 L33.34 10.92 C33.34 12.43 34.16
							 13.41 35.94 13.41 C36.38 13.41 37.24 13.29 37.74 13.21 L37.57 12.19 C37.56 12.23 36.43 12.35 35.83 12.31
							 C35.23 12.28 34.68 11.79 34.63 11.28 L34.63 6.55 L37.61 6.55 L37.61 5.4 L34.63 5.4 L34.64 2.86 L34.64
							 2.86 ZM9.81 1.5 L8.36 1.73 L8.36 13 C9.22 13.29 10.12 13.44 11.08 13.44 C11.24 13.44 11.4 13.44 11.55
							 13.42 L11.55 13.42 C14.38 13.43 15.84 11.19 15.46 8.59 C15.17 6.76 13.64 5.21 11.86 5.21 C11.15 5.21
							 10.59 5.4 10.17 5.55 C10.04 5.6 9.92 5.65 9.81 5.7 L9.81 1.5 L9.81 1.5 L9.81 1.5 L9.81 1.5 ZM11.85 6.37
							 C13.44 6.45 14.07 7.85 14.12 9.22 C14.19 11.11 12.88 12.43 11.1 12.28 C10.7 12.24 10.26 12.23 9.81 12.12
							 L9.81 6.94 C10 6.78 10.22 6.65 10.45 6.56 C10.79 6.43 11.25 6.34 11.85 6.37 ZM26.72 13.24 L25.27 13.24
							 L25.27 5.72 C25.71 5.56 26.2 5.45 26.73 5.39 C27.28 5.31 27.84 5.27 28.41 5.27 C30.55 5.27 31.63 6.34
							 31.63 8.47 L31.63 13.24 L30.19 13.24 L30.19 8.27 C30.19 7.05 29.6 6.43 28.41 6.43 C28.1 6.43 27.79 6.45
							 27.49 6.48 C27.2 6.51 26.94 6.54 26.72 6.59 L26.72 13.24 ZM1.45 5.4 L1.45 10.32 C1.45 11.58 2.06 12.28
							 3.27 12.28 C3.6 12.28 3.92 12.26 4.23 12.23 C4.55 12.21 4.81 12.16 5.03 12.11 L5.03 5.4 L6.47 5.4 L6.47
							 13 C6.04 13.15 5.54 13.26 4.98 13.33 C4.41 13.4 3.84 13.44 3.27 13.44 C2.2 13.44 1.39 13.1 0.83 12.56
							 C0.28 12.03 0 11.21 0 10.12 L0 5.4 L1.45 5.4 Z" class="st1"/>
			</g>
			<g id="group341-4" transform="translate(47.1162,-5.09111)" v:mID="341" v:groupContext="group">
				<title>logo</title>
				<g id="shape342-5" v:mID="342" v:groupContext="shape">
					<title>roundel</title>
					<path d="M6.11 10.39 C6.11 12.07 4.74 13.44 3.05 13.44 C1.37 13.44 0 12.07 0 10.39 C0 8.7 1.37 7.33 3.05 7.33
								 C4.74 7.33 6.11 8.7 6.11 10.39 Z" class="st2"/>
				</g>
				<g id="shape343-7" v:mID="343" v:groupContext="shape" transform="translate(0.569711,-0.790095)">
					<title>circle-of-friends</title>
					<path d="M3.32 9.73 C3.51 9.84 3.76 9.78 3.88 9.58 C3.99 9.39 3.92 9.14 3.73 9.02 C3.53 8.91 3.28 8.98 3.17 9.17
								 C3.06 9.37 3.12 9.62 3.32 9.73 ZM2.48 12.37 C2.31 12.37 2.14 12.33 1.98 12.26 L1.7 12.76 C1.94 12.88
								 2.2 12.95 2.48 12.95 C2.65 12.95 2.81 12.93 2.96 12.88 C2.98 12.72 3.08 12.57 3.24 12.48 C3.39 12.39
								 3.57 12.38 3.73 12.44 C4.03 12.14 4.22 11.74 4.25 11.29 L3.67 11.28 C3.62 11.89 3.11 12.37 2.48
								 12.37 ZM2.48 9.99 C3.11 9.99 3.62 10.46 3.67 11.07 L4.25 11.06 C4.22 10.61 4.03 10.21 3.73 9.91
								 C3.57 9.97 3.39 9.96 3.24 9.87 C3.08 9.78 2.98 9.63 2.96 9.47 C2.81 9.43 2.65 9.4 2.48 9.4 C2.2
								 9.4 1.94 9.47 1.7 9.59 L1.98 10.1 C2.14 10.02 2.31 9.99 2.48 9.99 L2.48 9.99 ZM1.29 11.18 C1.29
								 10.77 1.49 10.42 1.8 10.2 L1.5 9.7 C1.15 9.94 0.88 10.31 0.77 10.73 C0.9 10.84 0.98 11 0.98 11.18
								 C0.98 11.36 0.9 11.52 0.77 11.62 C0.88 12.05 1.15 12.41 1.5 12.65 L1.8 12.15 C1.49 11.94 1.29 11.58
								 1.29 11.18 ZM3.32 12.62 C3.12 12.73 3.06 12.98 3.17 13.18 C3.28 13.37 3.53 13.44 3.73 13.33 C3.92
								 13.22 3.99 12.97 3.88 12.77 C3.76 12.58 3.51 12.51 3.32 12.62 ZM0.41 10.77 C0.18 10.77 0 10.95 0
								 11.18 C0 11.4 0.18 11.58 0.41 11.58 C0.63 11.58 0.82 11.4 0.82 11.18 C0.82 10.95 0.63 10.77 0.41
								 10.77 Z" class="st3"/>
				</g>
			</g>
		</g>
	</g>
</svg>
