<?xml version="1.0" encoding="UTF-8" standalone="no"?>
<!DOCTYPE svg PUBLIC "-//W3C//DTD SVG 1.1//EN" "http://www.w3.org/Graphics/SVG/1.1/DTD/svg11.dtd">
<!-- Generated by Microsoft Visio, SVG Export UnderAttack.svg Page-1 -->
<svg xmlns="http://www.w3.org/2000/svg" xmlns:xlink="http://www.w3.org/1999/xlink" xmlns:ev="http://www.w3.org/2001/xml-events"
		xmlns:v="http://schemas.microsoft.com/visio/2003/SVGExtensions/" width="0.963541in" height="0.955729in"
		viewBox="0 0 69.375 68.8125" xml:space="preserve" color-interpolation-filters="sRGB" class="st13">
	<v:documentProperties v:langID="1033" v:viewMarkup="false"/>

	<style type="text/css">
	<![CDATA[
		.st1 {fill:#ffffff;stroke:none;stroke-linecap:round;stroke-linejoin:round;stroke-width:0.75}
		.st2 {visibility:visible}
		.st3 {fill:#5b9bd5;fill-opacity:0.22;filter:url(#filter_2);stroke:none}
		.st4 {fill:#7a7a7a;stroke:none;stroke-width:12.24}
		.st5 {fill:#a0a1a2;stroke:none;stroke-width:12.24}
		.st6 {fill:#ffffff;fill-opacity:0.2;stroke:none;stroke-width:12.24}
		.st7 {fill:#59b4d9;stroke:none;stroke-width:12.24}
		.st8 {fill:#b8d432;stroke:none;stroke-width:12.24}
		.st9 {fill:#ffffff;stroke:none;stroke-width:12.24}
		.st10 {fill:#ffffff;fill-opacity:0.7;stroke:none;stroke-width:12.24}
		.st11 {fill:#ffffff;fill-opacity:0.4;stroke:none;stroke-width:12.24}
		.st12 {fill:#c00000;stroke:none;stroke-width:4.02632}
		.st13 {fill:none;fill-rule:evenodd;font-size:12px;overflow:visible;stroke-linecap:square;stroke-miterlimit:3}
	]]>
	</style>

	<defs id="Filters">
		<filter id="filter_2">
			<feGaussianBlur stdDeviation="2"/>
		</filter>
	</defs>
	<g v:mID="0" v:index="1" v:groupContext="foregroundPage">
		<title>Page-1</title>
		<v:pageProperties v:drawingScale="1" v:pageScale="1" v:drawingUnits="19" v:shadowOffsetX="9" v:shadowOffsetY="-9"/>
		<g id="group314-1" transform="translate(0.375,-0.375)" v:mID="314" v:groupContext="group">
			<title>Sheet.314</title>
			<g id="shape312-2" v:mID="312" v:groupContext="shape">
				<title>Sheet.312</title>
				<rect x="0" y="0.749998" width="68.625" height="68.0625" class="st1"/>
			</g>
			<g id="group311-4" transform="translate(17.8563,-19.8459)" v:mID="311" v:groupContext="group">
				<title>Sheet.311</title>
				<g id="group198-5" v:mID="198" v:groupContext="group">
					<title>Azure Portal - Virtual Machines</title>
					<g id="shape199-6" v:mID="199" v:groupContext="shape" transform="translate(5.32077,0)">
						<title>Sheet.199</title>
						<g id="shadow199-7" v:groupContext="shadow" v:shadowOffsetX="0.3456" v:shadowOffsetY="-1.9728"
								v:shadowType="1" transform="matrix(1,0,0,1,0.3456,1.9728)" class="st2">
							<path d="M14.61 62.9 L13.88 62.9 L6.63 62.9 L6.26 62.9 C7.26 66.45 5.91 66.96 0 66.96 L0 68.81 L7.52
										 68.81 L13 68.81 L20.1 68.81 L20.1 66.96 C14.19 66.96 13.61 66.45 14.61 62.9 Z" class="st3"/>
						</g>
						<path d="M14.61 62.9 L13.88 62.9 L6.63 62.9 L6.26 62.9 C7.26 66.45 5.91 66.96 0 66.96 L0 68.81 L7.52 68.81
									 L13 68.81 L20.1 68.81 L20.1 66.96 C14.19 66.96 13.61 66.45 14.61 62.9 Z" class="st4"/>
					</g>
					<g id="shape200-11" v:mID="200" v:groupContext="shape" transform="translate(0.000614763,-5.90971)">
						<title>Sheet.200</title>
						<g id="shadow200-12" v:groupContext="shadow" v:shadowOffsetX="0.3456" v:shadowOffsetY="-1.9728"
								v:shadowType="1" transform="matrix(1,0,0,1,0.3456,1.9728)" class="st2">
							<path d="M28.88 46.35 L1.67 46.35 C0.75 46.35 0 47.18 0 48.1 L0 67.08 C0 67.99 0.75 68.81 1.67 68.81
										 L28.88 68.81 C29.8 68.81 30.74 67.99 30.74 67.08 L30.74 48.1 C30.74 47.18 29.8 46.35 28.88
										 46.35 Z" class="st3"/>
						</g>
						<path d="M28.88 46.35 L1.67 46.35 C0.75 46.35 0 47.18 0 48.1 L0 67.08 C0 67.99 0.75 68.81 1.67 68.81 L28.88
									 68.81 C29.8 68.81 30.74 67.99 30.74 67.08 L30.74 48.1 C30.74 47.18 29.8 46.35 28.88 46.35 Z"
								class="st5"/>
					</g>
					<g id="shape201-16" v:mID="201" v:groupContext="shape" transform="translate(0,-5.9091)">
						<title>Sheet.201</title>
						<g id="shadow201-17" v:groupContext="shadow" v:shadowOffsetX="0.3456" v:shadowOffsetY="-1.9728"
								v:shadowType="1" transform="matrix(1,0,0,1,0.3456,1.9728)" class="st2">
							<path d="M28.9 46.35 C28.89 46.35 28.89 46.35 28.88 46.35 L1.67 46.35 C0.75 46.35 0 47.18 0 48.1 L0 67.08
										 C0 67.99 0.75 68.81 1.67 68.81 L2.32 68.81 L28.9 46.35 Z" class="st3"/>
						</g>
						<path d="M28.9 46.35 C28.89 46.35 28.89 46.35 28.88 46.35 L1.67 46.35 C0.75 46.35 0 47.18 0 48.1 L0 67.08
									 C0 67.99 0.75 68.81 1.67 68.81 L2.32 68.81 L28.9 46.35 Z" class="st6"/>
					</g>
					<g id="shape202-21" v:mID="202" v:groupContext="shape" transform="translate(2.32995,-8.27471)">
						<title>Sheet.202</title>
						<g id="shadow202-22" v:groupContext="shadow" v:shadowOffsetX="0.3456" v:shadowOffsetY="-1.9728"
								v:shadowType="1" transform="matrix(1,0,0,1,0.3456,1.9728)" class="st2">
							<rect x="0" y="51.0821" width="26.0094" height="17.7304" class="st3"/>
						</g>
						<rect x="0" y="51.0821" width="26.0094" height="17.7304" class="st7"/>
					</g>
					<g id="shape203-26" v:mID="203" v:groupContext="shape" transform="translate(2.32995,-8.27471)">
						<title>Sheet.203</title>
						<g id="shadow203-27" v:groupContext="shadow" v:shadowOffsetX="0.3456" v:shadowOffsetY="-1.9728"
								v:shadowType="1" transform="matrix(1,0,0,1,0.3456,1.9728)" class="st2">
							<path d="M0 68.81 L0.04 68.81 L0.04 51.08 L23.81 51.05 L23.82 51.05 L0 51.08 L0 68.81 Z" class="st3"/>
						</g>
						<path d="M0 68.81 L0.04 68.81 L0.04 51.08 L23.81 51.05 L23.82 51.05 L0 51.08 L0 68.81 Z" class="st7"/>
					</g>
					<g id="shape204-31" v:mID="204" v:groupContext="shape" transform="translate(5.32077,-1.42109E-14)">
						<title>Sheet.204</title>
						<g id="shadow204-32" v:groupContext="shadow" v:shadowOffsetX="0.3456" v:shadowOffsetY="-1.9728"
								v:shadowType="1" transform="matrix(1,0,0,1,0.3456,1.9728)" class="st2">
							<rect x="0" y="66.9553" width="20.0978" height="1.8572" class="st3"/>
						</g>
						<rect x="0" y="66.9553" width="20.0978" height="1.8572" class="st5"/>
					</g>
					<g id="shape205-36" v:mID="205" v:groupContext="shape" transform="translate(14.8152,-26.6463)">
						<title>Sheet.205</title>
						<g id="shadow205-37" v:groupContext="shadow" v:shadowOffsetX="0.3456" v:shadowOffsetY="-1.9728"
								v:shadowType="1" transform="matrix(1,0,0,1,0.3456,1.9728)" class="st2">
							<path d="M0.87 68.38 C0.87 68.62 0.68 68.81 0.44 68.81 C0.19 68.81 0 68.62 0 68.38 C0 68.13 0.19 67.94
										 0.44 67.94 C0.68 67.94 0.87 68.13 0.87 68.38 Z" class="st3"/>
						</g>
						<path d="M0.87 68.38 C0.87 68.62 0.68 68.81 0.44 68.81 C0.19 68.81 0 68.62 0 68.38 C0 68.13 0.19 67.94 0.44
									 67.94 C0.68 67.94 0.87 68.13 0.87 68.38 Z" class="st8"/>
					</g>
					<g id="shape206-41" v:mID="206" v:groupContext="shape" transform="translate(10.1288,-17.6775)">
						<title>Sheet.206</title>
						<g id="shadow206-42" v:groupContext="shadow" v:shadowOffsetX="0.3456" v:shadowOffsetY="-1.9728"
								v:shadowType="1" transform="matrix(1,0,0,1,0.3456,1.9728)" class="st2">
							<path d="M5.58 68.81 C5.55 68.81 5.52 68.8 5.49 68.79 L0.08 65.66 C0.03 65.64 0 65.58 0 65.52 C0 65.46
										 0.03 65.41 0.08 65.38 L5.46 62.28 C5.51 62.25 5.57 62.25 5.62 62.28 L11.04 65.4 C11.09 65.43
										 11.12 65.49 11.12 65.54 C11.12 65.6 11.09 65.66 11.04 65.69 L5.66 68.79 C5.63 68.8 5.61
										 68.81 5.58 68.81 Z" class="st3"/>
						</g>
						<path d="M5.58 68.81 C5.55 68.81 5.52 68.8 5.49 68.79 L0.08 65.66 C0.03 65.64 0 65.58 0 65.52 C0 65.46 0.03
									 65.41 0.08 65.38 L5.46 62.28 C5.51 62.25 5.57 62.25 5.62 62.28 L11.04 65.4 C11.09 65.43 11.12
									 65.49 11.12 65.54 C11.12 65.6 11.09 65.66 11.04 65.69 L5.66 68.79 C5.63 68.8 5.61 68.81 5.58
									 68.81 Z" class="st9"/>
					</g>
					<g id="shape207-46" v:mID="207" v:groupContext="shape" transform="translate(9.36468,-10.084)">
						<title>Sheet.207</title>
						<g id="shadow207-47" v:groupContext="shadow" v:shadowOffsetX="0.3456" v:shadowOffsetY="-1.9728"
								v:shadowType="1" transform="matrix(1,0,0,1,0.3456,1.9728)" class="st2">
							<path d="M5.56 68.81 C5.53 68.81 5.5 68.81 5.48 68.79 L0.08 65.68 C0.03 65.65 0 65.59 0 65.53 L0 59.28
										 C0 59.23 0.03 59.17 0.08 59.14 C0.13 59.11 0.19 59.11 0.25 59.14 L5.64 62.26 C5.69 62.29
										 5.72 62.34 5.72 62.4 L5.72 68.65 C5.72 68.71 5.69 68.76 5.64 68.79 C5.62 68.81 5.59 68.81
										 5.56 68.81 Z" class="st3"/>
						</g>
						<path d="M5.56 68.81 C5.53 68.81 5.5 68.81 5.48 68.79 L0.08 65.68 C0.03 65.65 0 65.59 0 65.53 L0 59.28 C0
									 59.23 0.03 59.17 0.08 59.14 C0.13 59.11 0.19 59.11 0.25 59.14 L5.64 62.26 C5.69 62.29 5.72 62.34
									 5.72 62.4 L5.72 68.65 C5.72 68.71 5.69 68.76 5.64 68.79 C5.62 68.81 5.59 68.81 5.56 68.81 Z"
								class="st10"/>
					</g>
					<g id="shape208-51" v:mID="208" v:groupContext="shape" transform="translate(16.2906,-10.084)">
						<title>Sheet.208</title>
						<g id="shadow208-52" v:groupContext="shadow" v:shadowOffsetX="0.3456" v:shadowOffsetY="-1.9728"
								v:shadowType="1" transform="matrix(1,0,0,1,0.3456,1.9728)" class="st2">
							<path d="M0.16 68.81 C0.13 68.81 0.11 68.81 0.08 68.79 C0.03 68.76 0 68.71 0 68.65 L0 62.44 C0 62.38
										 0.03 62.33 0.08 62.3 L5.48 59.18 C5.53 59.15 5.59 59.15 5.64 59.18 C5.69 59.21 5.72 59.27
										 5.72 59.32 L5.72 65.53 C5.72 65.59 5.69 65.65 5.64 65.68 L0.24 68.79 C0.22 68.81 0.19 68.81
										 0.16 68.81 Z" class="st3"/>
						</g>
						<path d="M0.16 68.81 C0.13 68.81 0.11 68.81 0.08 68.79 C0.03 68.76 0 68.71 0 68.65 L0 62.44 C0 62.38 0.03
									 62.33 0.08 62.3 L5.48 59.18 C5.53 59.15 5.59 59.15 5.64 59.18 C5.69 59.21 5.72 59.27 5.72 59.32
									 L5.72 65.53 C5.72 65.59 5.69 65.65 5.64 65.68 L0.24 68.79 C0.22 68.81 0.19 68.81 0.16 68.81
									 Z" class="st11"/>
					</g>
				</g>
				<g id="group310-56" transform="translate(22.3326,-3.68571)" v:mID="310" v:groupContext="group">
					<title>Sheet.310</title>
					<g id="shape308-57" v:mID="308" v:groupContext="shape" transform="translate(1.54737,-1.92227)">
						<title>Sheet.308</title>
						<rect x="0" y="64.3515" width="1.42509" height="4.46101" class="st1"/>
					</g>
					<g id="group221-59" v:mID="221" v:groupContext="group">
						<title>Alert</title>
						<g id="shape222-60" v:mID="222" v:groupContext="shape" transform="translate(-1.97651,-1.05077)">
							<title>Sheet.222</title>
							<g id="shadow222-61" v:groupContext="shadow" v:shadowOffsetX="0.3456" v:shadowOffsetY="-1.9728"
									v:shadowType="1" transform="matrix(1,0,0,1,0.3456,1.9728)" class="st2">
								<path d="M8.13 67.91 L6.44 65.15 L4.73 62.25 C4.45 61.79 3.93 61.79 3.66 62.23 L1.97 64.99 L0.27
											 67.91 C0 68.37 0.29 68.81 0.84 68.81 L4.2 68.81 L7.57 68.81 C8.13 68.79 8.41 68.35 8.13
											 67.91 ZM4.66 63.86 L4.54 66.3 L3.89 66.3 L3.76 63.86 L4.66 63.86 ZM4.2 67.81 C3.89 67.81
											 3.68 67.58 3.68 67.29 C3.68 66.97 3.89 66.76 4.2 66.76 C4.52 66.76 4.7 66.97 4.73 67.29
											 C4.73 67.58 4.52 67.81 4.2 67.81 Z" class="st3"/>
							</g>
							<path d="M8.13 67.91 L6.44 65.15 L4.73 62.25 C4.45 61.79 3.93 61.79 3.66 62.23 L1.97 64.99 L0.27 67.91
										 C0 68.37 0.29 68.81 0.84 68.81 L4.2 68.81 L7.57 68.81 C8.13 68.79 8.41 68.35 8.13 67.91
										 ZM4.66 63.86 L4.54 66.3 L3.89 66.3 L3.76 63.86 L4.66 63.86 ZM4.2 67.81 C3.89 67.81 3.68
										 67.58 3.68 67.29 C3.68 66.97 3.89 66.76 4.2 66.76 C4.52 66.76 4.7 66.97 4.73 67.29 C4.73
										 67.58 4.52 67.81 4.2 67.81 Z" class="st12"/>
						</g>
						<g id="group223-65" v:mID="223" v:groupContext="group">
							<title>Sheet.223</title>
						</g>
					</g>
				</g>
			</g>
		</g>
	</g>
</svg>
