<?xml version="1.0" encoding="UTF-8" standalone="no"?>
<!DOCTYPE svg PUBLIC "-//W3C//DTD SVG 1.1//EN" "http://www.w3.org/Graphics/SVG/1.1/DTD/svg11.dtd">
<!-- Generated by Microsoft Visio, SVG Export UnderAttack.svg Page-1 -->
<svg xmlns="http://www.w3.org/2000/svg" xmlns:xlink="http://www.w3.org/1999/xlink" xmlns:ev="http://www.w3.org/2001/xml-events"
		xmlns:v="http://schemas.microsoft.com/visio/2003/SVGExtensions/" width="0.963541in" height="0.955729in"
		viewBox="0 0 69.375 68.8125" xml:space="preserve" color-interpolation-filters="sRGB" class="st13">
	<v:documentProperties v:langID="1033" v:viewMarkup="false"/>

	<style type="text/css">
	<![CDATA[
		.st1 {fill:#ffffff;stroke:none;stroke-linecap:round;stroke-linejoin:round;stroke-width:0.75}
		.st2 {visibility:visible}
		.st3 {fill:#5b9bd5;fill-opacity:0.22;filter:url(#filter_2);stroke:none}
		.st4 {fill:#7a7a7a;stroke:none;stroke-width:12.24}
		.st5 {fill:#a0a1a2;stroke:none;stroke-width:12.24}
		.st6 {fill:#ffffff;fill-opacity:0.2;stroke:none;stroke-width:12.24}
		.st7 {fill:#59b4d9;stroke:none;stroke-width:12.24}
		.st8 {fill:#b8d432;stroke:none;stroke-width:12.24}
		.st9 {fill:#ffffff;stroke:none;stroke-width:12.24}
		.st10 {fill:#ffffff;fill-opacity:0.7;stroke:none;stroke-width:12.24}
		.st11 {fill:#ffffff;fill-opacity:0.4;stroke:none;stroke-width:12.24}
		.st12 {fill:#c00000;stroke:none;stroke-width:4.02632}
		.st13 {fill:none;fill-rule:evenodd;font-size:12px;overflow:visible;stroke-linecap:square;stroke-miterlimit:3}
	]]>
	</style>

	<defs id="Filters">
		<filter id="filter_2">
			<feGaussianBlur stdDeviation="2"/>
		</filter>
	</defs>
	<g v:mID="0" v:index="1" v:groupContext="foregroundPage">
		<title>Page-1</title>
		<v:pageProperties v:drawingScale="1" v:pageScale="1" v:drawingUnits="19" v:shadowOffsetX="9" v:shadowOffsetY="-9"/>
		<g id="group314-1" transform="translate(0.375,-0.375)" v:mID="314" v:groupContext="group">
			<title>Sheet.314</title>
			<g id="shape312-2" v:mID="312" v:groupContext="shape">
				<title>Sheet.312</title>
				<rect x="0" y="0.749998" width="68.625" height="68.0625" class="st1"/>
			</g>
			<g id="group311-4" transform="translate(25.2106,-25.6306)" v:mID="311" v:groupContext="group">
				<title>Sheet.311</title>
				<g id="group198-5" v:mID="198" v:groupContext="group">
					<title>Azure Portal - Virtual Machines</title>
					<g id="shape199-6" v:mID="199" v:groupContext="shape" transform="translate(3.15101,0)">
						<title>Sheet.199</title>
						<g id="shadow199-7" v:groupContext="shadow" v:shadowOffsetX="0.3456" v:shadowOffsetY="-1.9728"
								v:shadowType="1" transform="matrix(1,0,0,1,0.3456,1.9728)" class="st2">
							<path d="M8.65 65.31 L8.22 65.31 L3.93 65.31 L3.7 65.31 C4.3 67.41 3.5 67.71 0 67.71 L0 68.81 L4.45 68.81
										 L7.7 68.81 L11.9 68.81 L11.9 67.71 C8.4 67.71 8.06 67.41 8.65 65.31 Z" class="st3"/>
						</g>
						<path d="M8.65 65.31 L8.22 65.31 L3.93 65.31 L3.7 65.31 C4.3 67.41 3.5 67.71 0 67.71 L0 68.81 L4.45 68.81
									 L7.7 68.81 L11.9 68.81 L11.9 67.71 C8.4 67.71 8.06 67.41 8.65 65.31 Z" class="st4"/>
					</g>
					<g id="shape200-11" v:mID="200" v:groupContext="shape" transform="translate(0.000364068,-3.49979)">
						<title>Sheet.200</title>
						<g id="shadow200-12" v:groupContext="shadow" v:shadowOffsetX="0.3456" v:shadowOffsetY="-1.9728"
								v:shadowType="1" transform="matrix(1,0,0,1,0.3456,1.9728)" class="st2">
							<path d="M17.1 55.51 L0.99 55.51 C0.44 55.51 0 56 0 56.55 L0 67.78 C0 68.33 0.44 68.81 0.99 68.81 L17.1
										 68.81 C17.65 68.81 18.2 68.33 18.2 67.78 L18.2 56.55 C18.2 56 17.65 55.51 17.1 55.51 Z"
									class="st3"/>
						</g>
						<path d="M17.1 55.51 L0.99 55.51 C0.44 55.51 0 56 0 56.55 L0 67.78 C0 68.33 0.44 68.81 0.99 68.81 L17.1 68.81
									 C17.65 68.81 18.2 68.33 18.2 67.78 L18.2 56.55 C18.2 56 17.65 55.51 17.1 55.51 Z" class="st5"/>
					</g>
					<g id="shape201-16" v:mID="201" v:groupContext="shape" transform="translate(0,-3.49942)">
						<title>Sheet.201</title>
						<g id="shadow201-17" v:groupContext="shadow" v:shadowOffsetX="0.3456" v:shadowOffsetY="-1.9728"
								v:shadowType="1" transform="matrix(1,0,0,1,0.3456,1.9728)" class="st2">
							<path d="M17.12 55.51 C17.11 55.51 17.11 55.51 17.1 55.51 L0.99 55.51 C0.44 55.51 0 56 0 56.55 L0 67.78
										 C0 68.33 0.44 68.81 0.99 68.81 L1.37 68.81 L17.12 55.51 Z" class="st3"/>
						</g>
						<path d="M17.12 55.51 C17.11 55.51 17.11 55.51 17.1 55.51 L0.99 55.51 C0.44 55.51 0 56 0 56.55 L0 67.78 C0
									 68.33 0.44 68.81 0.99 68.81 L1.37 68.81 L17.12 55.51 Z" class="st6"/>
					</g>
					<g id="shape202-21" v:mID="202" v:groupContext="shape" transform="translate(1.37982,-4.90036)">
						<title>Sheet.202</title>
						<g id="shadow202-22" v:groupContext="shadow" v:shadowOffsetX="0.3456" v:shadowOffsetY="-1.9728"
								v:shadowType="1" transform="matrix(1,0,0,1,0.3456,1.9728)" class="st2">
							<rect x="0" y="58.3124" width="15.403" height="10.5001" class="st3"/>
						</g>
						<rect x="0" y="58.3124" width="15.403" height="10.5001" class="st7"/>
					</g>
					<g id="shape203-26" v:mID="203" v:groupContext="shape" transform="translate(1.37982,-4.90036)">
						<title>Sheet.203</title>
						<g id="shadow203-27" v:groupContext="shadow" v:shadowOffsetX="0.3456" v:shadowOffsetY="-1.9728"
								v:shadowType="1" transform="matrix(1,0,0,1,0.3456,1.9728)" class="st2">
							<path d="M0 68.81 L0.02 68.81 L0.02 58.31 L14.1 58.29 L14.1 58.29 L0 58.31 L0 68.81 Z" class="st3"/>
						</g>
						<path d="M0 68.81 L0.02 68.81 L0.02 58.31 L14.1 58.29 L14.1 58.29 L0 58.31 L0 68.81 Z" class="st7"/>
					</g>
					<g id="shape204-31" v:mID="204" v:groupContext="shape" transform="translate(3.15101,0)">
						<title>Sheet.204</title>
						<g id="shadow204-32" v:groupContext="shadow" v:shadowOffsetX="0.3456" v:shadowOffsetY="-1.9728"
								v:shadowType="1" transform="matrix(1,0,0,1,0.3456,1.9728)" class="st2">
							<rect x="0" y="67.7127" width="11.9021" height="1.09985" class="st3"/>
						</g>
						<rect x="0" y="67.7127" width="11.9021" height="1.09985" class="st5"/>
					</g>
					<g id="shape205-36" v:mID="205" v:groupContext="shape" transform="translate(8.77368,-15.7802)">
						<title>Sheet.205</title>
						<g id="shadow205-37" v:groupContext="shadow" v:shadowOffsetX="0.3456" v:shadowOffsetY="-1.9728"
								v:shadowType="1" transform="matrix(1,0,0,1,0.3456,1.9728)" class="st2">
							<path d="M0.52 68.55 C0.52 68.7 0.4 68.81 0.26 68.81 C0.12 68.81 0 68.7 0 68.55 C0 68.41 0.12 68.3 0.26
										 68.3 C0.4 68.3 0.52 68.41 0.52 68.55 Z" class="st3"/>
						</g>
						<path d="M0.52 68.55 C0.52 68.7 0.4 68.81 0.26 68.81 C0.12 68.81 0 68.7 0 68.55 C0 68.41 0.12 68.3 0.26 68.3
									 C0.4 68.3 0.52 68.41 0.52 68.55 Z" class="st8"/>
					</g>
					<g id="shape206-41" v:mID="206" v:groupContext="shape" transform="translate(5.99839,-10.4688)">
						<title>Sheet.206</title>
						<g id="shadow206-42" v:groupContext="shadow" v:shadowOffsetX="0.3456" v:shadowOffsetY="-1.9728"
								v:shadowType="1" transform="matrix(1,0,0,1,0.3456,1.9728)" class="st2">
							<path d="M3.3 68.81 C3.29 68.81 3.27 68.81 3.25 68.8 L0.05 66.95 C0.02 66.93 0 66.9 0 66.86 C0 66.83
										 0.02 66.8 0.05 66.78 L3.23 64.94 C3.26 64.93 3.3 64.93 3.33 64.94 L6.54 66.79 C6.57 66.81
										 6.58 66.84 6.58 66.88 C6.58 66.91 6.57 66.94 6.54 66.96 L3.35 68.8 C3.34 68.81 3.32 68.81
										 3.3 68.81 Z" class="st3"/>
						</g>
						<path d="M3.3 68.81 C3.29 68.81 3.27 68.81 3.25 68.8 L0.05 66.95 C0.02 66.93 0 66.9 0 66.86 C0 66.83 0.02
									 66.8 0.05 66.78 L3.23 64.94 C3.26 64.93 3.3 64.93 3.33 64.94 L6.54 66.79 C6.57 66.81 6.58 66.84
									 6.58 66.88 C6.58 66.91 6.57 66.94 6.54 66.96 L3.35 68.8 C3.34 68.81 3.32 68.81 3.3 68.81 Z"
								class="st9"/>
					</g>
					<g id="shape207-46" v:mID="207" v:groupContext="shape" transform="translate(5.54585,-5.97181)">
						<title>Sheet.207</title>
						<g id="shadow207-47" v:groupContext="shadow" v:shadowOffsetX="0.3456" v:shadowOffsetY="-1.9728"
								v:shadowType="1" transform="matrix(1,0,0,1,0.3456,1.9728)" class="st2">
							<path d="M3.29 68.81 C3.28 68.81 3.26 68.81 3.25 68.8 L0.05 66.96 C0.02 66.94 0 66.91 0 66.87 L0 63.17
										 C0 63.13 0.02 63.1 0.05 63.09 C0.08 63.07 0.12 63.07 0.15 63.09 L3.34 64.93 C3.37 64.95
										 3.39 64.98 3.39 65.01 L3.39 68.72 C3.39 68.75 3.37 68.78 3.34 68.8 C3.33 68.81 3.31 68.81
										 3.29 68.81 Z" class="st3"/>
						</g>
						<path d="M3.29 68.81 C3.28 68.81 3.26 68.81 3.25 68.8 L0.05 66.96 C0.02 66.94 0 66.91 0 66.87 L0 63.17 C0
									 63.13 0.02 63.1 0.05 63.09 C0.08 63.07 0.12 63.07 0.15 63.09 L3.34 64.93 C3.37 64.95 3.39 64.98
									 3.39 65.01 L3.39 68.72 C3.39 68.75 3.37 68.78 3.34 68.8 C3.33 68.81 3.31 68.81 3.29 68.81 Z"
								class="st10"/>
					</g>
					<g id="shape208-51" v:mID="208" v:groupContext="shape" transform="translate(9.64744,-5.97181)">
						<title>Sheet.208</title>
						<g id="shadow208-52" v:groupContext="shadow" v:shadowOffsetX="0.3456" v:shadowOffsetY="-1.9728"
								v:shadowType="1" transform="matrix(1,0,0,1,0.3456,1.9728)" class="st2">
							<path d="M0.1 68.81 C0.08 68.81 0.06 68.81 0.05 68.8 C0.02 68.78 0 68.75 0 68.72 L0 65.04 C0 65 0.02
										 64.97 0.05 64.95 L3.24 63.11 C3.27 63.09 3.31 63.09 3.34 63.11 C3.37 63.13 3.39 63.16 3.39
										 63.19 L3.39 66.87 C3.39 66.91 3.37 66.94 3.34 66.96 L0.14 68.8 C0.13 68.81 0.11 68.81 0.1
										 68.81 Z" class="st3"/>
						</g>
						<path d="M0.1 68.81 C0.08 68.81 0.06 68.81 0.05 68.8 C0.02 68.78 0 68.75 0 68.72 L0 65.04 C0 65 0.02 64.97
									 0.05 64.95 L3.24 63.11 C3.27 63.09 3.31 63.09 3.34 63.11 C3.37 63.13 3.39 63.16 3.39 63.19 L3.39
									 66.87 C3.39 66.91 3.37 66.94 3.34 66.96 L0.14 68.8 C0.13 68.81 0.11 68.81 0.1 68.81 Z"
								class="st11"/>
					</g>
				</g>
				<g id="group310-56" transform="translate(13.2255,-2.18271)" v:mID="310" v:groupContext="group">
					<title>Sheet.310</title>
					<g id="shape308-57" v:mID="308" v:groupContext="shape" transform="translate(0.916368,-1.13838)">
						<title>Sheet.308</title>
						<rect x="0" y="66.1706" width="0.843954" height="2.64185" class="st1"/>
					</g>
					<g id="group221-59" v:mID="221" v:groupContext="group">
						<title>Alert</title>
						<g id="shape222-60" v:mID="222" v:groupContext="shape" transform="translate(-1.17051,-0.622277)">
							<title>Sheet.222</title>
							<g id="shadow222-61" v:groupContext="shadow" v:shadowOffsetX="0.3456" v:shadowOffsetY="-1.9728"
									v:shadowType="1" transform="matrix(1,0,0,1,0.3456,1.9728)" class="st2">
								<path d="M4.82 68.28 L3.81 66.65 L2.8 64.92 C2.64 64.65 2.33 64.65 2.17 64.91 L1.16 66.55 L0.16 68.28
											 C0 68.55 0.17 68.81 0.5 68.81 L2.49 68.81 L4.48 68.81 C4.82 68.8 4.98 68.54 4.82 68.28
											 ZM2.76 65.88 L2.69 67.33 L2.3 67.33 L2.23 65.88 L2.76 65.88 ZM2.49 68.22 C2.3 68.22
											 2.18 68.08 2.18 67.91 C2.18 67.72 2.3 67.6 2.49 67.6 C2.67 67.6 2.79 67.72 2.8 67.91
											 C2.8 68.08 2.67 68.22 2.49 68.22 Z" class="st3"/>
							</g>
							<path d="M4.82 68.28 L3.81 66.65 L2.8 64.92 C2.64 64.65 2.33 64.65 2.17 64.91 L1.16 66.55 L0.16 68.28
										 C0 68.55 0.17 68.81 0.5 68.81 L2.49 68.81 L4.48 68.81 C4.82 68.8 4.98 68.54 4.82 68.28 ZM2.76
										 65.88 L2.69 67.33 L2.3 67.33 L2.23 65.88 L2.76 65.88 ZM2.49 68.22 C2.3 68.22 2.18 68.08
										 2.18 67.91 C2.18 67.72 2.3 67.6 2.49 67.6 C2.67 67.6 2.79 67.72 2.8 67.91 C2.8 68.08 2.67
										 68.22 2.49 68.22 Z" class="st12"/>
						</g>
						<g id="group223-65" v:mID="223" v:groupContext="group">
							<title>Sheet.223</title>
						</g>
					</g>
				</g>
			</g>
		</g>
	</g>
</svg>
