<?xml version="1.0" encoding="UTF-8" standalone="no"?>
<!DOCTYPE svg PUBLIC "-//W3C//DTD SVG 1.1//EN" "http://www.w3.org/Graphics/SVG/1.1/DTD/svg11.dtd">
<!-- Generated by Microsoft Visio, SVG Export WAF.svg Page-1 -->
<svg xmlns="http://www.w3.org/2000/svg" xmlns:xlink="http://www.w3.org/1999/xlink" xmlns:ev="http://www.w3.org/2001/xml-events"
		xmlns:v="http://schemas.microsoft.com/visio/2003/SVGExtensions/" width="0.885417in" height="0.892346in"
		viewBox="0 0 63.75 64.2489" xml:space="preserve" color-interpolation-filters="sRGB" class="st14">
	<v:documentProperties v:langID="1033" v:viewMarkup="false"/>

	<style type="text/css">
	<![CDATA[
		.st1 {fill:#ffffff;stroke:none;stroke-linecap:round;stroke-linejoin:round;stroke-width:0.75}
		.st2 {visibility:visible}
		.st3 {fill:#5b9bd5;fill-opacity:0.22;filter:url(#filter_2);stroke:none}
		.st4 {fill:#7fba00;stroke:none;stroke-width:12.24}
		.st5 {fill:#ffffff;stroke:none;stroke-width:12.24}
		.st6 {fill:#ffffff;fill-opacity:0.15;stroke:none;stroke-width:12.24}
		.st7 {fill:#59b4d9;stroke:none;stroke-width:12.24}
		.st8 {fill:#ea700d;stroke:none;stroke-linecap:butt;stroke-width:0.75}
		.st9 {fill:none;stroke:none;stroke-linecap:round;stroke-linejoin:round;stroke-width:0.75}
		.st10 {fill:#595959;font-family:Calibri;font-size:0.499992em}
		.st11 {fill:#bad80a;stroke:none;stroke-linecap:butt;stroke-width:0.75}
		.st12 {fill:none}
		.st13 {stroke:#ffffff;stroke-linecap:round;stroke-linejoin:round;stroke-width:2.2575}
		.st14 {fill:none;fill-rule:evenodd;font-size:12px;overflow:visible;stroke-linecap:square;stroke-miterlimit:3}
	]]>
	</style>

	<defs id="Filters">
		<filter id="filter_2">
			<feGaussianBlur stdDeviation="2"/>
		</filter>
	</defs>
	<g v:mID="0" v:index="1" v:groupContext="foregroundPage">
		<title>Page-1</title>
		<v:pageProperties v:drawingScale="1" v:pageScale="1" v:drawingUnits="19" v:shadowOffsetX="9" v:shadowOffsetY="-9"/>
		<g id="shape345-1" v:mID="345" v:groupContext="shape" transform="translate(0.375,-2.62392)">
			<title>Sheet.345</title>
			<rect x="0" y="2.99892" width="63" height="61.25" class="st1"/>
		</g>
		<g id="group318-3" transform="translate(25.8477,-12.24)" v:mID="318" v:groupContext="group">
			<title>Application Gateway</title>
			<g id="shape319-4" v:mID="319" v:groupContext="shape">
				<title>Sheet.319</title>
				<g id="shadow319-5" v:groupContext="shadow" v:shadowOffsetX="0.3456" v:shadowOffsetY="-1.9728" v:shadowType="1"
						transform="matrix(1,0,0,1,0.3456,1.9728)" class="st2">
					<path d="M6.02 64.25 C5.73 64.25 5.44 64.13 5.22 63.91 L0.34 59.03 C0.12 58.81 0 58.52 0 58.23 C0 57.94 0.12
								 57.66 0.34 57.44 L5.22 52.56 C5.44 52.34 5.73 52.22 6.02 52.22 C6.3 52.22 6.59 52.34 6.81 52.56
								 L11.72 57.46 C11.93 57.68 12.05 57.94 12.05 58.26 C12.05 58.55 11.93 58.84 11.72 59.05 L6.81 63.91
								 C6.59 64.13 6.3 64.25 6.02 64.25 Z" class="st3"/>
				</g>
				<path d="M6.02 64.25 C5.73 64.25 5.44 64.13 5.22 63.91 L0.34 59.03 C0.12 58.81 0 58.52 0 58.23 C0 57.94 0.12 57.66
							 0.34 57.44 L5.22 52.56 C5.44 52.34 5.73 52.22 6.02 52.22 C6.3 52.22 6.59 52.34 6.81 52.56 L11.72 57.46
							 C11.93 57.68 12.05 57.94 12.05 58.26 C12.05 58.55 11.93 58.84 11.72 59.05 L6.81 63.91 C6.59 64.13 6.3
							 64.25 6.02 64.25 Z" class="st4"/>
			</g>
			<g id="shape320-9" v:mID="320" v:groupContext="shape" transform="translate(3.93088,-7.17673)">
				<title>Sheet.320</title>
				<g id="shadow320-10" v:groupContext="shadow" v:shadowOffsetX="0.3456" v:shadowOffsetY="-1.9728" v:shadowType="1"
						transform="matrix(1,0,0,1,0.3456,1.9728)" class="st2">
					<path d="M3.22 63.87 C2.89 64.12 2.49 64.25 2.1 64.25 C1.54 64.25 0.99 64 0.62 63.52 C0 62.71 0.15 61.54 0.97
								 60.92 C1.31 60.66 1.7 60.54 2.09 60.54 C2.65 60.54 3.21 60.79 3.57 61.27 C4.19 62.08 4.04 63.24
								 3.22 63.87 Z" class="st3"/>
				</g>
				<path d="M3.22 63.87 C2.89 64.12 2.49 64.25 2.1 64.25 C1.54 64.25 0.99 64 0.62 63.52 C0 62.71 0.15 61.54 0.97 60.92
							 C1.31 60.66 1.7 60.54 2.09 60.54 C2.65 60.54 3.21 60.79 3.57 61.27 C4.19 62.08 4.04 63.24 3.22 63.87
							 Z" class="st5"/>
			</g>
			<g id="shape321-14" v:mID="321" v:groupContext="shape" transform="translate(-6.09512E-14,-2.45424)">
				<title>Sheet.321</title>
				<g id="shadow321-15" v:groupContext="shadow" v:shadowOffsetX="0.3456" v:shadowOffsetY="-1.9728" v:shadowType="1"
						transform="matrix(1,0,0,1,0.3456,1.9728)" class="st2">
					<path d="M6.81 55.01 C6.59 54.79 6.3 54.67 6.02 54.67 C5.73 54.67 5.44 54.79 5.22 55.01 L0.34 59.89 C0.12 60.11
								 0 60.4 0 60.69 C0 60.98 0.12 61.27 0.34 61.48 L3.1 64.25 L8.33 56.53 L6.81 55.01 Z" class="st3"/>
				</g>
				<path d="M6.81 55.01 C6.59 54.79 6.3 54.67 6.02 54.67 C5.73 54.67 5.44 54.79 5.22 55.01 L0.34 59.89 C0.12 60.11 0
							 60.4 0 60.69 C0 60.98 0.12 61.27 0.34 61.48 L3.1 64.25 L8.33 56.53 L6.81 55.01 Z" class="st6"/>
			</g>
			<g id="shape322-19" v:mID="322" v:groupContext="shape" transform="translate(4.42726,-1.05869)">
				<title>Sheet.322</title>
				<g id="shadow322-20" v:groupContext="shadow" v:shadowOffsetX="0.3456" v:shadowOffsetY="-1.9728" v:shadowType="1"
						transform="matrix(1,0,0,1,0.3456,1.9728)" class="st2">
					<path d="M1.59 64.25 L3.18 62.66 L2.05 62.66 L2.05 57.88 L1.11 57.88 L1.11 62.66 L0 62.66 L1.59 64.25 Z"
							class="st3"/>
				</g>
				<path d="M1.59 64.25 L3.18 62.66 L2.05 62.66 L2.05 57.88 L1.11 57.88 L1.11 62.66 L0 62.66 L1.59 64.25 Z"
						class="st5"/>
			</g>
			<g id="shape323-24" v:mID="323" v:groupContext="shape" transform="translate(5.96838,-3.97491)">
				<title>Sheet.323</title>
				<g id="shadow323-25" v:groupContext="shadow" v:shadowOffsetX="0.3456" v:shadowOffsetY="-1.9728" v:shadowType="1"
						transform="matrix(1,0,0,1,0.3456,1.9728)" class="st2">
					<path d="M3.49 64.25 L3.49 62 L2.71 62.79 L0.68 60.75 L0 61.43 L2.03 63.47 L1.25 64.25 L3.49 64.25 Z"
							class="st3"/>
				</g>
				<path d="M3.49 64.25 L3.49 62 L2.71 62.79 L0.68 60.75 L0 61.43 L2.03 63.47 L1.25 64.25 L3.49 64.25 Z" class="st5"/>
			</g>
			<g id="shape324-29" v:mID="324" v:groupContext="shape" transform="translate(2.57094,-3.96649)">
				<title>Sheet.324</title>
				<g id="shadow324-30" v:groupContext="shadow" v:shadowOffsetX="0.3456" v:shadowOffsetY="-1.9728" v:shadowType="1"
						transform="matrix(1,0,0,1,0.3456,1.9728)" class="st2">
					<path d="M0 64.25 L2.25 64.25 L1.46 63.47 L3.55 61.38 L2.87 60.7 L0.78 62.79 L0 62 L0 64.25 Z" class="st3"/>
				</g>
				<path d="M0 64.25 L2.25 64.25 L1.46 63.47 L3.55 61.38 L2.87 60.7 L0.78 62.79 L0 62 L0 64.25 Z" class="st5"/>
			</g>
			<g id="shape325-34" v:mID="325" v:groupContext="shape" transform="translate(4.20951,-7.42312)">
				<title>Sheet.325</title>
				<g id="shadow325-35" v:groupContext="shadow" v:shadowOffsetX="0.3456" v:shadowOffsetY="-1.9728" v:shadowType="1"
						transform="matrix(1,0,0,1,0.3456,1.9728)" class="st2">
					<path d="M2.8 63.92 C2.5 64.14 2.16 64.25 1.82 64.25 C1.34 64.25 0.86 64.03 0.54 63.62 C0 62.91 0.13 61.9 0.84
								 61.36 C1.13 61.14 1.48 61.03 1.82 61.03 C2.3 61.03 2.78 61.25 3.1 61.66 C3.64 62.37 3.5 63.38 2.8
								 63.92 Z" class="st3"/>
				</g>
				<path d="M2.8 63.92 C2.5 64.14 2.16 64.25 1.82 64.25 C1.34 64.25 0.86 64.03 0.54 63.62 C0 62.91 0.13 61.9 0.84 61.36
							 C1.13 61.14 1.48 61.03 1.82 61.03 C2.3 61.03 2.78 61.25 3.1 61.66 C3.64 62.37 3.5 63.38 2.8 63.92 Z"
						class="st7"/>
			</g>
			<g id="shape326-39" v:mID="326" v:groupContext="shape" transform="translate(4.62913,-7.75613)">
				<title>Sheet.326</title>
				<g id="shadow326-40" v:groupContext="shadow" v:shadowOffsetX="0.3456" v:shadowOffsetY="-1.9728" v:shadowType="1"
						transform="matrix(1,0,0,1,0.3456,1.9728)" class="st2">
					<path d="M2.08 63.26 C2.2 63.41 2.41 63.44 2.57 63.32 C2.57 63.31 2.58 63.31 2.59 63.3 C2.74 63.41 2.85 63.48
								 2.91 63.52 C2.93 63.48 2.94 63.43 2.95 63.38 C2.89 63.34 2.8 63.27 2.68 63.17 C2.72 63.06 2.71 62.93
								 2.63 62.84 C2.52 62.7 2.33 62.66 2.18 62.75 C2.02 62.6 1.84 62.43 1.65 62.24 C2.24 61.93 2.66 61.97
								 2.66 61.97 C2.59 61.88 2.51 61.8 2.43 61.73 C2.18 61.7 1.79 61.7 1.35 61.93 L1.35 61.93 C1.2 61.78
								 1.05 61.61 0.9 61.44 C0.83 61.46 0.76 61.49 0.69 61.52 C0.8 61.71 0.95 61.89 1.12 62.08 C1.12 62.08
								 1.12 62.08 1.12 62.08 C0.98 62.18 0.82 62.31 0.68 62.46 C0.66 62.48 0.64 62.5 0.62 62.52 C0.53 62.51
								 0.44 62.51 0.36 62.54 C0.21 62.23 0.22 61.98 0.25 61.84 C0.18 61.91 0.12 61.98 0.07 62.06 C0.03
								 62.21 0.02 62.43 0.14 62.71 C0.01 62.88 0 63.12 0.14 63.29 C0.15 63.31 0.16 63.32 0.17 63.34 C0.11
								 63.54 0.09 63.73 0.08 63.9 C0.09 63.92 0.09 63.94 0.11 63.96 C0.19 64.06 0.28 64.14 0.38 64.22 C0.36
								 64.04 0.38 63.78 0.49 63.48 C0.56 63.49 0.64 63.48 0.71 63.45 C0.75 63.48 0.79 63.52 0.84 63.56
								 C1 63.68 1.16 63.78 1.31 63.86 C1.3 63.93 1.32 64.02 1.37 64.08 C1.48 64.22 1.68 64.25 1.82 64.14
								 C1.85 64.12 1.87 64.09 1.89 64.06 C2.14 64.12 2.36 64.13 2.52 64.13 C2.55 64.13 2.66 63.97 2.73
								 63.88 C2.63 63.9 2.34 63.94 1.94 63.82 C1.93 63.78 1.91 63.73 1.88 63.69 C1.78 63.56 1.59 63.53
								 1.45 63.62 C1.32 63.55 1.17 63.45 1.02 63.33 C0.99 63.31 0.96 63.28 0.93 63.26 C1.02 63.12 1.03
								 62.93 0.95 62.77 C0.97 62.76 0.99 62.74 1.01 62.72 C1.16 62.58 1.3 62.47 1.43 62.38 C1.42 62.37
								 1.42 62.37 1.41 62.36 C1.42 62.37 1.42 62.37 1.43 62.38 C1.43 62.38 1.43 62.38 1.43 62.38 C1.63
								 62.56 1.84 62.74 2.04 62.9 C1.99 63.01 2 63.15 2.08 63.26 Z" class="st3"/>
				</g>
				<path d="M2.08 63.26 C2.2 63.41 2.41 63.44 2.57 63.32 C2.57 63.31 2.58 63.31 2.59 63.3 C2.74 63.41 2.85 63.48 2.91
							 63.52 C2.93 63.48 2.94 63.43 2.95 63.38 C2.89 63.34 2.8 63.27 2.68 63.17 C2.72 63.06 2.71 62.93 2.63
							 62.84 C2.52 62.7 2.33 62.66 2.18 62.75 C2.02 62.6 1.84 62.43 1.65 62.24 C2.24 61.93 2.66 61.97 2.66
							 61.97 C2.59 61.88 2.51 61.8 2.43 61.73 C2.18 61.7 1.79 61.7 1.35 61.93 L1.35 61.93 C1.2 61.78 1.05 61.61
							 0.9 61.44 C0.83 61.46 0.76 61.49 0.69 61.52 C0.8 61.71 0.95 61.89 1.12 62.08 C1.12 62.08 1.12 62.08
							 1.12 62.08 C0.98 62.18 0.82 62.31 0.68 62.46 C0.66 62.48 0.64 62.5 0.62 62.52 C0.53 62.51 0.44 62.51
							 0.36 62.54 C0.21 62.23 0.22 61.98 0.25 61.84 C0.18 61.91 0.12 61.98 0.07 62.06 C0.03 62.21 0.02 62.43
							 0.14 62.71 C0.01 62.88 0 63.12 0.14 63.29 C0.15 63.31 0.16 63.32 0.17 63.34 C0.11 63.54 0.09 63.73 0.08
							 63.9 C0.09 63.92 0.09 63.94 0.11 63.96 C0.19 64.06 0.28 64.14 0.38 64.22 C0.36 64.04 0.38 63.78 0.49
							 63.48 C0.56 63.49 0.64 63.48 0.71 63.45 C0.75 63.48 0.79 63.52 0.84 63.56 C1 63.68 1.16 63.78 1.31 63.86
							 C1.3 63.93 1.32 64.02 1.37 64.08 C1.48 64.22 1.68 64.25 1.82 64.14 C1.85 64.12 1.87 64.09 1.89 64.06
							 C2.14 64.12 2.36 64.13 2.52 64.13 C2.55 64.13 2.66 63.97 2.73 63.88 C2.63 63.9 2.34 63.94 1.94 63.82
							 C1.93 63.78 1.91 63.73 1.88 63.69 C1.78 63.56 1.59 63.53 1.45 63.62 C1.32 63.55 1.17 63.45 1.02 63.33
							 C0.99 63.31 0.96 63.28 0.93 63.26 C1.02 63.12 1.03 62.93 0.95 62.77 C0.97 62.76 0.99 62.74 1.01 62.72
							 C1.16 62.58 1.3 62.47 1.43 62.38 C1.42 62.37 1.42 62.37 1.41 62.36 C1.42 62.37 1.42 62.37 1.43 62.38
							 C1.43 62.38 1.43 62.38 1.43 62.38 C1.63 62.56 1.84 62.74 2.04 62.9 C1.99 63.01 2 63.15 2.08 63.26 Z"
						class="st5"/>
			</g>
		</g>
		<g id="group327-44" transform="translate(24,-30.8778)" v:mID="327" v:groupContext="group">
			<title>Firewall.327</title>
			<g id="shape328-45" v:mID="328" v:groupContext="shape" transform="translate(0,-9.81593)">
				<title>Sheet.328</title>
				<rect x="0" y="61.3405" width="3.63553" height="2.90842" class="st8"/>
			</g>
			<g id="shape329-47" v:mID="329" v:groupContext="shape" transform="translate(4.03944,-9.81593)">
				<title>Sheet.329</title>
				<rect x="0" y="61.3405" width="6.46288" height="2.90842" class="st8"/>
			</g>
			<g id="shape330-49" v:mID="330" v:groupContext="shape" transform="translate(10.9066,-9.81593)">
				<title>Sheet.330</title>
				<rect x="0" y="61.3405" width="3.63553" height="2.90842" class="st8"/>
			</g>
			<g id="shape331-51" v:mID="331" v:groupContext="shape" transform="translate(0,-6.54395)">
				<title>Sheet.331</title>
				<rect x="0" y="61.3405" width="6.86715" height="2.90842" class="st8"/>
			</g>
			<g id="shape332-53" v:mID="332" v:groupContext="shape" transform="translate(7.27106,-6.54395)">
				<title>Sheet.332</title>
				<rect x="0" y="61.3405" width="7.27106" height="2.90842" class="st8"/>
			</g>
			<g id="shape333-55" v:mID="333" v:groupContext="shape" transform="translate(0,-3.27198)">
				<title>Sheet.333</title>
				<rect x="0" y="61.3405" width="3.63553" height="2.90842" class="st8"/>
			</g>
			<g id="shape334-57" v:mID="334" v:groupContext="shape" transform="translate(4.03944,-3.27198)">
				<title>Sheet.334</title>
				<rect x="0" y="61.3405" width="6.46288" height="2.90842" class="st8"/>
			</g>
			<g id="shape335-59" v:mID="335" v:groupContext="shape" transform="translate(10.9066,-3.27198)">
				<title>Sheet.335</title>
				<rect x="0" y="61.3405" width="3.63553" height="2.90842" class="st8"/>
			</g>
			<g id="shape336-61" v:mID="336" v:groupContext="shape">
				<title>Sheet.336</title>
				<rect x="0" y="61.3405" width="6.86715" height="2.90842" class="st8"/>
			</g>
			<g id="shape337-63" v:mID="337" v:groupContext="shape" transform="translate(7.27106,7.10543E-14)">
				<title>Sheet.337</title>
				<rect x="0" y="61.3405" width="7.27106" height="2.90842" class="st8"/>
			</g>
		</g>
		<g id="shape338-65" v:mID="338" v:groupContext="shape" transform="translate(20.7881,-23.7067)">
			<title>Sheet.338</title>
			<desc>WAF</desc>
			<v:textBlock v:margins="rect(4,4,4,4)"/>
			<v:textRect cx="11.0869" cy="61.2055" width="22.18" height="6.08673"/>
			<rect x="0" y="58.1622" width="22.1738" height="6.08673" class="st9"/>
			<text x="5.3" y="63.01" class="st10" v:langID="1033"><v:paragraph v:horizAlign="1"/><v:tabList/>WAF</text>		</g>
		<g id="shape343-68" v:mID="343" v:groupContext="shape" transform="translate(32.8536,-30.5183)">
			<title>path8194</title>
			<path d="M6.9 61.39 A4.03981 4.03981 0 1 1 2.86 57.35 A4.03981 4.03981 0 0 1 6.9 61.39 Z" class="st11"/>
		</g>
		<g id="shape344-70" v:mID="344" v:groupContext="shape" transform="translate(33.6879,-31.7328)">
			<title>polyline8196</title>
			<path d="M0 62.73 L1.52 64.25 L4.55 61.22 L0 62.73 Z" class="st12"/>
			<path d="M0 62.73 L1.52 64.25 L4.55 61.22" class="st13"/>
		</g>
	</g>
</svg>
